<?xml version="1.0" encoding="UTF-8" standalone="no"?>
<svg width="250px" height="250px" viewBox="0 0 250 250" version="1.1" xmlns="http://www.w3.org/2000/svg" xmlns:xlink="http://www.w3.org/1999/xlink" xmlns:sketch="http://www.bohemiancoding.com/sketch/ns">
    <!-- Generator: Sketch 3.3 (11970) - http://www.bohemiancoding.com/sketch -->
    <title>Address09</title>
    <desc>Created with Sketch.</desc>
    <defs></defs>
    <g id="Page-1" stroke="none" stroke-width="1" fill="none" fill-rule="evenodd" sketch:type="MSPage">
        <g id="Address09" sketch:type="MSArtboardGroup" fill="#FFFFFF">
            <path d="M56.0869418,161.202209 L56.0869418,88.5142975 L56.0869418,88.5142975 L69.2224319,96.0980762 L72.2224319,90.9019238 L59.2733112,83.4257455 L122,46.9699511 L122,62 L128,62 L128,47.577261 L128,47.577261 L190.700829,84.018026 L190.700829,84.018026 L178.777568,90.9019238 L181.777568,96.0980762 L192.868107,89.6949508 L192.868107,159.738062 L181.777568,153.334936 L178.777568,158.531089 L191.233694,165.722636 L191.233694,165.722636 L129,201.89191 L129,201.89191 L129,188 L123,188 L123,203.661589 L58.9851464,166.457133 L72.2224319,158.814583 L69.2224319,153.61843 L56.0869418,161.202209 Z" id="Polygon-1-Copy" sketch:type="MSShapeGroup"></path>
        </g>
    </g>
</svg>