<?xml version="1.0" encoding="UTF-8" standalone="no"?>
<svg width="250px" height="250px" viewBox="0 0 250 250" version="1.1" xmlns="http://www.w3.org/2000/svg" xmlns:xlink="http://www.w3.org/1999/xlink" xmlns:sketch="http://www.bohemiancoding.com/sketch/ns">
    <!-- Generator: Sketch 3.3 (11970) - http://www.bohemiancoding.com/sketch -->
    <title>Address21</title>
    <desc>Created with Sketch.</desc>
    <defs></defs>
    <g id="Page-1" stroke="none" stroke-width="1" fill="none" fill-rule="evenodd" sketch:type="MSPage">
        <g id="Address21" sketch:type="MSArtboardGroup" stroke="#FFFFFF" stroke-width="1.2" stroke-linecap="round" stroke-linejoin="round">
            <polygon id="Polygon-1-Copy-4" sketch:type="MSShapeGroup" points="125.26561 66.1041704 199.96752 107.957096 199.96752 191.662948 125.26561 233.515874 50.5636988 191.662948 50.5636988 107.957096 "></polygon>
            <polygon id="Polygon-1-Copy-10" sketch:type="MSShapeGroup" points="125.259839 59.8534313 199.96175 101.706357 199.96175 185.412209 125.259839 227.265135 50.5579286 185.412209 50.5579286 101.706357 "></polygon>
            <polygon id="Polygon-1-Copy-11" sketch:type="MSShapeGroup" points="125.259839 52.8534313 199.96175 94.7063572 199.96175 178.412209 125.259839 220.265135 50.5579286 178.412209 50.5579286 94.7063572 "></polygon>
            <polygon id="Polygon-1-Copy-12" sketch:type="MSShapeGroup" points="125.259839 45.8534313 199.96175 87.7063572 199.96175 171.412209 125.259839 213.265135 50.5579286 171.412209 50.5579286 87.7063572 "></polygon>
            <polygon id="Polygon-1-Copy-13" sketch:type="MSShapeGroup" points="125.259839 37.8534313 199.96175 79.7063572 199.96175 163.412209 125.259839 205.265135 50.5579286 163.412209 50.5579286 79.7063572 "></polygon>
            <polygon id="Polygon-1-Copy-14" sketch:type="MSShapeGroup" points="125.259839 29.8534313 199.96175 71.7063572 199.96175 155.412209 125.259839 197.265135 50.5579286 155.412209 50.5579286 71.7063572 "></polygon>
            <polygon id="Polygon-1-Copy-15" sketch:type="MSShapeGroup" points="125.259839 21.8534313 199.96175 63.7063572 199.96175 147.412209 125.259839 189.265135 50.5579286 147.412209 50.5579286 63.7063572 "></polygon>
            <polygon id="Polygon-1-Copy-16" sketch:type="MSShapeGroup" points="125.259839 14.8534313 199.96175 56.7063572 199.96175 140.412209 125.259839 182.265135 50.5579286 140.412209 50.5579286 56.7063572 "></polygon>
        </g>
    </g>
</svg>