<?xml version="1.0" encoding="UTF-8" standalone="no"?>
<svg width="250px" height="250px" viewBox="0 0 250 250" version="1.1" xmlns="http://www.w3.org/2000/svg" xmlns:xlink="http://www.w3.org/1999/xlink" xmlns:sketch="http://www.bohemiancoding.com/sketch/ns">
    <!-- Generator: Sketch 3.3 (11970) - http://www.bohemiancoding.com/sketch -->
    <title>Address20</title>
    <desc>Created with Sketch.</desc>
    <defs></defs>
    <g id="Page-1" stroke="none" stroke-width="1" fill="none" fill-rule="evenodd" sketch:type="MSPage">
        <g id="Address20" sketch:type="MSArtboardGroup" stroke="#FFFFFF" stroke-width="1.2" stroke-linecap="round" stroke-linejoin="round">
            <g id="Group-Copy" sketch:type="MSLayerGroup" transform="translate(21.000000, 4.000000)">
                <g id="Group" sketch:type="MSShapeGroup">
                    <polygon id="Polygon-1-Copy-4" points="104.266751 0.0496554681 208.525449 60.6432197 208.525449 181.830348 104.266751 242.423912 0.00805324577 181.830348 0.00805324577 60.6432197 "></polygon>
                    <polygon id="Polygon-1-Copy-5" points="104.266751 76.883745 142.424187 99.0602645 142.424187 143.413303 104.266751 165.589823 66.1093152 143.413303 66.1093152 99.0602645 "></polygon>
                    <polygon id="Polygon-1-Copy-6" transform="translate(104.266751, 121.236784) rotate(-345.000000) translate(-104.266751, -121.236784) " points="104.266751 70.3097494 148.079872 95.7732667 148.079872 146.700301 104.266751 172.163818 60.4536302 146.700301 60.4536302 95.7732667 "></polygon>
                    <polygon id="Polygon-1-Copy-7" transform="translate(105.456599, 120.913741) rotate(-330.000000) translate(-105.456599, -120.913741) " points="105.456599 63.1025852 155.192209 92.0081629 155.192209 149.819318 105.456599 178.724896 55.7209887 149.819318 55.7209887 92.0081629 "></polygon>
                    <polygon id="Polygon-1-Copy-8" transform="translate(105.456599, 120.913741) rotate(-315.000000) translate(-105.456599, -120.913741) " points="105.456599 54.9308088 162.222483 87.9222747 162.222483 153.905206 105.456599 186.896672 48.6907142 153.905206 48.6907142 87.9222747 "></polygon>
                </g>
            </g>
            <polygon id="Polygon-1-Copy-9" sketch:type="MSShapeGroup" transform="translate(125.547597, 124.982932) rotate(-300.000000) translate(-125.547597, -124.982932) " points="125.547597 50.3943589 189.717015 87.6886454 189.717015 162.277218 125.547597 199.571505 61.3781797 162.277218 61.3781797 87.6886454 "></polygon>
        </g>
    </g>
</svg>