<?xml version="1.0" encoding="UTF-8" standalone="no"?>
<svg width="250px" height="250px" viewBox="0 0 250 250" version="1.1" xmlns="http://www.w3.org/2000/svg" xmlns:xlink="http://www.w3.org/1999/xlink" xmlns:sketch="http://www.bohemiancoding.com/sketch/ns">
    <!-- Generator: Sketch 3.3 (11970) - http://www.bohemiancoding.com/sketch -->
    <title>Address03</title>
    <desc>Created with Sketch.</desc>
    <defs></defs>
    <g id="Page-1" stroke="none" stroke-width="1" fill="none" fill-rule="evenodd" sketch:type="MSPage">
        <g id="Address03" sketch:type="MSArtboardGroup" stroke="#FFFFFF" stroke-width="1.2" stroke-linecap="round" stroke-linejoin="round">
            <g id="Group" sketch:type="MSLayerGroup" transform="translate(4.000000, 3.000000)">
                <g sketch:type="MSShapeGroup">
                    <polygon id="Polygon-1-Copy-4" points="121.266751 1.04965547 225.525449 61.6432197 225.525449 182.830348 121.266751 243.423912 17.0080532 182.830348 17.0080532 61.6432197 "></polygon>
                    <path d="M223.92364,61.025941 L16.6726231,61.025941" id="Line-Copy-138"></path>
                    <path d="M120.695957,1.59856556 L122.5,242.499994" id="Line"></path>
                    <path d="M121.5,242.500007 L224.499997,61.5" id="Line"></path>
                    <path d="M67.7892963,212.308728 L224.499997,61.5" id="Line-Copy-143"></path>
                    <path d="M18.4837137,120.00059 L224.500002,61.5" id="Line-Copy-144"></path>
                    <path d="M16.8649644,180.000885 L224.500002,182.5" id="Line-Copy-24"></path>
                    <path d="M16.8649644,181.607223 L225.500002,61.5" id="Line-Copy-25"></path>
                    <path d="M122.286985,1.60327781 L17.8046939,182.056079" id="Line-Copy-19"></path>
                    <path d="M223.923643,181.539353 L18.4837138,62.56441" id="Line-Copy-22"></path>
                    <path d="M224.359295,122.119749 L18.4837138,62.56441" id="Line-Copy-148"></path>
                    <path d="M224.359295,122.119749 C224.359295,122.119749 86.7986252,121.422091 18.3365482,120.068457 C17.6338483,120.054563 16.8649644,118.017166 16.8649644,118.017166" id="Line-Copy-151"></path>
                    <path d="M176.499995,210.499995 L18.4837138,64.6157021" id="Line-Copy-150"></path>
                    <path d="M223.923643,181.539353 L16.4293144,120.00059" id="Line-Copy-141"></path>
                    <path d="M223.923643,181.539353 L73.9524941,29.7437359" id="Line-Copy-142"></path>
                    <path d="M121.500001,243.500007 L73.9524941,29.7437359" id="Line-Copy-147"></path>
                    <path d="M176.500001,210.500007 L73.9524941,29.7437359" id="Line-Copy-145"></path>
                    <path d="M121.286985,241.923513 L17.7130905,64.6040325" id="Line-Copy-23"></path>
                    <path d="M122.286985,1.60327781 L224.310353,182.356961" id="Line-Copy-20"></path>
                    <path d="M122.286985,1.60327781 L224.310353,182.356961" id="Line-Copy-146"></path>
                    <path d="M122.286985,1.60327781 L224.310353,182.356961" id="Line-Copy-149"></path>
                    <path d="M123.258077,3.07693819 L176.500001,210.500006" id="Line-Copy-139"></path>
                    <path d="M123.258077,3.07693819 L67.7892964,212.308737" id="Line-Copy-140"></path>
                </g>
            </g>
        </g>
    </g>
</svg>