<?xml version="1.0" encoding="UTF-8" standalone="no"?>
<svg width="250px" height="250px" viewBox="0 0 250 250" version="1.1" xmlns="http://www.w3.org/2000/svg" xmlns:xlink="http://www.w3.org/1999/xlink" xmlns:sketch="http://www.bohemiancoding.com/sketch/ns">
    <!-- Generator: Sketch 3.3 (11970) - http://www.bohemiancoding.com/sketch -->
    <title>Address11</title>
    <desc>Created with Sketch.</desc>
    <defs>
        <polygon id="path-1" points="48.146767 0.867052181 89.2970327 24.7829587 89.2970327 72.6147717 48.146767 96.5306782 6.99650127 72.6147717 6.99650127 24.7829587 "></polygon>
    </defs>
    <g id="Page-1" stroke="none" stroke-width="1" fill="none" fill-rule="evenodd" sketch:type="MSPage">
        <g id="Address11" sketch:type="MSArtboardGroup">
            <g id="Group" sketch:type="MSLayerGroup" transform="translate(45.000000, 45.000000)" stroke="#FFFFFF" stroke-width="4.032" stroke-linecap="round" stroke-linejoin="round">
                <polygon id="Polygon-1-Copy" sketch:type="MSShapeGroup" points="79.4775242 0.530051848 147.868107 40.2776148 147.868107 119.772741 79.4775242 159.520303 11.0869418 119.772741 11.0869418 40.2776148 "></polygon>
                <polygon id="Polygon-1-Copy-5" sketch:type="MSShapeGroup" points="80.146767 32.8670522 121.297033 56.7829587 121.297033 104.614772 80.146767 128.530678 38.9965013 104.614772 38.9965013 56.7829587 "></polygon>
            </g>
            <g id="Group-Copy-2" sketch:type="MSLayerGroup" transform="translate(77.000000, 77.000000)">
                <mask id="mask-2" sketch:name="Mask" fill="white">
                    <use xlink:href="#path-1"></use>
                </mask>
                <use id="Mask" sketch:type="MSShapeGroup" xlink:href="#path-1"></use>
                <g mask="url(#mask-2)" fill="#FFFFFF" sketch:type="MSShapeGroup">
                    <g transform="translate(-22.498301, -26.436365)">
                        <rect id="Rectangle-112" x="1.21138158e-13" y="15.6279568" width="14.6045383" height="14.5466221"></rect>
                        <rect id="Rectangle-112-Copy" x="14.6045383" y="30.1745789" width="14.6045383" height="14.5466221"></rect>
                        <rect id="Rectangle-112-Copy-8" x="29.2090766" y="15.6279568" width="14.6045383" height="14.5466221"></rect>
                        <rect id="Rectangle-112-Copy-2" x="29.2090766" y="44.721201" width="14.6045383" height="14.5466221"></rect>
                        <rect id="Rectangle-112-Copy-9" x="43.813615" y="30.1745789" width="14.6045383" height="14.5466221"></rect>
                        <rect id="Rectangle-112-Copy-14" x="58.4181533" y="15.6279568" width="14.6045383" height="14.5466221"></rect>
                        <rect id="Rectangle-112-Copy-21" x="73.0226916" y="1.08133467" width="14.6045383" height="14.5466221"></rect>
                        <rect id="Rectangle-112-Copy-20" x="43.813615" y="1.08133467" width="14.6045383" height="14.5466221"></rect>
                        <rect id="Rectangle-112-Copy-3" x="43.813615" y="59.2678231" width="14.6045383" height="14.5466221"></rect>
                        <rect id="Rectangle-112-Copy-10" x="58.4181533" y="44.721201" width="14.6045383" height="14.5466221"></rect>
                        <rect id="Rectangle-112-Copy-15" x="73.0226916" y="30.1745789" width="14.6045383" height="14.5466221"></rect>
                        <rect id="Rectangle-112-Copy-18" x="87.7493786" y="15.6279568" width="14.6045383" height="14.5466221"></rect>
                        <rect id="Rectangle-112-Copy-4" x="58.4181533" y="73.8144452" width="14.6045383" height="14.5466221"></rect>
                        <rect id="Rectangle-112-Copy-11" x="73.0226916" y="59.2678231" width="14.6045383" height="14.5466221"></rect>
                        <rect id="Rectangle-112-Copy-16" x="87.6272299" y="44.721201" width="14.6045383" height="14.5466221"></rect>
                        <rect id="Rectangle-112-Copy-19" x="102.353917" y="30.1745789" width="14.6045383" height="14.5466221"></rect>
                        <rect id="Rectangle-112-Copy-5" x="73.0226916" y="88.3610673" width="14.6045383" height="14.5466221"></rect>
                        <rect id="Rectangle-112-Copy-12" x="87.6272299" y="73.8144452" width="14.6045383" height="14.5466221"></rect>
                        <rect id="Rectangle-112-Copy-17" x="102.231768" y="59.2678231" width="14.6045383" height="14.5466221"></rect>
                        <rect id="Rectangle-112-Copy-6" x="87.6272299" y="102.907689" width="14.6045383" height="14.5466221"></rect>
                        <rect id="Rectangle-112-Copy-13" x="102.231768" y="88.3610673" width="14.6045383" height="14.5466221"></rect>
                        <rect id="Rectangle-112-Copy-7" x="102.231768" y="117.454312" width="14.6045383" height="14.5466221"></rect>
                    </g>
                </g>
            </g>
        </g>
    </g>
</svg>