<?xml version="1.0" encoding="UTF-8" standalone="no"?>
<svg width="250px" height="250px" viewBox="0 0 250 250" version="1.1" xmlns="http://www.w3.org/2000/svg" xmlns:xlink="http://www.w3.org/1999/xlink" xmlns:sketch="http://www.bohemiancoding.com/sketch/ns">
    <!-- Generator: Sketch 3.3 (11970) - http://www.bohemiancoding.com/sketch -->
    <title>Address24</title>
    <desc>Created with Sketch.</desc>
    <defs></defs>
    <g id="Page-1" stroke="none" stroke-width="1" fill="none" fill-rule="evenodd" sketch:type="MSPage">
        <g id="Address24" sketch:type="MSArtboardGroup">
            <g id="Rectangle-289-Copy-11-+-Group-Copy-2-Copy" sketch:type="MSLayerGroup" transform="translate(125.500000, 128.000000) rotate(-315.000000) translate(-125.500000, -128.000000) translate(81.000000, 84.000000)">
                <rect id="Rectangle-289-Copy-11" stroke="#FFFFFF" stroke-width="6.4" sketch:type="MSShapeGroup" x="0.0639074567" y="0.186094487" width="88.297073" height="87.8139055" rx="4.8"></rect>
                <g id="Group-Copy-2" transform="translate(4.961718, 4.970852)" fill="#FFFFFF" sketch:type="MSShapeGroup">
                    <rect id="Rectangle-112" x="0.940931932" y="0" width="9.67245068" height="9.6340933"></rect>
                    <rect id="Rectangle-112-Copy" x="10.6133826" y="9.6340933" width="9.67245068" height="9.6340933"></rect>
                    <rect id="Rectangle-112-Copy-8" x="20.2858333" y="0" width="9.67245068" height="9.6340933"></rect>
                    <rect id="Rectangle-112-Copy-20" x="0.940931932" y="19.2681866" width="9.67245068" height="9.6340933"></rect>
                    <rect id="Rectangle-112-Copy-25" x="49.3840832" y="67.4386531" width="9.67245068" height="9.6340933"></rect>
                    <rect id="Rectangle-112-Copy-2" x="20.2858333" y="19.2681866" width="9.67245068" height="9.6340933"></rect>
                    <rect id="Rectangle-112-Copy-9" x="29.958284" y="9.6340933" width="9.67245068" height="9.6340933"></rect>
                    <rect id="Rectangle-112-Copy-21" x="10.6133826" y="28.9022799" width="9.67245068" height="9.6340933"></rect>
                    <rect id="Rectangle-112-Copy-26" x="0.940931932" y="38.5363732" width="9.67245068" height="9.6340933"></rect>
                    <rect id="Rectangle-112-Copy-14" x="39.6307346" y="0" width="9.67245068" height="9.6340933"></rect>
                    <rect id="Rectangle-112-Copy-3" x="29.958284" y="28.9022799" width="9.67245068" height="9.6340933"></rect>
                    <rect id="Rectangle-112-Copy-10" x="39.6307346" y="19.2681866" width="9.67245068" height="9.6340933"></rect>
                    <rect id="Rectangle-112-Copy-22" x="20.2858333" y="38.5363732" width="9.67245068" height="9.6340933"></rect>
                    <rect id="Rectangle-112-Copy-27" x="10.6133826" y="48.1704665" width="9.67245068" height="9.6340933"></rect>
                    <rect id="Rectangle-112-Copy-30" x="0.940931932" y="57.8045598" width="9.67245068" height="9.6340933"></rect>
                    <rect id="Rectangle-112-Copy-15" x="49.3031853" y="9.6340933" width="9.67245068" height="9.6340933"></rect>
                    <rect id="Rectangle-112-Copy-18" x="59.0565339" y="0" width="9.67245068" height="9.6340933"></rect>
                    <rect id="Rectangle-112-Copy-4" x="39.6307346" y="38.5363732" width="9.67245068" height="9.6340933"></rect>
                    <rect id="Rectangle-112-Copy-11" x="49.3031853" y="28.9022799" width="9.67245068" height="9.6340933"></rect>
                    <rect id="Rectangle-112-Copy-23" x="29.958284" y="48.1704665" width="9.67245068" height="9.6340933"></rect>
                    <rect id="Rectangle-112-Copy-28" x="20.2858333" y="57.8045598" width="9.67245068" height="9.6340933"></rect>
                    <rect id="Rectangle-112-Copy-31" x="10.6133826" y="67.4386531" width="9.67245068" height="9.6340933"></rect>
                    <rect id="Rectangle-112-Copy-16" x="58.975636" y="19.2681866" width="9.67245068" height="9.6340933"></rect>
                    <rect id="Rectangle-112-Copy-19" x="68.7289846" y="9.6340933" width="9.67245068" height="9.6340933"></rect>
                    <rect id="Rectangle-112-Copy-5" x="49.3031853" y="48.1704665" width="9.67245068" height="9.6340933"></rect>
                    <rect id="Rectangle-112-Copy-12" x="58.975636" y="38.5363732" width="9.67245068" height="9.6340933"></rect>
                    <rect id="Rectangle-112-Copy-24" x="39.6307346" y="57.8045598" width="9.67245068" height="9.6340933"></rect>
                    <rect id="Rectangle-112-Copy-29" x="29.958284" y="67.4386531" width="9.67245068" height="9.6340933"></rect>
                    <rect id="Rectangle-112-Copy-17" x="68.6480867" y="28.9022799" width="9.67245068" height="9.6340933"></rect>
                    <rect id="Rectangle-112-Copy-6" x="58.975636" y="57.8045598" width="9.67245068" height="9.6340933"></rect>
                    <rect id="Rectangle-112-Copy-13" x="68.6480867" y="48.1704665" width="9.67245068" height="9.6340933"></rect>
                    <rect id="Rectangle-112-Copy-7" x="68.6480867" y="67.4386531" width="9.67245068" height="9.6340933"></rect>
                </g>
            </g>
        </g>
    </g>
</svg>