<?xml version="1.0" encoding="UTF-8" standalone="no"?>
<svg width="250px" height="250px" viewBox="0 0 250 250" version="1.1" xmlns="http://www.w3.org/2000/svg" xmlns:xlink="http://www.w3.org/1999/xlink" xmlns:sketch="http://www.bohemiancoding.com/sketch/ns">
    <!-- Generator: Sketch 3.3 (11970) - http://www.bohemiancoding.com/sketch -->
    <title>Address06</title>
    <desc>Created with Sketch.</desc>
    <defs></defs>
    <g id="Page-1" stroke="none" stroke-width="1" fill="none" fill-rule="evenodd" sketch:type="MSPage">
        <g id="Address06" sketch:type="MSArtboardGroup">
            <g id="Rectangle-289-Copy-11-+-Group-Copy-2" sketch:type="MSLayerGroup" transform="translate(124.500000, 125.000000) rotate(-315.000000) translate(-124.500000, -125.000000) translate(80.000000, 81.000000)">
                <rect id="Rectangle-289-Copy-11" stroke="#FFFFFF" stroke-width="6.4" sketch:type="MSShapeGroup" x="0.0639074567" y="0.186094487" width="88.297073" height="87.8139055" rx="4.8"></rect>
                <g id="Group-Copy-2" transform="translate(3.961718, 2.127271)" fill="#FFFFFF" sketch:type="MSShapeGroup">
                    <rect id="Rectangle-112" x="0" y="0" width="10.2796497" height="10.2388844"></rect>
                    <rect id="Rectangle-112-Copy" x="10.2796497" y="10.2388844" width="10.2796497" height="10.2388844"></rect>
                    <rect id="Rectangle-112-Copy-8" x="20.5592994" y="0" width="10.2796497" height="10.2388844"></rect>
                    <rect id="Rectangle-112-Copy-2" x="20.5592994" y="20.4777688" width="10.2796497" height="10.2388844"></rect>
                    <rect id="Rectangle-112-Copy-9" x="30.8389492" y="10.2388844" width="10.2796497" height="10.2388844"></rect>
                    <rect id="Rectangle-112-Copy-14" x="41.1185989" y="0" width="10.2796497" height="10.2388844"></rect>
                    <rect id="Rectangle-112-Copy-3" x="30.8389492" y="30.7166533" width="10.2796497" height="10.2388844"></rect>
                    <rect id="Rectangle-112-Copy-10" x="41.1185989" y="20.4777688" width="10.2796497" height="10.2388844"></rect>
                    <rect id="Rectangle-112-Copy-15" x="51.3982486" y="10.2388844" width="10.2796497" height="10.2388844"></rect>
                    <rect id="Rectangle-112-Copy-18" x="61.7638747" y="0" width="10.2796497" height="10.2388844"></rect>
                    <rect id="Rectangle-112-Copy-4" x="41.1185989" y="40.9555377" width="10.2796497" height="10.2388844"></rect>
                    <rect id="Rectangle-112-Copy-11" x="51.3982486" y="30.7166533" width="10.2796497" height="10.2388844"></rect>
                    <rect id="Rectangle-112-Copy-16" x="61.6778983" y="20.4777688" width="10.2796497" height="10.2388844"></rect>
                    <rect id="Rectangle-112-Copy-19" x="72.0435244" y="10.2388844" width="10.2796497" height="10.2388844"></rect>
                    <rect id="Rectangle-112-Copy-5" x="51.3982486" y="51.1944221" width="10.2796497" height="10.2388844"></rect>
                    <rect id="Rectangle-112-Copy-12" x="61.6778983" y="40.9555377" width="10.2796497" height="10.2388844"></rect>
                    <rect id="Rectangle-112-Copy-17" x="71.957548" y="30.7166533" width="10.2796497" height="10.2388844"></rect>
                    <rect id="Rectangle-112-Copy-6" x="61.6778983" y="61.4333065" width="10.2796497" height="10.2388844"></rect>
                    <rect id="Rectangle-112-Copy-13" x="71.957548" y="51.1944221" width="10.2796497" height="10.2388844"></rect>
                    <rect id="Rectangle-112-Copy-7" x="71.957548" y="71.6721909" width="10.2796497" height="10.2388844"></rect>
                </g>
            </g>
        </g>
    </g>
</svg>