<?xml version="1.0" encoding="UTF-8" standalone="no"?>
<svg width="250px" height="250px" viewBox="0 0 250 250" version="1.1" xmlns="http://www.w3.org/2000/svg" xmlns:xlink="http://www.w3.org/1999/xlink" xmlns:sketch="http://www.bohemiancoding.com/sketch/ns">
    <!-- Generator: Sketch 3.3 (11970) - http://www.bohemiancoding.com/sketch -->
    <title>Address01</title>
    <desc>Created with Sketch.</desc>
    <defs></defs>
    <g id="Page-1" stroke="none" stroke-width="1" fill="none" fill-rule="evenodd" sketch:type="MSPage">
        <g id="Address01" sketch:type="MSArtboardGroup" stroke="#FFFFFF" stroke-width="4">
            <g id="Group-Copy-28" sketch:type="MSLayerGroup" transform="translate(27.000000, 27.000000)">
                <path d="M97.7669054,196.065997 C151.65744,196.065997 195.34435,152.44516 195.34435,98.6361315 C195.34435,44.8271028 151.65744,1.20626632 97.7669054,1.20626632 C43.8763708,1.20626632 0.189460737,44.8271028 0.189460737,98.6361315 C0.189460737,152.44516 43.8763708,196.065997 97.7669054,196.065997 Z" id="Oval-14-Copy-18" sketch:type="MSShapeGroup"></path>
                <path d="M97.7669054,181.497686 C143.599397,181.497686 180.753973,144.399305 180.753973,98.6361315 C180.753973,52.8729585 143.599397,15.7745767 97.7669054,15.7745767 C51.9344137,15.7745767 14.7798381,52.8729585 14.7798381,98.6361315 C14.7798381,144.399305 51.9344137,181.497686 97.7669054,181.497686 Z" id="Oval-14-Copy-19" sketch:type="MSShapeGroup"></path>
                <path d="M97.7669054,164.729091 C134.32433,164.729091 163.959977,135.138265 163.959977,98.6361315 C163.959977,62.133998 134.32433,32.5431722 97.7669054,32.5431722 C61.2094812,32.5431722 31.5738334,62.133998 31.5738334,98.6361315 C31.5738334,135.138265 61.2094812,164.729091 97.7669054,164.729091 Z" id="Oval-14-Copy-20" sketch:type="MSShapeGroup"></path>
                <path d="M97.7669054,149.95595 C126.15299,149.95595 149.164459,126.979284 149.164459,98.6361315 C149.164459,70.2929787 126.15299,47.3163136 97.7669054,47.3163136 C69.3808205,47.3163136 46.369352,70.2929787 46.369352,98.6361315 C46.369352,126.979284 69.3808205,149.95595 97.7669054,149.95595 Z" id="Oval-14-Copy-21" sketch:type="MSShapeGroup"></path>
                <path d="M97.7669054,133.784719 C117.208338,133.784719 132.968733,118.04816 132.968733,98.6361315 C132.968733,79.2241028 117.208338,63.4875442 97.7669054,63.4875442 C78.3254727,63.4875442 62.5650776,79.2241028 62.5650776,98.6361315 C62.5650776,118.04816 78.3254727,133.784719 97.7669054,133.784719 Z" id="Oval-14-Copy-22" sketch:type="MSShapeGroup"></path>
                <path d="M97.7669054,120.108865 C109.643932,120.108865 119.272164,110.495195 119.272164,98.6361315 C119.272164,86.7770681 109.643932,77.1633977 97.7669054,77.1633977 C85.8898787,77.1633977 76.2616463,86.7770681 76.2616463,98.6361315 C76.2616463,110.495195 85.8898787,120.108865 97.7669054,120.108865 Z" id="Oval-14-Copy-23" sketch:type="MSShapeGroup"></path>
                <path d="M97.7669054,196.065997 C151.65744,196.065997 195.34435,152.44516 195.34435,98.6361315 C195.34435,44.8271028 151.65744,1.20626632 97.7669054,1.20626632 C43.8763708,1.20626632 0.189460737,44.8271028 0.189460737,98.6361315 C0.189460737,152.44516 43.8763708,196.065997 97.7669054,196.065997 Z" id="Oval-14-Copy-18" sketch:type="MSShapeGroup"></path>
                <path d="M97.7669054,181.497686 C143.599397,181.497686 180.753973,144.399305 180.753973,98.6361315 C180.753973,52.8729585 143.599397,15.7745767 97.7669054,15.7745767 C51.9344137,15.7745767 14.7798381,52.8729585 14.7798381,98.6361315 C14.7798381,144.399305 51.9344137,181.497686 97.7669054,181.497686 Z" id="Oval-14-Copy-19" sketch:type="MSShapeGroup"></path>
                <path d="M97.7669054,164.729091 C134.32433,164.729091 163.959977,135.138265 163.959977,98.6361315 C163.959977,62.133998 134.32433,32.5431722 97.7669054,32.5431722 C61.2094812,32.5431722 31.5738334,62.133998 31.5738334,98.6361315 C31.5738334,135.138265 61.2094812,164.729091 97.7669054,164.729091 Z" id="Oval-14-Copy-20" sketch:type="MSShapeGroup"></path>
                <path d="M97.7669054,149.95595 C126.15299,149.95595 149.164459,126.979284 149.164459,98.6361315 C149.164459,70.2929787 126.15299,47.3163136 97.7669054,47.3163136 C69.3808205,47.3163136 46.369352,70.2929787 46.369352,98.6361315 C46.369352,126.979284 69.3808205,149.95595 97.7669054,149.95595 Z" id="Oval-14-Copy-21" sketch:type="MSShapeGroup"></path>
                <path d="M97.7669054,133.784719 C117.208338,133.784719 132.968733,118.04816 132.968733,98.6361315 C132.968733,79.2241028 117.208338,63.4875442 97.7669054,63.4875442 C78.3254727,63.4875442 62.5650776,79.2241028 62.5650776,98.6361315 C62.5650776,118.04816 78.3254727,133.784719 97.7669054,133.784719 Z" id="Oval-14-Copy-22" sketch:type="MSShapeGroup"></path>
                <path d="M97.7669054,120.108865 C109.643932,120.108865 119.272164,110.495195 119.272164,98.6361315 C119.272164,86.7770681 109.643932,77.1633977 97.7669054,77.1633977 C85.8898787,77.1633977 76.2616463,86.7770681 76.2616463,98.6361315 C76.2616463,110.495195 85.8898787,120.108865 97.7669054,120.108865 Z" id="Oval-14-Copy-23" sketch:type="MSShapeGroup"></path>
            </g>
        </g>
    </g>
</svg>