<?xml version="1.0" encoding="UTF-8" standalone="no"?>
<svg width="148px" height="131px" viewBox="0 0 148 131" version="1.1" xmlns="http://www.w3.org/2000/svg" xmlns:xlink="http://www.w3.org/1999/xlink" xmlns:sketch="http://www.bohemiancoding.com/sketch/ns">
    <!-- Generator: Sketch 3.3 (11970) - http://www.bohemiancoding.com/sketch -->
    <title>Shape</title>
    <desc>Created with Sketch.</desc>
    <defs></defs>
    <g id="Page-1" stroke="none" stroke-width="1" fill="none" fill-rule="evenodd" sketch:type="MSPage">
        <path d="M141.815236,62.7114323 C139.048139,62.7114323 137.701984,64.4375834 137.449327,65.8463976 C137.311882,66.6164954 137.538262,67.5685061 138.280063,67.8090354 C139.019842,68.0455221 139.652494,67.6837176 139.990044,66.9762787 C140.501421,65.9151202 141.558537,66.0121404 142.154807,66.7074518 C142.326613,66.9095773 142.607568,67.3320194 142.524696,67.8878643 C142.342783,69.0884893 141.465559,70.7742153 138.924843,70.7742153 C137.380604,70.7742153 135.806047,69.6726317 135.379563,68.0738197 C134.688294,65.5048056 134.81159,62.1293111 134.81159,61.0236851 C134.81159,27.3212928 107.490298,0 73.7899265,0 C59.432958,0 46.2442745,4.97026404 35.8226879,13.2654912 C32.60283,10.3164814 28.3278774,8.5013951 23.6163339,8.5013951 C21.7426313,8.5013951 19.9396725,8.79043445 18.2438403,9.3220243 C16.7076871,9.80510405 14.5954765,11.6242328 17.2069369,13.9911215 C20.3621147,16.8511961 24.7199387,22.8846399 22.7653859,27.5618221 C19.33936,32.7746366 16.6975808,38.5412748 14.9916423,44.7000363 L6.38312071,44.7000363 C2.85603216,44.7000363 0,47.5560685 0,51.0811357 L0,71.376549 C0,74.9016163 2.85805342,77.7596697 6.38312071,77.7596697 L15.108875,77.7596697 C18.2943716,88.9473116 24.5804721,98.8292233 32.9969746,106.396799 L30.7068936,124.054476 C30.3895567,126.538597 32.1440053,128.804423 34.6261054,129.123781 L45.4822617,130.510361 C47.9643618,130.82972 50.232209,129.07325 50.5495459,126.59115 L51.6774057,117.897735 C58.5355212,120.565791 65.9878854,122.04737 73.7879053,122.04737 C81.5879252,122.04737 89.0402893,120.567812 95.8984048,117.897735 L97.0242434,126.59115 C97.3415803,129.075271 99.6094275,130.831741 102.093549,130.510361 L112.949705,129.123781 C115.433826,128.804423 117.186254,126.538597 116.866896,124.054476 L114.576815,106.396799 C122.906403,98.9080523 129.150057,89.1534796 132.367894,78.1032829 C133.66756,78.6955104 135.219884,78.994656 137.024864,78.994656 C143.252348,78.994656 146.860287,74.8490637 147.583896,70.0970951 C147.998253,67.3704232 146.987626,62.7114323 141.815236,62.7114323 L141.815236,62.7114323 Z M34.4866389,54.4384389 C31.7963496,54.4384389 29.6174376,52.2595269 29.6174376,49.5692376 C29.6174376,46.8809696 31.7963496,44.7020575 34.4866389,44.7020575 C37.174907,44.7020575 39.353819,46.8809696 39.353819,49.5692376 C39.353819,52.2575057 37.174907,54.4384389 34.4866389,54.4384389 L34.4866389,54.4384389 Z M98.3036973,17.1462992 C97.7660436,18.2660741 96.6523326,18.9189392 95.4860689,18.9189392 C95.0353292,18.9189392 94.5765045,18.821919 94.1419349,18.6117085 C87.7648779,15.5596147 80.9168688,14.011334 73.7879053,14.011334 C66.7216006,14.011334 59.9281653,15.5333384 53.5935547,18.5349009 C52.0331465,19.2726586 50.1735926,18.607666 49.4358348,17.0513003 C48.6980771,15.4929133 49.3610484,13.6333595 50.9174142,12.8935804 C58.0928665,9.4938309 65.7857599,7.76767983 73.785884,7.76767983 C81.8527095,7.76767983 89.610283,9.52212846 96.8322242,12.9804944 C98.3926324,13.7283584 99.0475188,15.5919548 98.3036973,17.1462992 L98.3036973,17.1462992 Z" id="Shape" fill="#585858" sketch:type="MSShapeGroup"></path>
    </g>
</svg>