<?xml version="1.0" encoding="UTF-8" standalone="no"?>
<svg width="267px" height="723px" viewBox="0 0 267 723" version="1.1" xmlns="http://www.w3.org/2000/svg" xmlns:xlink="http://www.w3.org/1999/xlink" xmlns:sketch="http://www.bohemiancoding.com/sketch/ns">
    <!-- Generator: Sketch 3.3 (11970) - http://www.bohemiancoding.com/sketch -->
    <title>Group</title>
    <desc>Created with Sketch.</desc>
    <defs></defs>
    <g id="Page-1" stroke="none" stroke-width="1" fill="none" fill-rule="evenodd" sketch:type="MSPage">
        <g id="Group" sketch:type="MSLayerGroup" transform="translate(3.000000, 3.000000)">
            <g id="Group-Copy-10" transform="translate(0.000000, 587.000000)" sketch:type="MSShapeGroup">
                <rect id="Rectangle-31-Copy-2" stroke="#D7D7D7" stroke-width="6" stroke-linecap="round" stroke-linejoin="round" x="1" y="0" width="260" height="129.501916"></rect>
                <path d="M31.1488372,62.0114943 L158.873365,62.0114943" id="Line-Copy-109" stroke="#50E3C2" stroke-width="3" stroke-linecap="square"></path>
                <path d="M70.1488902,97.4227654 L90.22896,97.4227654" id="Line-Copy-156" stroke="#50E3C2" stroke-width="3" stroke-linecap="square"></path>
                <path d="M99.1488902,97.4227654 L104.998899,97.4227654 M99.1488902,97.4227654 L104.998899,97.4227654 M114.14889,97.4227654 L119.998899,97.4227654 M112.14889,102.403608 L117.998899,102.403608 M224.14889,102.403608 L229.998899,102.403608" id="Line-Copy-157" stroke="#50E3C2" stroke-width="3" stroke-linecap="square"></path>
                <path d="M31.1488902,67.4904215 L215.102631,67.4904215" id="Line-Copy-110" stroke="#50E3C2" stroke-width="3" stroke-linecap="square"></path>
                <path d="M31,16.6858238 L159,16.6858238" id="Line-Copy-100" stroke="#F6A623" stroke-width="3" stroke-linecap="square"></path>
                <path d="M141.215997,82.4802367 L218.832871,82.4802367" id="Line-Copy-163" stroke="#F6A623" stroke-width="3" stroke-linecap="square"></path>
                <path d="M228.200072,82.4802367 L230.832871,82.4802367" id="Line-Copy-164" stroke="#F6A623" stroke-width="3" stroke-linecap="square"></path>
                <path d="M31.0735294,22.164751 L75.9267129,22.164751" id="Line-Copy-101" stroke="#4990E2" stroke-width="3" stroke-linecap="square"></path>
                <path d="M84,22.164751 L87,22.164751" id="Line-Copy-137" stroke="#4990E2" stroke-width="3" stroke-linecap="square"></path>
                <path d="M96,22.164751 L99,22.164751" id="Line-Copy-152" stroke="#4990E2" stroke-width="3" stroke-linecap="square"></path>
                <path d="M107,22.164751 L110,22.164751" id="Line-Copy-153" stroke="#4990E2" stroke-width="3" stroke-linecap="square"></path>
                <path d="M119,21.9157088 L133.04861,21.9157088" id="Line-Copy-154" stroke="#4990E2" stroke-width="3" stroke-linecap="square"></path>
                <path d="M166,21.9157088 L232.500931,21.9157088" id="Line-Copy-162" stroke="#4990E2" stroke-width="3" stroke-linecap="square"></path>
                <path d="M120.072716,72.0204666 L230.986519,72.0204666" id="Line-Copy-135" stroke="#4990E2" stroke-width="3" stroke-linecap="square"></path>
                <path d="M162.072716,52.0970949 L232.47728,52.0970949" id="Line-Copy-133" stroke="#4990E2" stroke-width="3" stroke-linecap="square"></path>
                <path d="M168.072716,16.7331102 L232.184509,16.7331102" id="Line-Copy-114" stroke="#4990E2" stroke-width="3" stroke-linecap="square"></path>
                <path d="M68,42.3499701 L232,42.8224437" id="Line-Copy-115" stroke="#4990E2" stroke-width="3" stroke-linecap="square"></path>
                <path d="M75.072716,86.9629953 L230.69075,86.9629953" id="Line-Copy-123" stroke="#4990E2" stroke-width="3" stroke-linecap="square"></path>
                <path d="M31.0732558,27.1455939 L93.9376718,27.1455939" id="Line-Copy-102" stroke="#50E3C2" stroke-width="3" stroke-linecap="square"></path>
                <path d="M103.072784,27.1928804 L231.999573,27.1928804" id="Line-Copy-132" stroke="#50E3C2" stroke-width="3" stroke-linecap="square"></path>
                <path d="M113.073256,47.0689655 L175.937672,47.0689655" id="Line-Copy-124" stroke="#50E3C2" stroke-width="3" stroke-linecap="square"></path>
                <path d="M31,32.1264368 L64,32.1264368" id="Line-Copy-103" stroke="#FF0CA6" stroke-width="3" stroke-linecap="square"></path>
                <path d="M74,32.1737233 L232.682861,32.1737233" id="Line-Copy-134" stroke="#FF0CA6" stroke-width="3" stroke-linecap="square"></path>
                <path d="M31,72.4712644 L64,72.4712644" id="Line-Copy-111" stroke="#FF0CA6" stroke-width="3" stroke-linecap="square"></path>
                <path d="M171,62.0114943 L204,62.0114943" id="Line-Copy-165" stroke="#FF0CA6" stroke-width="3" stroke-linecap="square"></path>
                <path d="M31,77.4521073 L144,77.4521073" id="Line-Copy-113" stroke="#FF0CA6" stroke-width="3" stroke-linecap="square"></path>
                <path d="M31.0726141,37.1072797 L100.927537,37.1072797" id="Line-Copy-104" stroke="#B8E986" stroke-width="3" stroke-linecap="square"></path>
                <path d="M154.072805,77.4993938 L231.181526,77.4993938" id="Line-Copy-166" stroke="#B8E986" stroke-width="3" stroke-linecap="square"></path>
                <path d="M225.166649,67.5377079 L231.181526,67.5377079" id="Line-Copy-167" stroke="#B8E986" stroke-width="3" stroke-linecap="square"></path>
                <path d="M212.166649,62.556865 L231.153606,62.556865" id="Line-Copy-168" stroke="#B8E986" stroke-width="3" stroke-linecap="square"></path>
                <path d="M31,42.0881226 L59,42.0881226" id="Line-Copy-105" stroke="#BD0FE1" stroke-width="3" stroke-linecap="square"></path>
                <path d="M184,47.0689655 L212,47.0689655" id="Line-Copy-125" stroke="#BD0FE1" stroke-width="3" stroke-linecap="square"></path>
                <path d="M221.220286,47.116252 L232.220286,47.116252" id="Line-Copy-126" stroke="#BD0FE1" stroke-width="3" stroke-linecap="square"></path>
                <path d="M74,72.5185509 L87.2202864,72.5185509" id="Line-Copy-127" stroke="#BD0FE1" stroke-width="3" stroke-linecap="square"></path>
                <path d="M97,72.5185509 L110.220286,72.5185509" id="Line-Copy-128" stroke="#BD0FE1" stroke-width="3" stroke-linecap="square"></path>
                <path d="M111,92.4419225 L151.471371,92.4419225" id="Line-Copy-160" stroke="#BD0FE1" stroke-width="3" stroke-linecap="square"></path>
                <path d="M160,92.4419225 L230.137825,92.4419225" id="Line-Copy-161" stroke="#BD0FE1" stroke-width="3" stroke-linecap="square"></path>
                <path d="M143,22.2120374 L156.220286,22.2120375" id="Line-Copy-155" stroke="#BD0FE1" stroke-width="3" stroke-linecap="square"></path>
                <path d="M160,107.384451 L173.220286,107.384451" id="Line-Copy-129" stroke="#BD0FE1" stroke-width="3" stroke-linecap="square"></path>
                <path d="M31.0731463,47.0689655 L103.927001,47.0689655" id="Line-Copy-106" stroke="#F6A623" stroke-width="3" stroke-linecap="square"></path>
                <path d="M31,52.0498084 L151,52.0498084" id="Line-Copy-107" stroke="#4A4A4A" stroke-width="3" stroke-linecap="square"></path>
                <path d="M110,37.1545662 L232.500473,37.1545662" id="Line-Copy-136" stroke="#4A4A4A" stroke-width="3" stroke-linecap="square"></path>
                <path d="M31,57.0779378 L232.376205,57.0779378" id="Line-Copy-108" stroke="#E01E8A" stroke-width="3" stroke-linecap="square"></path>
                <path d="M31.0732558,82.4329502 L93.9376718,82.4329502" id="Line-Copy-122" stroke="#50E3C2" stroke-width="3" stroke-linecap="square"></path>
                <path d="M31,87.4137931 L64,87.4137931" id="Line-Copy-116" stroke="#FF0CA6" stroke-width="3" stroke-linecap="square"></path>
                <path d="M31.0726141,92.394636 L100.927537,92.394636" id="Line-Copy-117" stroke="#B8E986" stroke-width="3" stroke-linecap="square"></path>
                <path d="M184.072805,107.384451 L230.225937,107.384451" id="Line-Copy-130" stroke="#B8E986" stroke-width="3" stroke-linecap="square"></path>
                <path d="M31,97.3754789 L59,97.3754789" id="Line-Copy-118" stroke="#BD0FE1" stroke-width="3" stroke-linecap="square"></path>
                <path d="M103,82.4329502 L131,82.4329502" id="Line-Copy-131" stroke="#BD0FE1" stroke-width="3" stroke-linecap="square"></path>
                <path d="M128,102.403608 L214.563087,102.403608" id="Line-Copy-158" stroke="#BD0FE1" stroke-width="3" stroke-linecap="square"></path>
                <path d="M129,97.4227654 L230.183388,97.4227654" id="Line-Copy-159" stroke="#4A4A4A" stroke-width="3" stroke-linecap="square"></path>
                <path d="M31.0731463,102.356322 L103.927001,102.356322" id="Line-Copy-119" stroke="#F6A623" stroke-width="3" stroke-linecap="square"></path>
                <path d="M31,107.337165 L151,107.337165" id="Line-Copy-120" stroke="#4A4A4A" stroke-width="3" stroke-linecap="square"></path>
                <path d="M31,112.318008 L230.751244,112.318008" id="Line-Copy-121" stroke="#E01E8A" stroke-width="3" stroke-linecap="square"></path>
            </g>
            <!--<g id="Group-Copy-7" stroke-width="6" sketch:type="MSShapeGroup">
                <rect id="Rectangle-31-Copy-2" stroke="#D7D7D7" stroke-linecap="round" stroke-linejoin="round" x="0.593835649" y="0.168524548" width="260" height="260"></rect>
                <path d="M31.1688801,125.496871 L158.938881,125.496871" id="Line-Copy-109" stroke="#50E3C2" stroke-linecap="square"></path>
                <path d="M70.1233088,196.091808 L90.2033787,196.091808" id="Line-Copy-156" stroke="#50E3C2" stroke-linecap="square"></path>
                <path d="M99.3533692,196.091808 L105.203378,196.091808 M99.3533692,196.091808 L105.203378,196.091808 M114.353369,196.091808 L120.203378,196.091808 M112.353369,206.091808 L118.203378,206.091808 M224.353369,206.091808 L230.203378,206.091808" id="Line-Copy-157" stroke="#50E3C2" stroke-linecap="square"></path>
                <path d="M31.1688801,135.598137 L215.12262,135.598137" id="Line-Copy-110" stroke="#50E3C2" stroke-linecap="square"></path>
                <path d="M31.2326901,34.5854786 L159.065561,34.5854786" id="Line-Copy-100" stroke="#F6A623" stroke-linecap="square"></path>
                <path d="M141.190416,165.78801 L218.80729,165.78801" id="Line-Copy-163" stroke="#F6A623" stroke-linecap="square"></path>
                <path d="M228.169908,165.78801 L230.802706,165.78801" id="Line-Copy-164" stroke="#F6A623" stroke-linecap="square"></path>
                <path d="M31.0927058,44.6867444 L75.4496785,44.6867444" id="Line-Copy-101" stroke="#4990E2" stroke-linecap="square"></path>
                <path d="M84.1643867,44.6867444 L87.2033784,44.6867444" id="Line-Copy-137" stroke="#4990E2" stroke-linecap="square"></path>
                <path d="M96.1643867,44.6867444 L99.2033784,44.6867444" id="Line-Copy-152" stroke="#4990E2" stroke-linecap="square"></path>
                <path d="M107.164387,44.6867444 L110.203378,44.6867444" id="Line-Copy-153" stroke="#4990E2" stroke-linecap="square"></path>
                <path d="M119.164387,44.6867444 L133.212996,44.6867444" id="Line-Copy-154" stroke="#4990E2" stroke-linecap="square"></path>
                <path d="M165.704479,44.6867444 L232.20541,44.6867444" id="Line-Copy-162" stroke="#4990E2" stroke-linecap="square"></path>
                <path d="M120.302561,145.509529 L231.216363,145.509529" id="Line-Copy-135" stroke="#4990E2" stroke-linecap="square"></path>
                <path d="M161.804726,105.294339 L232.209289,105.294339" id="Line-Copy-133" stroke="#4990E2" stroke-linecap="square"></path>
                <path d="M168.092706,34.5854786 L232.204499,34.5854786" id="Line-Copy-114" stroke="#4990E2" stroke-linecap="square"></path>
                <path d="M68.2771949,85.2816811 L232.20338,86.2064866" id="Line-Copy-115" stroke="#4990E2" stroke-linecap="square"></path>
                <path d="M74.5948708,175.484213 L230.212905,175.484213" id="Line-Copy-123" stroke="#4990E2" stroke-linecap="square"></path>
                <path d="M31.0927738,54.7880102 L93.5522297,54.7880102" id="Line-Copy-102" stroke="#50E3C2" stroke-linecap="square"></path>
                <path d="M103.277263,54.7880102 L232.204052,54.7880102" id="Line-Copy-132" stroke="#50E3C2" stroke-linecap="square"></path>
                <path d="M113.145886,95.1930735 L175.605342,95.1930735" id="Line-Copy-124" stroke="#50E3C2" stroke-linecap="square"></path>
                <path d="M31.4094694,64.889276 L64.3701851,64.889276" id="Line-Copy-103" stroke="#FF0CA6" stroke-linecap="square"></path>
                <path d="M73.5221548,65.4842127 L232.205016,65.4842128" id="Line-Copy-134" stroke="#FF0CA6" stroke-linecap="square"></path>
                <path d="M31.4094694,145.699403 L64.3701851,145.699403" id="Line-Copy-111" stroke="#FF0CA6" stroke-linecap="square"></path>
                <path d="M170.70339,125.496871 L203.664105,125.496871" id="Line-Copy-165" stroke="#FF0CA6" stroke-linecap="square"></path>
                <path d="M31.4094694,155.990542 L144.370185,155.990542" id="Line-Copy-113" stroke="#FF0CA6" stroke-linecap="square"></path>
                <path d="M31.0927953,74.9905419 L101.131825,74.9905419" id="Line-Copy-104" stroke="#B8E986" stroke-linecap="square"></path>
                <path d="M154.09496,155.990542 L231.203681,155.990542" id="Line-Copy-166" stroke="#B8E986" stroke-linecap="square"></path>
                <path d="M225.188803,135.78801 L231.203681,135.78801" id="Line-Copy-167" stroke="#B8E986" stroke-linecap="square"></path>
                <path d="M212.223536,125.686744 L231.210494,125.686744" id="Line-Copy-168" stroke="#B8E986" stroke-linecap="square"></path>
                <path d="M31.1239669,85.0918077 L59.1977625,85.0918077" id="Line-Copy-105" stroke="#BD0FE1" stroke-linecap="square"></path>
                <path d="M183.983092,95.1930735 L212.056888,95.1930735" id="Line-Copy-125" stroke="#BD0FE1" stroke-linecap="square"></path>
                <path d="M221.203379,95.1930735 L232.203378,95.1930735" id="Line-Copy-126" stroke="#BD0FE1" stroke-linecap="square"></path>
                <path d="M73.8898273,145.699403 L87.1101136,145.699403" id="Line-Copy-127" stroke="#BD0FE1" stroke-linecap="square"></path>
                <path d="M96.704479,145.699403 L109.924765,145.699403" id="Line-Copy-128" stroke="#BD0FE1" stroke-linecap="square"></path>
                <path d="M110.73201,185.990542 L151.20338,185.990542" id="Line-Copy-160" stroke="#BD0FE1" stroke-linecap="square"></path>
                <path d="M160.065561,186.180415 L230.203386,186.180415" id="Line-Copy-161" stroke="#BD0FE1" stroke-linecap="square"></path>
                <path d="M142.740288,44.7816811 L155.960574,44.7816811" id="Line-Copy-155" stroke="#BD0FE1" stroke-linecap="square"></path>
                <path d="M160.065561,216.484213 L173.285847,216.484213" id="Line-Copy-129" stroke="#BD0FE1" stroke-linecap="square"></path>
                <path d="M31.0928155,95.1930735 L103.627249,95.1930735" id="Line-Copy-106" stroke="#F6A623" stroke-linecap="square"></path>
                <path d="M31.1239669,105.294339 L150.91773,105.294339" id="Line-Copy-107" stroke="#4A4A4A" stroke-linecap="square"></path>
                <path d="M109.73201,75.1804153 L232.232483,75.1804153" id="Line-Copy-136" stroke="#4A4A4A" stroke-linecap="square"></path>
                <path d="M30.8288099,115.395605 L232.205015,115.395605" id="Line-Copy-108" stroke="#E01E8A" stroke-linecap="square"></path>
                <path d="M31.0927738,165.78801 L93.5522297,165.78801" id="Line-Copy-122" stroke="#50E3C2" stroke-linecap="square"></path>
                <path d="M31.4094694,175.889276 L64.3701851,175.889276" id="Line-Copy-116" stroke="#FF0CA6" stroke-linecap="square"></path>
                <path d="M31.0927953,185.990542 L101.131825,185.990542" id="Line-Copy-117" stroke="#B8E986" stroke-linecap="square"></path>
                <path d="M184.055898,216.484213 L230.209029,216.484213" id="Line-Copy-130" stroke="#B8E986" stroke-linecap="square"></path>
                <path d="M31.1239669,196.091808 L59.1977625,196.091808" id="Line-Copy-118" stroke="#BD0FE1" stroke-linecap="square"></path>
                <path d="M102.825527,165.78801 L130.899323,165.78801" id="Line-Copy-131" stroke="#BD0FE1" stroke-linecap="square"></path>
                <path d="M127.70339,205.901934 L214.266477,205.901934" id="Line-Copy-158" stroke="#BD0FE1" stroke-linecap="square"></path>
                <path d="M129.01999,196.091808 L230.203378,196.091808" id="Line-Copy-159" stroke="#4A4A4A" stroke-linecap="square"></path>
                <path d="M31.0928155,205.901934 L103.627249,205.901934" id="Line-Copy-119" stroke="#F6A623" stroke-linecap="square"></path>
                <path d="M31.1239669,216.294339 L150.91773,216.294339" id="Line-Copy-120" stroke="#4A4A4A" stroke-linecap="square"></path>
                <path d="M30.8288099,226.395605 L230.720904,226.395605" id="Line-Copy-121" stroke="#E01E8A" stroke-linecap="square"></path>
            </g>-->
            <g id="Group-Copy-8" transform="translate(0.000000, 287.000000)" sketch:type="MSShapeGroup">
                <rect id="Rectangle-31-Copy-2" stroke="#D7D7D7" stroke-width="6" stroke-linecap="round" stroke-linejoin="round" x="1" y="0" width="260" height="129.501916"></rect>
                <path d="M31.1488372,62.0114943 L158.873365,62.0114943" id="Line-Copy-109" stroke="#50E3C2" stroke-width="3" stroke-linecap="square"></path>
                <path d="M70.1488902,97.4227654 L90.22896,97.4227654" id="Line-Copy-156" stroke="#50E3C2" stroke-width="3" stroke-linecap="square"></path>
                <path d="M99.1488902,97.4227654 L104.998899,97.4227654 M99.1488902,97.4227654 L104.998899,97.4227654 M114.14889,97.4227654 L119.998899,97.4227654 M112.14889,102.403608 L117.998899,102.403608 M224.14889,102.403608 L229.998899,102.403608" id="Line-Copy-157" stroke="#50E3C2" stroke-width="3" stroke-linecap="square"></path>
                <path d="M31.1488902,67.4904215 L215.102631,67.4904215" id="Line-Copy-110" stroke="#50E3C2" stroke-width="3" stroke-linecap="square"></path>
                <path d="M31,16.6858238 L159,16.6858238" id="Line-Copy-100" stroke="#F6A623" stroke-width="3" stroke-linecap="square"></path>
                <path d="M141.215997,82.4802367 L218.832871,82.4802367" id="Line-Copy-163" stroke="#F6A623" stroke-width="3" stroke-linecap="square"></path>
                <path d="M228.200072,82.4802367 L230.832871,82.4802367" id="Line-Copy-164" stroke="#F6A623" stroke-width="3" stroke-linecap="square"></path>
                <path d="M31.0735294,22.164751 L75.9267129,22.164751" id="Line-Copy-101" stroke="#4990E2" stroke-width="3" stroke-linecap="square"></path>
                <path d="M84,22.164751 L87,22.164751" id="Line-Copy-137" stroke="#4990E2" stroke-width="3" stroke-linecap="square"></path>
                <path d="M96,22.164751 L99,22.164751" id="Line-Copy-152" stroke="#4990E2" stroke-width="3" stroke-linecap="square"></path>
                <path d="M107,22.164751 L110,22.164751" id="Line-Copy-153" stroke="#4990E2" stroke-width="3" stroke-linecap="square"></path>
                <path d="M119,21.9157088 L133.04861,21.9157088" id="Line-Copy-154" stroke="#4990E2" stroke-width="3" stroke-linecap="square"></path>
                <path d="M166,21.9157088 L232.500931,21.9157088" id="Line-Copy-162" stroke="#4990E2" stroke-width="3" stroke-linecap="square"></path>
                <path d="M120.072716,72.0204666 L230.986519,72.0204666" id="Line-Copy-135" stroke="#4990E2" stroke-width="3" stroke-linecap="square"></path>
                <path d="M162.072716,52.0970949 L232.47728,52.0970949" id="Line-Copy-133" stroke="#4990E2" stroke-width="3" stroke-linecap="square"></path>
                <path d="M168.072716,16.7331102 L232.184509,16.7331102" id="Line-Copy-114" stroke="#4990E2" stroke-width="3" stroke-linecap="square"></path>
                <path d="M68,42.3499701 L232,42.8224437" id="Line-Copy-115" stroke="#4990E2" stroke-width="3" stroke-linecap="square"></path>
                <path d="M75.072716,86.9629953 L230.69075,86.9629953" id="Line-Copy-123" stroke="#4990E2" stroke-width="3" stroke-linecap="square"></path>
                <path d="M31.0732558,27.1455939 L93.9376718,27.1455939" id="Line-Copy-102" stroke="#50E3C2" stroke-width="3" stroke-linecap="square"></path>
                <path d="M103.072784,27.1928804 L231.999573,27.1928804" id="Line-Copy-132" stroke="#50E3C2" stroke-width="3" stroke-linecap="square"></path>
                <path d="M113.073256,47.0689655 L175.937672,47.0689655" id="Line-Copy-124" stroke="#50E3C2" stroke-width="3" stroke-linecap="square"></path>
                <path d="M31,32.1264368 L64,32.1264368" id="Line-Copy-103" stroke="#FF0CA6" stroke-width="3" stroke-linecap="square"></path>
                <path d="M74,32.1737233 L232.682861,32.1737233" id="Line-Copy-134" stroke="#FF0CA6" stroke-width="3" stroke-linecap="square"></path>
                <path d="M31,72.4712644 L64,72.4712644" id="Line-Copy-111" stroke="#FF0CA6" stroke-width="3" stroke-linecap="square"></path>
                <path d="M171,62.0114943 L204,62.0114943" id="Line-Copy-165" stroke="#FF0CA6" stroke-width="3" stroke-linecap="square"></path>
                <path d="M31,77.4521073 L144,77.4521073" id="Line-Copy-113" stroke="#FF0CA6" stroke-width="3" stroke-linecap="square"></path>
                <path d="M31.0726141,37.1072797 L100.927537,37.1072797" id="Line-Copy-104" stroke="#B8E986" stroke-width="3" stroke-linecap="square"></path>
                <path d="M154.072805,77.4993938 L231.181526,77.4993938" id="Line-Copy-166" stroke="#B8E986" stroke-width="3" stroke-linecap="square"></path>
                <path d="M225.166649,67.5377079 L231.181526,67.5377079" id="Line-Copy-167" stroke="#B8E986" stroke-width="3" stroke-linecap="square"></path>
                <path d="M212.166649,62.556865 L231.153606,62.556865" id="Line-Copy-168" stroke="#B8E986" stroke-width="3" stroke-linecap="square"></path>
                <path d="M31,42.0881226 L59,42.0881226" id="Line-Copy-105" stroke="#BD0FE1" stroke-width="3" stroke-linecap="square"></path>
                <path d="M184,47.0689655 L212,47.0689655" id="Line-Copy-125" stroke="#BD0FE1" stroke-width="3" stroke-linecap="square"></path>
                <path d="M221.220286,47.116252 L232.220286,47.116252" id="Line-Copy-126" stroke="#BD0FE1" stroke-width="3" stroke-linecap="square"></path>
                <path d="M74,72.5185509 L87.2202864,72.5185509" id="Line-Copy-127" stroke="#BD0FE1" stroke-width="3" stroke-linecap="square"></path>
                <path d="M97,72.5185509 L110.220286,72.5185509" id="Line-Copy-128" stroke="#BD0FE1" stroke-width="3" stroke-linecap="square"></path>
                <path d="M111,92.4419225 L151.471371,92.4419225" id="Line-Copy-160" stroke="#BD0FE1" stroke-width="3" stroke-linecap="square"></path>
                <path d="M160,92.4419225 L230.137825,92.4419225" id="Line-Copy-161" stroke="#BD0FE1" stroke-width="3" stroke-linecap="square"></path>
                <path d="M143,22.2120374 L156.220286,22.2120375" id="Line-Copy-155" stroke="#BD0FE1" stroke-width="3" stroke-linecap="square"></path>
                <path d="M160,107.384451 L173.220286,107.384451" id="Line-Copy-129" stroke="#BD0FE1" stroke-width="3" stroke-linecap="square"></path>
                <path d="M31.0731463,47.0689655 L103.927001,47.0689655" id="Line-Copy-106" stroke="#F6A623" stroke-width="3" stroke-linecap="square"></path>
                <path d="M31,52.0498084 L151,52.0498084" id="Line-Copy-107" stroke="#4A4A4A" stroke-width="3" stroke-linecap="square"></path>
                <path d="M110,37.1545662 L232.500473,37.1545662" id="Line-Copy-136" stroke="#4A4A4A" stroke-width="3" stroke-linecap="square"></path>
                <path d="M31,57.0779378 L232.376205,57.0779378" id="Line-Copy-108" stroke="#E01E8A" stroke-width="3" stroke-linecap="square"></path>
                <path d="M31.0732558,82.4329502 L93.9376718,82.4329502" id="Line-Copy-122" stroke="#50E3C2" stroke-width="3" stroke-linecap="square"></path>
                <path d="M31,87.4137931 L64,87.4137931" id="Line-Copy-116" stroke="#FF0CA6" stroke-width="3" stroke-linecap="square"></path>
                <path d="M31.0726141,92.394636 L100.927537,92.394636" id="Line-Copy-117" stroke="#B8E986" stroke-width="3" stroke-linecap="square"></path>
                <path d="M184.072805,107.384451 L230.225937,107.384451" id="Line-Copy-130" stroke="#B8E986" stroke-width="3" stroke-linecap="square"></path>
                <path d="M31,97.3754789 L59,97.3754789" id="Line-Copy-118" stroke="#BD0FE1" stroke-width="3" stroke-linecap="square"></path>
                <path d="M103,82.4329502 L131,82.4329502" id="Line-Copy-131" stroke="#BD0FE1" stroke-width="3" stroke-linecap="square"></path>
                <path d="M128,102.403608 L214.563087,102.403608" id="Line-Copy-158" stroke="#BD0FE1" stroke-width="3" stroke-linecap="square"></path>
                <path d="M129,97.4227654 L230.183388,97.4227654" id="Line-Copy-159" stroke="#4A4A4A" stroke-width="3" stroke-linecap="square"></path>
                <path d="M31.0731463,102.356322 L103.927001,102.356322" id="Line-Copy-119" stroke="#F6A623" stroke-width="3" stroke-linecap="square"></path>
                <path d="M31,107.337165 L151,107.337165" id="Line-Copy-120" stroke="#4A4A4A" stroke-width="3" stroke-linecap="square"></path>
                <path d="M31,112.318008 L230.751244,112.318008" id="Line-Copy-121" stroke="#E01E8A" stroke-width="3" stroke-linecap="square"></path>
            </g>
            <g id="Group-Copy-9" transform="translate(0.000000, 437.000000)" sketch:type="MSShapeGroup">
                <rect id="Rectangle-31-Copy-2" stroke="#D7D7D7" stroke-width="6" stroke-linecap="round" stroke-linejoin="round" x="1" y="0" width="260" height="129.501916"></rect>
                <path d="M31.1488372,62.0114943 L158.873365,62.0114943" id="Line-Copy-109" stroke="#50E3C2" stroke-width="3" stroke-linecap="square"></path>
                <path d="M70.1488902,97.4227654 L90.22896,97.4227654" id="Line-Copy-156" stroke="#50E3C2" stroke-width="3" stroke-linecap="square"></path>
                <path d="M99.1488902,97.4227654 L104.998899,97.4227654 M99.1488902,97.4227654 L104.998899,97.4227654 M114.14889,97.4227654 L119.998899,97.4227654 M112.14889,102.403608 L117.998899,102.403608 M224.14889,102.403608 L229.998899,102.403608" id="Line-Copy-157" stroke="#50E3C2" stroke-width="3" stroke-linecap="square"></path>
                <path d="M31.1488902,67.4904215 L215.102631,67.4904215" id="Line-Copy-110" stroke="#50E3C2" stroke-width="3" stroke-linecap="square"></path>
                <path d="M31,16.6858238 L159,16.6858238" id="Line-Copy-100" stroke="#F6A623" stroke-width="3" stroke-linecap="square"></path>
                <path d="M141.215997,82.4802367 L218.832871,82.4802367" id="Line-Copy-163" stroke="#F6A623" stroke-width="3" stroke-linecap="square"></path>
                <path d="M228.200072,82.4802367 L230.832871,82.4802367" id="Line-Copy-164" stroke="#F6A623" stroke-width="3" stroke-linecap="square"></path>
                <path d="M31.0735294,22.164751 L75.9267129,22.164751" id="Line-Copy-101" stroke="#4990E2" stroke-width="3" stroke-linecap="square"></path>
                <path d="M84,22.164751 L87,22.164751" id="Line-Copy-137" stroke="#4990E2" stroke-width="3" stroke-linecap="square"></path>
                <path d="M96,22.164751 L99,22.164751" id="Line-Copy-152" stroke="#4990E2" stroke-width="3" stroke-linecap="square"></path>
                <path d="M107,22.164751 L110,22.164751" id="Line-Copy-153" stroke="#4990E2" stroke-width="3" stroke-linecap="square"></path>
                <path d="M119,21.9157088 L133.04861,21.9157088" id="Line-Copy-154" stroke="#4990E2" stroke-width="3" stroke-linecap="square"></path>
                <path d="M166,21.9157088 L232.500931,21.9157088" id="Line-Copy-162" stroke="#4990E2" stroke-width="3" stroke-linecap="square"></path>
                <path d="M120.072716,72.0204666 L230.986519,72.0204666" id="Line-Copy-135" stroke="#4990E2" stroke-width="3" stroke-linecap="square"></path>
                <path d="M162.072716,52.0970949 L232.47728,52.0970949" id="Line-Copy-133" stroke="#4990E2" stroke-width="3" stroke-linecap="square"></path>
                <path d="M168.072716,16.7331102 L232.184509,16.7331102" id="Line-Copy-114" stroke="#4990E2" stroke-width="3" stroke-linecap="square"></path>
                <path d="M68,42.3499701 L232,42.8224437" id="Line-Copy-115" stroke="#4990E2" stroke-width="3" stroke-linecap="square"></path>
                <path d="M75.072716,86.9629953 L230.69075,86.9629953" id="Line-Copy-123" stroke="#4990E2" stroke-width="3" stroke-linecap="square"></path>
                <path d="M31.0732558,27.1455939 L93.9376718,27.1455939" id="Line-Copy-102" stroke="#50E3C2" stroke-width="3" stroke-linecap="square"></path>
                <path d="M103.072784,27.1928804 L231.999573,27.1928804" id="Line-Copy-132" stroke="#50E3C2" stroke-width="3" stroke-linecap="square"></path>
                <path d="M113.073256,47.0689655 L175.937672,47.0689655" id="Line-Copy-124" stroke="#50E3C2" stroke-width="3" stroke-linecap="square"></path>
                <path d="M31,32.1264368 L64,32.1264368" id="Line-Copy-103" stroke="#FF0CA6" stroke-width="3" stroke-linecap="square"></path>
                <path d="M74,32.1737233 L232.682861,32.1737233" id="Line-Copy-134" stroke="#FF0CA6" stroke-width="3" stroke-linecap="square"></path>
                <path d="M31,72.4712644 L64,72.4712644" id="Line-Copy-111" stroke="#FF0CA6" stroke-width="3" stroke-linecap="square"></path>
                <path d="M171,62.0114943 L204,62.0114943" id="Line-Copy-165" stroke="#FF0CA6" stroke-width="3" stroke-linecap="square"></path>
                <path d="M31,77.4521073 L144,77.4521073" id="Line-Copy-113" stroke="#FF0CA6" stroke-width="3" stroke-linecap="square"></path>
                <path d="M31.0726141,37.1072797 L100.927537,37.1072797" id="Line-Copy-104" stroke="#B8E986" stroke-width="3" stroke-linecap="square"></path>
                <path d="M154.072805,77.4993938 L231.181526,77.4993938" id="Line-Copy-166" stroke="#B8E986" stroke-width="3" stroke-linecap="square"></path>
                <path d="M225.166649,67.5377079 L231.181526,67.5377079" id="Line-Copy-167" stroke="#B8E986" stroke-width="3" stroke-linecap="square"></path>
                <path d="M212.166649,62.556865 L231.153606,62.556865" id="Line-Copy-168" stroke="#B8E986" stroke-width="3" stroke-linecap="square"></path>
                <path d="M31,42.0881226 L59,42.0881226" id="Line-Copy-105" stroke="#BD0FE1" stroke-width="3" stroke-linecap="square"></path>
                <path d="M184,47.0689655 L212,47.0689655" id="Line-Copy-125" stroke="#BD0FE1" stroke-width="3" stroke-linecap="square"></path>
                <path d="M221.220286,47.116252 L232.220286,47.116252" id="Line-Copy-126" stroke="#BD0FE1" stroke-width="3" stroke-linecap="square"></path>
                <path d="M74,72.5185509 L87.2202864,72.5185509" id="Line-Copy-127" stroke="#BD0FE1" stroke-width="3" stroke-linecap="square"></path>
                <path d="M97,72.5185509 L110.220286,72.5185509" id="Line-Copy-128" stroke="#BD0FE1" stroke-width="3" stroke-linecap="square"></path>
                <path d="M111,92.4419225 L151.471371,92.4419225" id="Line-Copy-160" stroke="#BD0FE1" stroke-width="3" stroke-linecap="square"></path>
                <path d="M160,92.4419225 L230.137825,92.4419225" id="Line-Copy-161" stroke="#BD0FE1" stroke-width="3" stroke-linecap="square"></path>
                <path d="M143,22.2120374 L156.220286,22.2120375" id="Line-Copy-155" stroke="#BD0FE1" stroke-width="3" stroke-linecap="square"></path>
                <path d="M160,107.384451 L173.220286,107.384451" id="Line-Copy-129" stroke="#BD0FE1" stroke-width="3" stroke-linecap="square"></path>
                <path d="M31.0731463,47.0689655 L103.927001,47.0689655" id="Line-Copy-106" stroke="#F6A623" stroke-width="3" stroke-linecap="square"></path>
                <path d="M31,52.0498084 L151,52.0498084" id="Line-Copy-107" stroke="#4A4A4A" stroke-width="3" stroke-linecap="square"></path>
                <path d="M110,37.1545662 L232.500473,37.1545662" id="Line-Copy-136" stroke="#4A4A4A" stroke-width="3" stroke-linecap="square"></path>
                <path d="M31,57.0779378 L232.376205,57.0779378" id="Line-Copy-108" stroke="#E01E8A" stroke-width="3" stroke-linecap="square"></path>
                <path d="M31.0732558,82.4329502 L93.9376718,82.4329502" id="Line-Copy-122" stroke="#50E3C2" stroke-width="3" stroke-linecap="square"></path>
                <path d="M31,87.4137931 L64,87.4137931" id="Line-Copy-116" stroke="#FF0CA6" stroke-width="3" stroke-linecap="square"></path>
                <path d="M31.0726141,92.394636 L100.927537,92.394636" id="Line-Copy-117" stroke="#B8E986" stroke-width="3" stroke-linecap="square"></path>
                <path d="M184.072805,107.384451 L230.225937,107.384451" id="Line-Copy-130" stroke="#B8E986" stroke-width="3" stroke-linecap="square"></path>
                <path d="M31,97.3754789 L59,97.3754789" id="Line-Copy-118" stroke="#BD0FE1" stroke-width="3" stroke-linecap="square"></path>
                <path d="M103,82.4329502 L131,82.4329502" id="Line-Copy-131" stroke="#BD0FE1" stroke-width="3" stroke-linecap="square"></path>
                <path d="M128,102.403608 L214.563087,102.403608" id="Line-Copy-158" stroke="#BD0FE1" stroke-width="3" stroke-linecap="square"></path>
                <path d="M129,97.4227654 L230.183388,97.4227654" id="Line-Copy-159" stroke="#4A4A4A" stroke-width="3" stroke-linecap="square"></path>
                <path d="M31.0731463,102.356322 L103.927001,102.356322" id="Line-Copy-119" stroke="#F6A623" stroke-width="3" stroke-linecap="square"></path>
                <path d="M31,107.337165 L151,107.337165" id="Line-Copy-120" stroke="#4A4A4A" stroke-width="3" stroke-linecap="square"></path>
                <path d="M31,112.318008 L230.751244,112.318008" id="Line-Copy-121" stroke="#E01E8A" stroke-width="3" stroke-linecap="square"></path>
            </g>
        </g>
    </g>
</svg>