<?xml version="1.0" encoding="UTF-8" standalone="no"?>
<svg width="269px" height="589px" viewBox="0 0 269 589" version="1.1" xmlns="http://www.w3.org/2000/svg" xmlns:xlink="http://www.w3.org/1999/xlink" xmlns:sketch="http://www.bohemiancoding.com/sketch/ns">
    <!-- Generator: Sketch 3.3 (11970) - http://www.bohemiancoding.com/sketch -->
    <title>Group</title>
    <desc>Created with Sketch.</desc>
    <defs></defs>
    <g id="Page-1" stroke="none" stroke-width="1" fill="none" fill-rule="evenodd" sketch:type="MSPage">
        <g id="Group" sketch:type="MSLayerGroup" transform="translate(3.000000, 3.000000)">
            <g id="Group-Copy-10" transform="translate(132.500000, 518.000000) scale(1, -1) translate(-132.500000, -518.000000) translate(2.000000, 453.000000)" sketch:type="MSShapeGroup">
                <rect id="Rectangle-31-Copy-2" stroke="#D7D7D7" stroke-width="6" stroke-linecap="round" stroke-linejoin="round" x="1" y="0" width="260" height="129.501916"></rect>
                <path d="M31.1488372,62.0114943 L158.873365,62.0114943" id="Line-Copy-109" stroke="#50E3C2" stroke-width="3" stroke-linecap="square"></path>
                <path d="M70.1488902,97.4227654 L90.22896,97.4227654" id="Line-Copy-156" stroke="#50E3C2" stroke-width="3" stroke-linecap="square"></path>
                <path d="M99.1488902,97.4227654 L104.998899,97.4227654 M99.1488902,97.4227654 L104.998899,97.4227654 M114.14889,97.4227654 L119.998899,97.4227654 M112.14889,102.403608 L117.998899,102.403608 M224.14889,102.403608 L229.998899,102.403608" id="Line-Copy-157" stroke="#50E3C2" stroke-width="3" stroke-linecap="square"></path>
                <path d="M31.1488902,67.4904215 L215.102631,67.4904215" id="Line-Copy-110" stroke="#50E3C2" stroke-width="3" stroke-linecap="square"></path>
                <path d="M31,16.6858238 L159,16.6858238" id="Line-Copy-100" stroke="#F6A623" stroke-width="3" stroke-linecap="square"></path>
                <path d="M141.215997,82.4802367 L218.832871,82.4802367" id="Line-Copy-163" stroke="#F6A623" stroke-width="3" stroke-linecap="square"></path>
                <path d="M228.200072,82.4802367 L230.832871,82.4802367" id="Line-Copy-164" stroke="#F6A623" stroke-width="3" stroke-linecap="square"></path>
                <path d="M31.0735294,22.164751 L75.9267129,22.164751" id="Line-Copy-101" stroke="#4990E2" stroke-width="3" stroke-linecap="square"></path>
                <path d="M84,22.164751 L87,22.164751" id="Line-Copy-137" stroke="#4990E2" stroke-width="3" stroke-linecap="square"></path>
                <path d="M96,22.164751 L99,22.164751" id="Line-Copy-152" stroke="#4990E2" stroke-width="3" stroke-linecap="square"></path>
                <path d="M107,22.164751 L110,22.164751" id="Line-Copy-153" stroke="#4990E2" stroke-width="3" stroke-linecap="square"></path>
                <path d="M119,21.9157088 L133.04861,21.9157088" id="Line-Copy-154" stroke="#4990E2" stroke-width="3" stroke-linecap="square"></path>
                <path d="M166,21.9157088 L232.500931,21.9157088" id="Line-Copy-162" stroke="#4990E2" stroke-width="3" stroke-linecap="square"></path>
                <path d="M120.072716,72.0204666 L230.986519,72.0204666" id="Line-Copy-135" stroke="#4990E2" stroke-width="3" stroke-linecap="square"></path>
                <path d="M162.072716,52.0970949 L232.47728,52.0970949" id="Line-Copy-133" stroke="#4990E2" stroke-width="3" stroke-linecap="square"></path>
                <path d="M168.072716,16.7331102 L232.184509,16.7331102" id="Line-Copy-114" stroke="#4990E2" stroke-width="3" stroke-linecap="square"></path>
                <path d="M68,42.3499701 L232,42.8224437" id="Line-Copy-115" stroke="#4990E2" stroke-width="3" stroke-linecap="square"></path>
                <path d="M75.072716,86.9629953 L230.69075,86.9629953" id="Line-Copy-123" stroke="#4990E2" stroke-width="3" stroke-linecap="square"></path>
                <path d="M31.0732558,27.1455939 L93.9376718,27.1455939" id="Line-Copy-102" stroke="#50E3C2" stroke-width="3" stroke-linecap="square"></path>
                <path d="M103.072784,27.1928804 L231.999573,27.1928804" id="Line-Copy-132" stroke="#50E3C2" stroke-width="3" stroke-linecap="square"></path>
                <path d="M113.073256,47.0689655 L175.937672,47.0689655" id="Line-Copy-124" stroke="#50E3C2" stroke-width="3" stroke-linecap="square"></path>
                <path d="M31,32.1264368 L64,32.1264368" id="Line-Copy-103" stroke="#FF0CA6" stroke-width="3" stroke-linecap="square"></path>
                <path d="M74,32.1737233 L232.682861,32.1737233" id="Line-Copy-134" stroke="#FF0CA6" stroke-width="3" stroke-linecap="square"></path>
                <path d="M31,72.4712644 L64,72.4712644" id="Line-Copy-111" stroke="#FF0CA6" stroke-width="3" stroke-linecap="square"></path>
                <path d="M171,62.0114943 L204,62.0114943" id="Line-Copy-165" stroke="#FF0CA6" stroke-width="3" stroke-linecap="square"></path>
                <path d="M31,77.4521073 L144,77.4521073" id="Line-Copy-113" stroke="#FF0CA6" stroke-width="3" stroke-linecap="square"></path>
                <path d="M31.0726141,37.1072797 L100.927537,37.1072797" id="Line-Copy-104" stroke="#B8E986" stroke-width="3" stroke-linecap="square"></path>
                <path d="M154.072805,77.4993938 L231.181526,77.4993938" id="Line-Copy-166" stroke="#B8E986" stroke-width="3" stroke-linecap="square"></path>
                <path d="M225.166649,67.5377079 L231.181526,67.5377079" id="Line-Copy-167" stroke="#B8E986" stroke-width="3" stroke-linecap="square"></path>
                <path d="M212.166649,62.556865 L231.153606,62.556865" id="Line-Copy-168" stroke="#B8E986" stroke-width="3" stroke-linecap="square"></path>
                <path d="M31,42.0881226 L59,42.0881226" id="Line-Copy-105" stroke="#BD0FE1" stroke-width="3" stroke-linecap="square"></path>
                <path d="M184,47.0689655 L212,47.0689655" id="Line-Copy-125" stroke="#BD0FE1" stroke-width="3" stroke-linecap="square"></path>
                <path d="M221.220286,47.116252 L232.220286,47.116252" id="Line-Copy-126" stroke="#BD0FE1" stroke-width="3" stroke-linecap="square"></path>
                <path d="M74,72.5185509 L87.2202864,72.5185509" id="Line-Copy-127" stroke="#BD0FE1" stroke-width="3" stroke-linecap="square"></path>
                <path d="M97,72.5185509 L110.220286,72.5185509" id="Line-Copy-128" stroke="#BD0FE1" stroke-width="3" stroke-linecap="square"></path>
                <path d="M111,92.4419225 L151.471371,92.4419225" id="Line-Copy-160" stroke="#BD0FE1" stroke-width="3" stroke-linecap="square"></path>
                <path d="M160,92.4419225 L230.137825,92.4419225" id="Line-Copy-161" stroke="#BD0FE1" stroke-width="3" stroke-linecap="square"></path>
                <path d="M143,22.2120374 L156.220286,22.2120375" id="Line-Copy-155" stroke="#BD0FE1" stroke-width="3" stroke-linecap="square"></path>
                <path d="M160,107.384451 L173.220286,107.384451" id="Line-Copy-129" stroke="#BD0FE1" stroke-width="3" stroke-linecap="square"></path>
                <path d="M31.0731463,47.0689655 L103.927001,47.0689655" id="Line-Copy-106" stroke="#F6A623" stroke-width="3" stroke-linecap="square"></path>
                <path d="M31,52.0498084 L151,52.0498084" id="Line-Copy-107" stroke="#4A4A4A" stroke-width="3" stroke-linecap="square"></path>
                <path d="M110,37.1545662 L232.500473,37.1545662" id="Line-Copy-136" stroke="#4A4A4A" stroke-width="3" stroke-linecap="square"></path>
                <path d="M31,57.0779378 L232.376205,57.0779378" id="Line-Copy-108" stroke="#E01E8A" stroke-width="3" stroke-linecap="square"></path>
                <path d="M31.0732558,82.4329502 L93.9376718,82.4329502" id="Line-Copy-122" stroke="#50E3C2" stroke-width="3" stroke-linecap="square"></path>
                <path d="M31,87.4137931 L64,87.4137931" id="Line-Copy-116" stroke="#FF0CA6" stroke-width="3" stroke-linecap="square"></path>
                <path d="M31.0726141,92.394636 L100.927537,92.394636" id="Line-Copy-117" stroke="#B8E986" stroke-width="3" stroke-linecap="square"></path>
                <path d="M184.072805,107.384451 L230.225937,107.384451" id="Line-Copy-130" stroke="#B8E986" stroke-width="3" stroke-linecap="square"></path>
                <path d="M31,97.3754789 L59,97.3754789" id="Line-Copy-118" stroke="#BD0FE1" stroke-width="3" stroke-linecap="square"></path>
                <path d="M103,82.4329502 L131,82.4329502" id="Line-Copy-131" stroke="#BD0FE1" stroke-width="3" stroke-linecap="square"></path>
                <path d="M128,102.403608 L214.563087,102.403608" id="Line-Copy-158" stroke="#BD0FE1" stroke-width="3" stroke-linecap="square"></path>
                <path d="M129,97.4227654 L230.183388,97.4227654" id="Line-Copy-159" stroke="#4A4A4A" stroke-width="3" stroke-linecap="square"></path>
                <path d="M31.0731463,102.356322 L103.927001,102.356322" id="Line-Copy-119" stroke="#F6A623" stroke-width="3" stroke-linecap="square"></path>
                <path d="M31,107.337165 L151,107.337165" id="Line-Copy-120" stroke="#4A4A4A" stroke-width="3" stroke-linecap="square"></path>
                <path d="M31,112.318008 L230.751244,112.318008" id="Line-Copy-121" stroke="#E01E8A" stroke-width="3" stroke-linecap="square"></path>
            </g>
            <g id="Group-Copy-11" sketch:type="MSShapeGroup">
                <rect id="Rectangle-31-Copy-2" stroke="#D7D7D7" stroke-width="6" stroke-linecap="round" stroke-linejoin="round" x="1" y="0" width="260" height="129.501916"></rect>
                <path d="M31.1488372,62.0114943 L158.873365,62.0114943" id="Line-Copy-109" stroke="#50E3C2" stroke-width="3" stroke-linecap="square"></path>
                <path d="M70.1488902,97.4227654 L90.22896,97.4227654" id="Line-Copy-156" stroke="#50E3C2" stroke-width="3" stroke-linecap="square"></path>
                <path d="M99.1488902,97.4227654 L104.998899,97.4227654 M99.1488902,97.4227654 L104.998899,97.4227654 M114.14889,97.4227654 L119.998899,97.4227654 M112.14889,102.403608 L117.998899,102.403608 M224.14889,102.403608 L229.998899,102.403608" id="Line-Copy-157" stroke="#50E3C2" stroke-width="3" stroke-linecap="square"></path>
                <path d="M31.1488902,67.4904215 L215.102631,67.4904215" id="Line-Copy-110" stroke="#50E3C2" stroke-width="3" stroke-linecap="square"></path>
                <path d="M31,16.6858238 L159,16.6858238" id="Line-Copy-100" stroke="#F6A623" stroke-width="3" stroke-linecap="square"></path>
                <path d="M141.215997,82.4802367 L218.832871,82.4802367" id="Line-Copy-163" stroke="#F6A623" stroke-width="3" stroke-linecap="square"></path>
                <path d="M228.200072,82.4802367 L230.832871,82.4802367" id="Line-Copy-164" stroke="#F6A623" stroke-width="3" stroke-linecap="square"></path>
                <path d="M31.0735294,22.164751 L75.9267129,22.164751" id="Line-Copy-101" stroke="#4990E2" stroke-width="3" stroke-linecap="square"></path>
                <path d="M84,22.164751 L87,22.164751" id="Line-Copy-137" stroke="#4990E2" stroke-width="3" stroke-linecap="square"></path>
                <path d="M96,22.164751 L99,22.164751" id="Line-Copy-152" stroke="#4990E2" stroke-width="3" stroke-linecap="square"></path>
                <path d="M107,22.164751 L110,22.164751" id="Line-Copy-153" stroke="#4990E2" stroke-width="3" stroke-linecap="square"></path>
                <path d="M119,21.9157088 L133.04861,21.9157088" id="Line-Copy-154" stroke="#4990E2" stroke-width="3" stroke-linecap="square"></path>
                <path d="M166,21.9157088 L232.500931,21.9157088" id="Line-Copy-162" stroke="#4990E2" stroke-width="3" stroke-linecap="square"></path>
                <path d="M120.072716,72.0204666 L230.986519,72.0204666" id="Line-Copy-135" stroke="#4990E2" stroke-width="3" stroke-linecap="square"></path>
                <path d="M162.072716,52.0970949 L232.47728,52.0970949" id="Line-Copy-133" stroke="#4990E2" stroke-width="3" stroke-linecap="square"></path>
                <path d="M168.072716,16.7331102 L232.184509,16.7331102" id="Line-Copy-114" stroke="#4990E2" stroke-width="3" stroke-linecap="square"></path>
                <path d="M68,42.3499701 L232,42.8224437" id="Line-Copy-115" stroke="#4990E2" stroke-width="3" stroke-linecap="square"></path>
                <path d="M75.072716,86.9629953 L230.69075,86.9629953" id="Line-Copy-123" stroke="#4990E2" stroke-width="3" stroke-linecap="square"></path>
                <path d="M31.0732558,27.1455939 L93.9376718,27.1455939" id="Line-Copy-102" stroke="#50E3C2" stroke-width="3" stroke-linecap="square"></path>
                <path d="M103.072784,27.1928804 L231.999573,27.1928804" id="Line-Copy-132" stroke="#50E3C2" stroke-width="3" stroke-linecap="square"></path>
                <path d="M113.073256,47.0689655 L175.937672,47.0689655" id="Line-Copy-124" stroke="#50E3C2" stroke-width="3" stroke-linecap="square"></path>
                <path d="M31,32.1264368 L64,32.1264368" id="Line-Copy-103" stroke="#FF0CA6" stroke-width="3" stroke-linecap="square"></path>
                <path d="M74,32.1737233 L232.682861,32.1737233" id="Line-Copy-134" stroke="#FF0CA6" stroke-width="3" stroke-linecap="square"></path>
                <path d="M31,72.4712644 L64,72.4712644" id="Line-Copy-111" stroke="#FF0CA6" stroke-width="3" stroke-linecap="square"></path>
                <path d="M171,62.0114943 L204,62.0114943" id="Line-Copy-165" stroke="#FF0CA6" stroke-width="3" stroke-linecap="square"></path>
                <path d="M31,77.4521073 L144,77.4521073" id="Line-Copy-113" stroke="#FF0CA6" stroke-width="3" stroke-linecap="square"></path>
                <path d="M31.0726141,37.1072797 L100.927537,37.1072797" id="Line-Copy-104" stroke="#B8E986" stroke-width="3" stroke-linecap="square"></path>
                <path d="M154.072805,77.4993938 L231.181526,77.4993938" id="Line-Copy-166" stroke="#B8E986" stroke-width="3" stroke-linecap="square"></path>
                <path d="M225.166649,67.5377079 L231.181526,67.5377079" id="Line-Copy-167" stroke="#B8E986" stroke-width="3" stroke-linecap="square"></path>
                <path d="M212.166649,62.556865 L231.153606,62.556865" id="Line-Copy-168" stroke="#B8E986" stroke-width="3" stroke-linecap="square"></path>
                <path d="M31,42.0881226 L59,42.0881226" id="Line-Copy-105" stroke="#BD0FE1" stroke-width="3" stroke-linecap="square"></path>
                <path d="M184,47.0689655 L212,47.0689655" id="Line-Copy-125" stroke="#BD0FE1" stroke-width="3" stroke-linecap="square"></path>
                <path d="M221.220286,47.116252 L232.220286,47.116252" id="Line-Copy-126" stroke="#BD0FE1" stroke-width="3" stroke-linecap="square"></path>
                <path d="M74,72.5185509 L87.2202864,72.5185509" id="Line-Copy-127" stroke="#BD0FE1" stroke-width="3" stroke-linecap="square"></path>
                <path d="M97,72.5185509 L110.220286,72.5185509" id="Line-Copy-128" stroke="#BD0FE1" stroke-width="3" stroke-linecap="square"></path>
                <path d="M111,92.4419225 L151.471371,92.4419225" id="Line-Copy-160" stroke="#BD0FE1" stroke-width="3" stroke-linecap="square"></path>
                <path d="M160,92.4419225 L230.137825,92.4419225" id="Line-Copy-161" stroke="#BD0FE1" stroke-width="3" stroke-linecap="square"></path>
                <path d="M143,22.2120374 L156.220286,22.2120375" id="Line-Copy-155" stroke="#BD0FE1" stroke-width="3" stroke-linecap="square"></path>
                <path d="M160,107.384451 L173.220286,107.384451" id="Line-Copy-129" stroke="#BD0FE1" stroke-width="3" stroke-linecap="square"></path>
                <path d="M31.0731463,47.0689655 L103.927001,47.0689655" id="Line-Copy-106" stroke="#F6A623" stroke-width="3" stroke-linecap="square"></path>
                <path d="M31,52.0498084 L151,52.0498084" id="Line-Copy-107" stroke="#4A4A4A" stroke-width="3" stroke-linecap="square"></path>
                <path d="M110,37.1545662 L232.500473,37.1545662" id="Line-Copy-136" stroke="#4A4A4A" stroke-width="3" stroke-linecap="square"></path>
                <path d="M31,57.0779378 L232.376205,57.0779378" id="Line-Copy-108" stroke="#E01E8A" stroke-width="3" stroke-linecap="square"></path>
                <path d="M31.0732558,82.4329502 L93.9376718,82.4329502" id="Line-Copy-122" stroke="#50E3C2" stroke-width="3" stroke-linecap="square"></path>
                <path d="M31,87.4137931 L64,87.4137931" id="Line-Copy-116" stroke="#FF0CA6" stroke-width="3" stroke-linecap="square"></path>
                <path d="M31.0726141,92.394636 L100.927537,92.394636" id="Line-Copy-117" stroke="#B8E986" stroke-width="3" stroke-linecap="square"></path>
                <path d="M184.072805,107.384451 L230.225937,107.384451" id="Line-Copy-130" stroke="#B8E986" stroke-width="3" stroke-linecap="square"></path>
                <path d="M31,97.3754789 L59,97.3754789" id="Line-Copy-118" stroke="#BD0FE1" stroke-width="3" stroke-linecap="square"></path>
                <path d="M103,82.4329502 L131,82.4329502" id="Line-Copy-131" stroke="#BD0FE1" stroke-width="3" stroke-linecap="square"></path>
                <path d="M128,102.403608 L214.563087,102.403608" id="Line-Copy-158" stroke="#BD0FE1" stroke-width="3" stroke-linecap="square"></path>
                <path d="M129,97.4227654 L230.183388,97.4227654" id="Line-Copy-159" stroke="#4A4A4A" stroke-width="3" stroke-linecap="square"></path>
                <path d="M31.0731463,102.356322 L103.927001,102.356322" id="Line-Copy-119" stroke="#F6A623" stroke-width="3" stroke-linecap="square"></path>
                <path d="M31,107.337165 L151,107.337165" id="Line-Copy-120" stroke="#4A4A4A" stroke-width="3" stroke-linecap="square"></path>
                <path d="M31,112.318008 L230.751244,112.318008" id="Line-Copy-121" stroke="#E01E8A" stroke-width="3" stroke-linecap="square"></path>
            </g>
            <g id="Group-Copy-12" transform="translate(130.500000, 216.000000) scale(-1, 1) translate(-130.500000, -216.000000) translate(0.000000, 151.000000)" sketch:type="MSShapeGroup">
                <rect id="Rectangle-31-Copy-2" stroke="#D7D7D7" stroke-width="6" stroke-linecap="round" stroke-linejoin="round" x="1" y="0" width="260" height="129.501916"></rect>
                <path d="M31.1488372,62.0114943 L158.873365,62.0114943" id="Line-Copy-109" stroke="#50E3C2" stroke-width="3" stroke-linecap="square"></path>
                <path d="M70.1488902,97.4227654 L90.22896,97.4227654" id="Line-Copy-156" stroke="#50E3C2" stroke-width="3" stroke-linecap="square"></path>
                <path d="M99.1488902,97.4227654 L104.998899,97.4227654 M99.1488902,97.4227654 L104.998899,97.4227654 M114.14889,97.4227654 L119.998899,97.4227654 M112.14889,102.403608 L117.998899,102.403608 M224.14889,102.403608 L229.998899,102.403608" id="Line-Copy-157" stroke="#50E3C2" stroke-width="3" stroke-linecap="square"></path>
                <path d="M31.1488902,67.4904215 L215.102631,67.4904215" id="Line-Copy-110" stroke="#50E3C2" stroke-width="3" stroke-linecap="square"></path>
                <path d="M31,16.6858238 L159,16.6858238" id="Line-Copy-100" stroke="#F6A623" stroke-width="3" stroke-linecap="square"></path>
                <path d="M141.215997,82.4802367 L218.832871,82.4802367" id="Line-Copy-163" stroke="#F6A623" stroke-width="3" stroke-linecap="square"></path>
                <path d="M228.200072,82.4802367 L230.832871,82.4802367" id="Line-Copy-164" stroke="#F6A623" stroke-width="3" stroke-linecap="square"></path>
                <path d="M31.0735294,22.164751 L75.9267129,22.164751" id="Line-Copy-101" stroke="#4990E2" stroke-width="3" stroke-linecap="square"></path>
                <path d="M84,22.164751 L87,22.164751" id="Line-Copy-137" stroke="#4990E2" stroke-width="3" stroke-linecap="square"></path>
                <path d="M96,22.164751 L99,22.164751" id="Line-Copy-152" stroke="#4990E2" stroke-width="3" stroke-linecap="square"></path>
                <path d="M107,22.164751 L110,22.164751" id="Line-Copy-153" stroke="#4990E2" stroke-width="3" stroke-linecap="square"></path>
                <path d="M119,21.9157088 L133.04861,21.9157088" id="Line-Copy-154" stroke="#4990E2" stroke-width="3" stroke-linecap="square"></path>
                <path d="M166,21.9157088 L232.500931,21.9157088" id="Line-Copy-162" stroke="#4990E2" stroke-width="3" stroke-linecap="square"></path>
                <path d="M120.072716,72.0204666 L230.986519,72.0204666" id="Line-Copy-135" stroke="#4990E2" stroke-width="3" stroke-linecap="square"></path>
                <path d="M162.072716,52.0970949 L232.47728,52.0970949" id="Line-Copy-133" stroke="#4990E2" stroke-width="3" stroke-linecap="square"></path>
                <path d="M168.072716,16.7331102 L232.184509,16.7331102" id="Line-Copy-114" stroke="#4990E2" stroke-width="3" stroke-linecap="square"></path>
                <path d="M68,42.3499701 L232,42.8224437" id="Line-Copy-115" stroke="#4990E2" stroke-width="3" stroke-linecap="square"></path>
                <path d="M75.072716,86.9629953 L230.69075,86.9629953" id="Line-Copy-123" stroke="#4990E2" stroke-width="3" stroke-linecap="square"></path>
                <path d="M31.0732558,27.1455939 L93.9376718,27.1455939" id="Line-Copy-102" stroke="#50E3C2" stroke-width="3" stroke-linecap="square"></path>
                <path d="M103.072784,27.1928804 L231.999573,27.1928804" id="Line-Copy-132" stroke="#50E3C2" stroke-width="3" stroke-linecap="square"></path>
                <path d="M113.073256,47.0689655 L175.937672,47.0689655" id="Line-Copy-124" stroke="#50E3C2" stroke-width="3" stroke-linecap="square"></path>
                <path d="M31,32.1264368 L64,32.1264368" id="Line-Copy-103" stroke="#FF0CA6" stroke-width="3" stroke-linecap="square"></path>
                <path d="M74,32.1737233 L232.682861,32.1737233" id="Line-Copy-134" stroke="#FF0CA6" stroke-width="3" stroke-linecap="square"></path>
                <path d="M31,72.4712644 L64,72.4712644" id="Line-Copy-111" stroke="#FF0CA6" stroke-width="3" stroke-linecap="square"></path>
                <path d="M171,62.0114943 L204,62.0114943" id="Line-Copy-165" stroke="#FF0CA6" stroke-width="3" stroke-linecap="square"></path>
                <path d="M31,77.4521073 L144,77.4521073" id="Line-Copy-113" stroke="#FF0CA6" stroke-width="3" stroke-linecap="square"></path>
                <path d="M31.0726141,37.1072797 L100.927537,37.1072797" id="Line-Copy-104" stroke="#B8E986" stroke-width="3" stroke-linecap="square"></path>
                <path d="M154.072805,77.4993938 L231.181526,77.4993938" id="Line-Copy-166" stroke="#B8E986" stroke-width="3" stroke-linecap="square"></path>
                <path d="M225.166649,67.5377079 L231.181526,67.5377079" id="Line-Copy-167" stroke="#B8E986" stroke-width="3" stroke-linecap="square"></path>
                <path d="M212.166649,62.556865 L231.153606,62.556865" id="Line-Copy-168" stroke="#B8E986" stroke-width="3" stroke-linecap="square"></path>
                <path d="M31,42.0881226 L59,42.0881226" id="Line-Copy-105" stroke="#BD0FE1" stroke-width="3" stroke-linecap="square"></path>
                <path d="M184,47.0689655 L212,47.0689655" id="Line-Copy-125" stroke="#BD0FE1" stroke-width="3" stroke-linecap="square"></path>
                <path d="M221.220286,47.116252 L232.220286,47.116252" id="Line-Copy-126" stroke="#BD0FE1" stroke-width="3" stroke-linecap="square"></path>
                <path d="M74,72.5185509 L87.2202864,72.5185509" id="Line-Copy-127" stroke="#BD0FE1" stroke-width="3" stroke-linecap="square"></path>
                <path d="M97,72.5185509 L110.220286,72.5185509" id="Line-Copy-128" stroke="#BD0FE1" stroke-width="3" stroke-linecap="square"></path>
                <path d="M111,92.4419225 L151.471371,92.4419225" id="Line-Copy-160" stroke="#BD0FE1" stroke-width="3" stroke-linecap="square"></path>
                <path d="M160,92.4419225 L230.137825,92.4419225" id="Line-Copy-161" stroke="#BD0FE1" stroke-width="3" stroke-linecap="square"></path>
                <path d="M143,22.2120374 L156.220286,22.2120375" id="Line-Copy-155" stroke="#BD0FE1" stroke-width="3" stroke-linecap="square"></path>
                <path d="M160,107.384451 L173.220286,107.384451" id="Line-Copy-129" stroke="#BD0FE1" stroke-width="3" stroke-linecap="square"></path>
                <path d="M31.0731463,47.0689655 L103.927001,47.0689655" id="Line-Copy-106" stroke="#F6A623" stroke-width="3" stroke-linecap="square"></path>
                <path d="M31,52.0498084 L151,52.0498084" id="Line-Copy-107" stroke="#4A4A4A" stroke-width="3" stroke-linecap="square"></path>
                <path d="M110,37.1545662 L232.500473,37.1545662" id="Line-Copy-136" stroke="#4A4A4A" stroke-width="3" stroke-linecap="square"></path>
                <path d="M31,57.0779378 L232.376205,57.0779378" id="Line-Copy-108" stroke="#E01E8A" stroke-width="3" stroke-linecap="square"></path>
                <path d="M31.0732558,82.4329502 L93.9376718,82.4329502" id="Line-Copy-122" stroke="#50E3C2" stroke-width="3" stroke-linecap="square"></path>
                <path d="M31,87.4137931 L64,87.4137931" id="Line-Copy-116" stroke="#FF0CA6" stroke-width="3" stroke-linecap="square"></path>
                <path d="M31.0726141,92.394636 L100.927537,92.394636" id="Line-Copy-117" stroke="#B8E986" stroke-width="3" stroke-linecap="square"></path>
                <path d="M184.072805,107.384451 L230.225937,107.384451" id="Line-Copy-130" stroke="#B8E986" stroke-width="3" stroke-linecap="square"></path>
                <path d="M31,97.3754789 L59,97.3754789" id="Line-Copy-118" stroke="#BD0FE1" stroke-width="3" stroke-linecap="square"></path>
                <path d="M103,82.4329502 L131,82.4329502" id="Line-Copy-131" stroke="#BD0FE1" stroke-width="3" stroke-linecap="square"></path>
                <path d="M128,102.403608 L214.563087,102.403608" id="Line-Copy-158" stroke="#BD0FE1" stroke-width="3" stroke-linecap="square"></path>
                <path d="M129,97.4227654 L230.183388,97.4227654" id="Line-Copy-159" stroke="#4A4A4A" stroke-width="3" stroke-linecap="square"></path>
                <path d="M31.0731463,102.356322 L103.927001,102.356322" id="Line-Copy-119" stroke="#F6A623" stroke-width="3" stroke-linecap="square"></path>
                <path d="M31,107.337165 L151,107.337165" id="Line-Copy-120" stroke="#4A4A4A" stroke-width="3" stroke-linecap="square"></path>
                <path d="M31,112.318008 L230.751244,112.318008" id="Line-Copy-121" stroke="#E01E8A" stroke-width="3" stroke-linecap="square"></path>
            </g>
            <g id="Group-Copy-9" transform="translate(132.500000, 368.000000) scale(1, -1) translate(-132.500000, -368.000000) translate(2.000000, 303.000000)" sketch:type="MSShapeGroup">
                <rect id="Rectangle-31-Copy-2" stroke="#D7D7D7" stroke-width="6" stroke-linecap="round" stroke-linejoin="round" x="1" y="0" width="260" height="129.501916"></rect>
                <path d="M31.1488372,62.0114943 L158.873365,62.0114943" id="Line-Copy-109" stroke="#50E3C2" stroke-width="3" stroke-linecap="square"></path>
                <path d="M70.1488902,97.4227654 L90.22896,97.4227654" id="Line-Copy-156" stroke="#50E3C2" stroke-width="3" stroke-linecap="square"></path>
                <path d="M99.1488902,97.4227654 L104.998899,97.4227654 M99.1488902,97.4227654 L104.998899,97.4227654 M114.14889,97.4227654 L119.998899,97.4227654 M112.14889,102.403608 L117.998899,102.403608 M224.14889,102.403608 L229.998899,102.403608" id="Line-Copy-157" stroke="#50E3C2" stroke-width="3" stroke-linecap="square"></path>
                <path d="M31.1488902,67.4904215 L215.102631,67.4904215" id="Line-Copy-110" stroke="#50E3C2" stroke-width="3" stroke-linecap="square"></path>
                <path d="M31,16.6858238 L159,16.6858238" id="Line-Copy-100" stroke="#F6A623" stroke-width="3" stroke-linecap="square"></path>
                <path d="M141.215997,82.4802367 L218.832871,82.4802367" id="Line-Copy-163" stroke="#F6A623" stroke-width="3" stroke-linecap="square"></path>
                <path d="M228.200072,82.4802367 L230.832871,82.4802367" id="Line-Copy-164" stroke="#F6A623" stroke-width="3" stroke-linecap="square"></path>
                <path d="M31.0735294,22.164751 L75.9267129,22.164751" id="Line-Copy-101" stroke="#4990E2" stroke-width="3" stroke-linecap="square"></path>
                <path d="M84,22.164751 L87,22.164751" id="Line-Copy-137" stroke="#4990E2" stroke-width="3" stroke-linecap="square"></path>
                <path d="M96,22.164751 L99,22.164751" id="Line-Copy-152" stroke="#4990E2" stroke-width="3" stroke-linecap="square"></path>
                <path d="M107,22.164751 L110,22.164751" id="Line-Copy-153" stroke="#4990E2" stroke-width="3" stroke-linecap="square"></path>
                <path d="M119,21.9157088 L133.04861,21.9157088" id="Line-Copy-154" stroke="#4990E2" stroke-width="3" stroke-linecap="square"></path>
                <path d="M166,21.9157088 L232.500931,21.9157088" id="Line-Copy-162" stroke="#4990E2" stroke-width="3" stroke-linecap="square"></path>
                <path d="M120.072716,72.0204666 L230.986519,72.0204666" id="Line-Copy-135" stroke="#4990E2" stroke-width="3" stroke-linecap="square"></path>
                <path d="M162.072716,52.0970949 L232.47728,52.0970949" id="Line-Copy-133" stroke="#4990E2" stroke-width="3" stroke-linecap="square"></path>
                <path d="M168.072716,16.7331102 L232.184509,16.7331102" id="Line-Copy-114" stroke="#4990E2" stroke-width="3" stroke-linecap="square"></path>
                <path d="M68,42.3499701 L232,42.8224437" id="Line-Copy-115" stroke="#4990E2" stroke-width="3" stroke-linecap="square"></path>
                <path d="M75.072716,86.9629953 L230.69075,86.9629953" id="Line-Copy-123" stroke="#4990E2" stroke-width="3" stroke-linecap="square"></path>
                <path d="M31.0732558,27.1455939 L93.9376718,27.1455939" id="Line-Copy-102" stroke="#50E3C2" stroke-width="3" stroke-linecap="square"></path>
                <path d="M103.072784,27.1928804 L231.999573,27.1928804" id="Line-Copy-132" stroke="#50E3C2" stroke-width="3" stroke-linecap="square"></path>
                <path d="M113.073256,47.0689655 L175.937672,47.0689655" id="Line-Copy-124" stroke="#50E3C2" stroke-width="3" stroke-linecap="square"></path>
                <path d="M31,32.1264368 L64,32.1264368" id="Line-Copy-103" stroke="#FF0CA6" stroke-width="3" stroke-linecap="square"></path>
                <path d="M74,32.1737233 L232.682861,32.1737233" id="Line-Copy-134" stroke="#FF0CA6" stroke-width="3" stroke-linecap="square"></path>
                <path d="M31,72.4712644 L64,72.4712644" id="Line-Copy-111" stroke="#FF0CA6" stroke-width="3" stroke-linecap="square"></path>
                <path d="M171,62.0114943 L204,62.0114943" id="Line-Copy-165" stroke="#FF0CA6" stroke-width="3" stroke-linecap="square"></path>
                <path d="M31,77.4521073 L144,77.4521073" id="Line-Copy-113" stroke="#FF0CA6" stroke-width="3" stroke-linecap="square"></path>
                <path d="M31.0726141,37.1072797 L100.927537,37.1072797" id="Line-Copy-104" stroke="#B8E986" stroke-width="3" stroke-linecap="square"></path>
                <path d="M154.072805,77.4993938 L231.181526,77.4993938" id="Line-Copy-166" stroke="#B8E986" stroke-width="3" stroke-linecap="square"></path>
                <path d="M225.166649,67.5377079 L231.181526,67.5377079" id="Line-Copy-167" stroke="#B8E986" stroke-width="3" stroke-linecap="square"></path>
                <path d="M212.166649,62.556865 L231.153606,62.556865" id="Line-Copy-168" stroke="#B8E986" stroke-width="3" stroke-linecap="square"></path>
                <path d="M31,42.0881226 L59,42.0881226" id="Line-Copy-105" stroke="#BD0FE1" stroke-width="3" stroke-linecap="square"></path>
                <path d="M184,47.0689655 L212,47.0689655" id="Line-Copy-125" stroke="#BD0FE1" stroke-width="3" stroke-linecap="square"></path>
                <path d="M221.220286,47.116252 L232.220286,47.116252" id="Line-Copy-126" stroke="#BD0FE1" stroke-width="3" stroke-linecap="square"></path>
                <path d="M74,72.5185509 L87.2202864,72.5185509" id="Line-Copy-127" stroke="#BD0FE1" stroke-width="3" stroke-linecap="square"></path>
                <path d="M97,72.5185509 L110.220286,72.5185509" id="Line-Copy-128" stroke="#BD0FE1" stroke-width="3" stroke-linecap="square"></path>
                <path d="M111,92.4419225 L151.471371,92.4419225" id="Line-Copy-160" stroke="#BD0FE1" stroke-width="3" stroke-linecap="square"></path>
                <path d="M160,92.4419225 L230.137825,92.4419225" id="Line-Copy-161" stroke="#BD0FE1" stroke-width="3" stroke-linecap="square"></path>
                <path d="M143,22.2120374 L156.220286,22.2120375" id="Line-Copy-155" stroke="#BD0FE1" stroke-width="3" stroke-linecap="square"></path>
                <path d="M160,107.384451 L173.220286,107.384451" id="Line-Copy-129" stroke="#BD0FE1" stroke-width="3" stroke-linecap="square"></path>
                <path d="M31.0731463,47.0689655 L103.927001,47.0689655" id="Line-Copy-106" stroke="#F6A623" stroke-width="3" stroke-linecap="square"></path>
                <path d="M31,52.0498084 L151,52.0498084" id="Line-Copy-107" stroke="#4A4A4A" stroke-width="3" stroke-linecap="square"></path>
                <path d="M110,37.1545662 L232.500473,37.1545662" id="Line-Copy-136" stroke="#4A4A4A" stroke-width="3" stroke-linecap="square"></path>
                <path d="M31,57.0779378 L232.376205,57.0779378" id="Line-Copy-108" stroke="#E01E8A" stroke-width="3" stroke-linecap="square"></path>
                <path d="M31.0732558,82.4329502 L93.9376718,82.4329502" id="Line-Copy-122" stroke="#50E3C2" stroke-width="3" stroke-linecap="square"></path>
                <path d="M31,87.4137931 L64,87.4137931" id="Line-Copy-116" stroke="#FF0CA6" stroke-width="3" stroke-linecap="square"></path>
                <path d="M31.0726141,92.394636 L100.927537,92.394636" id="Line-Copy-117" stroke="#B8E986" stroke-width="3" stroke-linecap="square"></path>
                <path d="M184.072805,107.384451 L230.225937,107.384451" id="Line-Copy-130" stroke="#B8E986" stroke-width="3" stroke-linecap="square"></path>
                <path d="M31,97.3754789 L59,97.3754789" id="Line-Copy-118" stroke="#BD0FE1" stroke-width="3" stroke-linecap="square"></path>
                <path d="M103,82.4329502 L131,82.4329502" id="Line-Copy-131" stroke="#BD0FE1" stroke-width="3" stroke-linecap="square"></path>
                <path d="M128,102.403608 L214.563087,102.403608" id="Line-Copy-158" stroke="#BD0FE1" stroke-width="3" stroke-linecap="square"></path>
                <path d="M129,97.4227654 L230.183388,97.4227654" id="Line-Copy-159" stroke="#4A4A4A" stroke-width="3" stroke-linecap="square"></path>
                <path d="M31.0731463,102.356322 L103.927001,102.356322" id="Line-Copy-119" stroke="#F6A623" stroke-width="3" stroke-linecap="square"></path>
                <path d="M31,107.337165 L151,107.337165" id="Line-Copy-120" stroke="#4A4A4A" stroke-width="3" stroke-linecap="square"></path>
                <path d="M31,112.318008 L230.751244,112.318008" id="Line-Copy-121" stroke="#E01E8A" stroke-width="3" stroke-linecap="square"></path>
            </g>
        </g>
    </g>
</svg>