<?xml version="1.0" encoding="UTF-8" standalone="no"?>
<svg width="159px" height="104px" viewBox="0 0 159 104" version="1.1" xmlns="http://www.w3.org/2000/svg" xmlns:xlink="http://www.w3.org/1999/xlink" xmlns:sketch="http://www.bohemiancoding.com/sketch/ns">
    <!-- Generator: Sketch 3.3 (11970) - http://www.bohemiancoding.com/sketch -->
    <title>Group + Oval 84 Copy 2</title>
    <desc>Created with Sketch.</desc>
    <defs></defs>
    <g id="Page-1" stroke="none" stroke-width="1" fill="none" fill-rule="evenodd" sketch:type="MSPage">
        <g id="Group-+-Oval-84-Copy-2" sketch:type="MSLayerGroup" transform="translate(3.000000, 0.000000)">
            <circle id="Oval-84-Copy-2" fill="#D0E986" sketch:type="MSShapeGroup" cx="76.5" cy="43.5" r="43.5"></circle>
            <g id="Group" transform="translate(0.000000, 11.000000)" stroke="#000000" stroke-width="5" sketch:type="MSShapeGroup">
                <path d="M128.034391,75.4626071 C128.034391,83.6034286 121.42213,90.2064286 113.263239,90.2064286 C105.111,90.2064286 98.4987391,83.6034286 98.4987391,75.4626071 C98.4987391,67.3085 105.111,60.7055 113.263239,60.7055 C121.42213,60.7055 128.034391,67.3085 128.034391,75.4626071 L128.034391,75.4626071 Z" id="Shape"></path>
                <path d="M60.1023913,75.4626071 C60.1023913,83.6034286 53.4901304,90.2064286 45.3312391,90.2064286 C37.1756739,90.2064286 30.560087,83.6034286 30.560087,75.4626071 C30.560087,67.3085 37.1756739,60.7055 45.3312391,60.7055 C53.4901304,60.7055 60.1023913,67.3085 60.1023913,75.4626071 L60.1023913,75.4626071 Z" id="Shape"></path>
                <path d="M98.6317826,73 L59.9660217,73" id="Shape"></path>
                <path d="M30.6964565,73.5129286 L16.5705652,73.5129286 C7.45376087,73.5129286 0,66.0729286 0,56.9722143 C0,56.9722143 8.262,30.527 20.7148696,30.527 L136.429435,30.527 C145.542913,30.527 153,37.9703214 153,47.0710357 L153,56.9722143 C153,66.0729286 145.542913,73.5129286 136.429435,73.5129286 L128.037717,73.5129286" id="Shape"></path>
                <path d="M54.0688696,0.79025 L37.5781304,29.15525" id="Shape"></path>
                <path d="M104.219609,16.8028571 L98.6317826,29.15525" id="Shape"></path>
            </g>
        </g>
    </g>
</svg>