<?xml version="1.0" encoding="UTF-8" standalone="no"?>
<svg width="246px" height="286px" viewBox="0 0 246 286" version="1.1" xmlns="http://www.w3.org/2000/svg" xmlns:xlink="http://www.w3.org/1999/xlink" xmlns:sketch="http://www.bohemiancoding.com/sketch/ns">
    <!-- Generator: Sketch 3.3 (11970) - http://www.bohemiancoding.com/sketch -->
    <title>Option1-Tickets</title>
    <desc>Created with Sketch.</desc>
    <defs>
        <filter x="-50%" y="-50%" width="200%" height="200%" filterUnits="objectBoundingBox" id="filter-1">
            <feOffset dx="1" dy="1" in="SourceAlpha" result="shadowOffsetOuter1"></feOffset>
            <feGaussianBlur stdDeviation="2" in="shadowOffsetOuter1" result="shadowBlurOuter1"></feGaussianBlur>
            <feColorMatrix values="0 0 0 0 0   0 0 0 0 0   0 0 0 0 0  0 0 0 0.175 0" in="shadowBlurOuter1" type="matrix" result="shadowMatrixOuter1"></feColorMatrix>
            <feMerge>
                <feMergeNode in="shadowMatrixOuter1"></feMergeNode>
                <feMergeNode in="SourceGraphic"></feMergeNode>
            </feMerge>
        </filter>
        <filter x="-50%" y="-50%" width="200%" height="200%" filterUnits="objectBoundingBox" id="filter-2">
            <feOffset dx="1" dy="1" in="SourceAlpha" result="shadowOffsetOuter1"></feOffset>
            <feGaussianBlur stdDeviation="2" in="shadowOffsetOuter1" result="shadowBlurOuter1"></feGaussianBlur>
            <feColorMatrix values="0 0 0 0 0   0 0 0 0 0   0 0 0 0 0  0 0 0 0.175 0" in="shadowBlurOuter1" type="matrix" result="shadowMatrixOuter1"></feColorMatrix>
            <feMerge>
                <feMergeNode in="shadowMatrixOuter1"></feMergeNode>
                <feMergeNode in="SourceGraphic"></feMergeNode>
            </feMerge>
        </filter>
    </defs>
    <g id="Page-1" stroke="none" stroke-width="1" fill="none" fill-rule="evenodd" sketch:type="MSPage">
        <g id="Option1-Tickets" sketch:type="MSArtboardGroup" transform="translate(0.000000, 0.500000)">
            <polygon id="Star-6-Copy" fill="#D8D8D8" sketch:type="MSShapeGroup" points="134.93402 171.283046 126.998919 175.454775 128.514389 166.61891 122.094757 160.361316 130.96647 159.072181 134.93402 151.033046 138.901571 159.072181 147.773283 160.361316 141.353652 166.61891 142.869121 175.454775 "></polygon>
            <g id="Rectangle-181-+-Line-+-Rectangle-181-+-Line-Copy" sketch:type="MSLayerGroup" transform="translate(125.434020, 141.033046) rotate(-30.000000) translate(-125.434020, -141.033046) translate(72.434020, 58.033046)">
                <g id="Rectangle-181-+-Line" transform="translate(5.000000, 0.000000)" sketch:type="MSShapeGroup">
                    <path d="M20.5672645,0 L0,0 L0,131 L74,131 L74,0 L53.4327355,0 C52.6748923,8.40975002 45.6070638,15 37,15 C28.3929362,15 21.3251077,8.40975002 20.5672645,2.79437584e-12 Z" id="Rectangle-181" fill="#4C4949" filter="url(#filter-1)"></path>
                    <path d="M8.5,42.5046615 L67,42.5046615" id="Line" stroke="#DCDCDC" stroke-width="2" stroke-linecap="round" stroke-linejoin="round" stroke-dasharray="5"></path>
                </g>
                <g id="Rectangle-181-+-Line-Copy" transform="translate(53.281670, 92.217174) rotate(-345.000000) translate(-53.281670, -92.217174) translate(16.281670, 26.717174)" sketch:type="MSShapeGroup">
                    <path d="M20.5672645,0 L0,0 L0,131 L74,131 L74,0 L53.4327355,0 C52.6748923,8.40975002 45.6070638,15 37,15 C28.3929362,15 21.3251077,8.40975002 20.5672645,2.79437584e-12 Z" id="Rectangle-181" fill="#FFFFFF" filter="url(#filter-2)"></path>
                    <path d="M8.5,42.5046615 L67,42.5046615" id="Line" stroke="#DCDCDC" stroke-width="2" stroke-linecap="round" stroke-linejoin="round" stroke-dasharray="5"></path>
                </g>
            </g>
            <polygon id="Star-6-Copy-4" fill="#9E57AD" sketch:type="MSShapeGroup" points="135.691385 169.558266 126.135546 174.610739 127.960549 163.909429 120.229712 156.330719 130.913466 154.769419 135.691385 145.033046 140.469305 154.769419 151.153059 156.330719 143.422222 163.909429 145.247225 174.610739 "></polygon>
        </g>
    </g>
</svg>