<?xml version="1.0" encoding="UTF-8" standalone="no"?>
<svg width="87px" height="106px" viewBox="0 0 87 106" version="1.1" xmlns="http://www.w3.org/2000/svg" xmlns:xlink="http://www.w3.org/1999/xlink" xmlns:sketch="http://www.bohemiancoding.com/sketch/ns">
    <!-- Generator: Sketch 3.3 (11970) - http://www.bohemiancoding.com/sketch -->
    <title>Group + Oval 84</title>
    <desc>Created with Sketch.</desc>
    <defs></defs>
    <g id="Page-1" stroke="none" stroke-width="1" fill="none" fill-rule="evenodd" sketch:type="MSPage">
        <g id="Group-+-Oval-84" sketch:type="MSLayerGroup" transform="translate(-1.000000, 0.000000)">
            <circle id="Oval-84" fill="#B8E986" sketch:type="MSShapeGroup" cx="44.5" cy="52.5" r="43.5"></circle>
            <g id="Group" fill="#000000" sketch:type="MSShapeGroup">
                <path d="M64.3654,106 L23.6346,106 C22.5126,106 21.571,105.152 21.4478,104.030167 L12.2078,19.3273333 C12.1396,18.702375 12.3398,18.079625 12.7578,17.6136667 C13.1758,17.1477083 13.7698,16.8782917 14.3968,16.8782917 L73.6076,16.8782917 C74.2324,16.8782917 74.8286,17.1455 75.2444,17.6136667 C75.6624,18.079625 75.8626,18.7045833 75.7944,19.3273333 L66.5544,104.030167 C66.429,105.152 65.4874,106 64.3654,106 L64.3654,106 Z M25.608,101.583333 L62.392,101.583333 L71.1502,21.2949583 L16.8498,21.2949583 L25.608,101.583333 L25.608,101.583333 Z" id="Shape"></path>
                <path d="M84.425,21.2949583 L3.575,21.2949583 C2.3606,21.2949583 1.375,20.305625 1.375,19.086625 C1.375,17.867625 2.3606,16.8782917 3.575,16.8782917 L84.425,16.8782917 C85.6416,16.8782917 86.625,17.867625 86.625,19.086625 C86.625,20.305625 85.6416,21.2949583 84.425,21.2949583 L84.425,21.2949583 Z" id="Shape"></path>
                <path d="M73.4074,21.2971667 C72.4834,21.2971667 71.6232,20.70975 71.3196,19.78225 L66.2486,4.41666667 L21.7492,4.41666667 L16.6804,19.78225 C16.2976,20.9372083 15.0546,21.5687917 13.8996,21.1845417 C12.7468,20.8002917 12.122,19.550375 12.5048,18.3932083 L18.073,1.51491667 C18.37,0.6095 19.2126,0 20.1608,0 L67.8392,0 C68.7874,0 69.6278,0.6095 69.927,1.51491667 L75.4952,18.3932083 C75.878,19.550375 75.2532,20.8002917 74.0982,21.1845417 C73.8694,21.259625 73.6384,21.2971667 73.4074,21.2971667 L73.4074,21.2971667 Z" id="Shape"></path>
                <path d="M44,79.8268333 C43.4368,79.8268333 42.8736,79.6104167 42.4446,79.1797917 L22.825,59.485875 C21.9648,58.6224167 21.9648,57.22675 22.825,56.3632917 L42.4446,36.669375 C43.3048,35.8059167 44.6974,35.8059167 45.5576,36.669375 L65.1772,56.3632917 C65.5908,56.7784583 65.8218,57.3371667 65.8218,57.9245833 C65.8218,58.512 65.5908,59.0729167 65.1772,59.485875 L45.5576,79.1797917 C45.1264,79.612625 44.561,79.8268333 44,79.8268333 L44,79.8268333 Z M27.4912,57.9245833 L44,74.4959167 L60.5088,57.9245833 L44,41.3554583 L27.4912,57.9245833 L27.4912,57.9245833 Z" id="Shape"></path>
            </g>
        </g>
    </g>
</svg>