<?xml version="1.0" encoding="UTF-8" standalone="no"?>
<svg width="252px" height="199px" viewBox="0 0 252 199" version="1.1" xmlns="http://www.w3.org/2000/svg" xmlns:xlink="http://www.w3.org/1999/xlink" xmlns:sketch="http://www.bohemiancoding.com/sketch/ns">
    <!-- Generator: Sketch 3.3 (11970) - http://www.bohemiancoding.com/sketch -->
    <title>Computer</title>
    <desc>Created with Sketch.</desc>
    <defs></defs>
    <g id="Page-1" stroke="none" stroke-width="1" fill="none" fill-rule="evenodd" sketch:type="MSPage">
        <g id="Computer" sketch:type="MSLayerGroup">
            <rect id="Rectangle-30-Copy-23" stroke="#2D2D2D" stroke-width="4" fill="#2D2D2D" sketch:type="MSShapeGroup" x="0" y="0" width="252" height="182" rx="6"></rect>
            <g id="Group-Copy-6" transform="translate(125.500000, 90.500000) rotate(-180.000000) translate(-125.500000, -90.500000) translate(60.000000, 25.000000)" stroke-width="3" sketch:type="MSShapeGroup">
                <rect id="Rectangle-31-Copy-2" stroke="#646464" stroke-linecap="round" stroke-linejoin="round" x="0.298055441" y="0.084585118" width="130.498084" height="130.498084"></rect>
                <path d="M15.6441505,62.9888509 L79.773921,62.9888509" id="Line-Copy-109" stroke="#50E3C2" stroke-linecap="square"></path>
                <path d="M35.1959903,98.4215586 L45.2744927,98.4215587" id="Line-Copy-156" stroke="#50E3C2" stroke-linecap="square"></path>
                <path d="M49.8670167,98.4215586 L52.8032283,98.4215587 M49.8670167,98.4215586 L52.8032283,98.4215587 M57.3957523,98.4215586 L60.3319639,98.4215587 M56.3919209,103.440716 L59.3281325,103.440716 M112.60648,103.440716 L115.542692,103.440716" id="Line-Copy-157" stroke="#50E3C2" stroke-linecap="square"></path>
                <path d="M15.6441505,68.0588349 L107.973423,68.0588349" id="Line-Copy-110" stroke="#50E3C2" stroke-linecap="square"></path>
                <path d="M15.6761778,17.358995 L79.8375038,17.358995" id="Line-Copy-100" stroke="#F6A623" stroke-linecap="square"></path>
                <path d="M70.8656876,83.2116067 L109.822816,83.2116067" id="Line-Copy-163" stroke="#F6A623" stroke-linecap="square"></path>
                <path d="M114.522061,83.2116067 L115.843504,83.2116067" id="Line-Copy-164" stroke="#F6A623" stroke-linecap="square"></path>
                <path d="M15.6059175,22.428979 L37.8693789,22.428979" id="Line-Copy-101" stroke="#4990E2" stroke-linecap="square"></path>
                <path d="M42.2434278,22.428979 L43.7687455,22.428979" id="Line-Copy-137" stroke="#4990E2" stroke-linecap="square"></path>
                <path d="M48.2664163,22.428979 L49.791734,22.428979" id="Line-Copy-152" stroke="#4990E2" stroke-linecap="square"></path>
                <path d="M53.7874891,22.428979 L55.3128068,22.428979" id="Line-Copy-153" stroke="#4990E2" stroke-linecap="square"></path>
                <path d="M59.8104776,22.428979 L66.8616955,22.428979" id="Line-Copy-154" stroke="#4990E2" stroke-linecap="square"></path>
                <path d="M83.169681,22.428979 L116.547543,22.428979" id="Line-Copy-162" stroke="#4990E2" stroke-linecap="square"></path>
                <path d="M60.381745,73.0335185 L116.051125,73.0335185" id="Line-Copy-135" stroke="#4990E2" stroke-linecap="square"></path>
                <path d="M81.2123335,52.848883 L116.54949,52.848883" id="Line-Copy-133" stroke="#4990E2" stroke-linecap="square"></path>
                <path d="M84.3683696,17.358995 L116.547086,17.358995" id="Line-Copy-114" stroke="#4990E2" stroke-linecap="square"></path>
                <path d="M34.2693967,42.8042154 L116.546524,43.2683898" id="Line-Copy-115" stroke="#4990E2" stroke-linecap="square"></path>
                <path d="M37.4403374,88.078283 L115.547473,88.078283" id="Line-Copy-123" stroke="#4990E2" stroke-linecap="square"></path>
                <path d="M15.6059516,27.498963 L46.9553337,27.498963" id="Line-Copy-102" stroke="#50E3C2" stroke-linecap="square"></path>
                <path d="M51.8364806,27.498963 L116.546861,27.498963" id="Line-Copy-132" stroke="#50E3C2" stroke-linecap="square"></path>
                <path d="M56.7896974,47.778899 L88.1390795,47.778899" id="Line-Copy-124" stroke="#50E3C2" stroke-linecap="square"></path>
                <path d="M15.7649061,32.568947 L32.3084071,32.568947" id="Line-Copy-103" stroke="#FF0CA6" stroke-linecap="square"></path>
                <path d="M36.9019244,32.8675551 L116.547345,32.8675551" id="Line-Copy-134" stroke="#FF0CA6" stroke-linecap="square"></path>
                <path d="M15.7649061,73.1288189 L32.3084071,73.1288189" id="Line-Copy-111" stroke="#FF0CA6" stroke-linecap="square"></path>
                <path d="M85.6787129,62.9888509 L102.222214,62.9888509" id="Line-Copy-165" stroke="#FF0CA6" stroke-linecap="square"></path>
                <path d="M15.7649061,78.2941034 L72.4616638,78.2941034" id="Line-Copy-113" stroke="#FF0CA6" stroke-linecap="square"></path>
                <path d="M15.6059624,37.638931 L50.7596514,37.638931" id="Line-Copy-104" stroke="#B8E986" stroke-linecap="square"></path>
                <path d="M77.3426812,78.2941034 L116.044759,78.2941034" id="Line-Copy-166" stroke="#B8E986" stroke-linecap="square"></path>
                <path d="M113.025798,68.1541354 L116.044759,68.1541354" id="Line-Copy-167" stroke="#B8E986" stroke-linecap="square"></path>
                <path d="M106.518327,63.0841514 L116.048179,63.0841514" id="Line-Copy-168" stroke="#B8E986" stroke-linecap="square"></path>
                <path d="M15.6216079,42.708915 L29.7122869,42.708915" id="Line-Copy-105" stroke="#BD0FE1" stroke-linecap="square"></path>
                <path d="M92.3440041,47.778899 L106.434683,47.778899" id="Line-Copy-125" stroke="#BD0FE1" stroke-linecap="square"></path>
                <path d="M111.025451,47.778899 L116.546523,47.778899" id="Line-Copy-126" stroke="#BD0FE1" stroke-linecap="square"></path>
                <path d="M37.086465,73.1288189 L43.7219344,73.1288189" id="Line-Copy-127" stroke="#BD0FE1" stroke-linecap="square"></path>
                <path d="M48.5374971,73.1288189 L55.1729665,73.1288189" id="Line-Copy-128" stroke="#BD0FE1" stroke-linecap="square"></path>
                <path d="M55.5781351,93.3515747 L75.8913518,93.3515747" id="Line-Copy-160" stroke="#BD0FE1" stroke-linecap="square"></path>
                <path d="M80.3394196,93.4468751 L115.542696,93.4468751" id="Line-Copy-161" stroke="#BD0FE1" stroke-linecap="square"></path>
                <path d="M71.6435926,22.4766292 L78.279062,22.4766292" id="Line-Copy-155" stroke="#BD0FE1" stroke-linecap="square"></path>
                <path d="M80.3394196,108.656827 L86.974889,108.656827" id="Line-Copy-129" stroke="#BD0FE1" stroke-linecap="square"></path>
                <path d="M15.6059725,47.778899 L52.0121439,47.778899" id="Line-Copy-106" stroke="#F6A623" stroke-linecap="square"></path>
                <path d="M15.6216079,52.848883 L75.7479796,52.848883" id="Line-Copy-107" stroke="#4A4A4A" stroke-linecap="square"></path>
                <path d="M55.0762194,37.7342314 L116.561131,37.7342314" id="Line-Copy-136" stroke="#4A4A4A" stroke-linecap="square"></path>
                <path d="M15.473464,57.918867 L116.547345,57.918867" id="Line-Copy-108" stroke="#E01E8A" stroke-linecap="square"></path>
                <path d="M15.6059516,83.2116067 L46.9553337,83.2116067" id="Line-Copy-122" stroke="#50E3C2" stroke-linecap="square"></path>
                <path d="M15.7649061,88.2815907 L32.3084071,88.2815907" id="Line-Copy-116" stroke="#FF0CA6" stroke-linecap="square"></path>
                <path d="M15.6059624,93.3515747 L50.7596514,93.3515747" id="Line-Copy-117" stroke="#B8E986" stroke-linecap="square"></path>
                <path d="M92.3805463,108.656827 L115.545528,108.656827" id="Line-Copy-130" stroke="#B8E986" stroke-linecap="square"></path>
                <path d="M15.6216079,98.4215586 L29.7122869,98.4215586" id="Line-Copy-118" stroke="#BD0FE1" stroke-linecap="square"></path>
                <path d="M51.6097473,83.2116067 L65.7004264,83.2116067" id="Line-Copy-131" stroke="#BD0FE1" stroke-linecap="square"></path>
                <path d="M64.0963374,103.345415 L107.543711,103.345415" id="Line-Copy-158" stroke="#BD0FE1" stroke-linecap="square"></path>
                <path d="M64.7571597,98.4215586 L115.542691,98.4215587" id="Line-Copy-159" stroke="#4A4A4A" stroke-linecap="square"></path>
                <path d="M15.6059725,103.345415 L52.0121439,103.345415" id="Line-Copy-119" stroke="#F6A623" stroke-linecap="square"></path>
                <path d="M15.6216079,108.561527 L75.7479796,108.561527" id="Line-Copy-120" stroke="#4A4A4A" stroke-linecap="square"></path>
                <path d="M15.473464,113.631511 L115.802446,113.631511" id="Line-Copy-121" stroke="#E01E8A" stroke-linecap="square"></path>
            </g>
            <g id="Line-+-Line-+-Line-Copy-6" transform="translate(93.000000, 182.000000)" stroke="#2D2D2D" sketch:type="MSShapeGroup">
                <path d="M0.5,15 L64.5,15" id="Line" stroke-width="4" stroke-linecap="round" stroke-linejoin="round"></path>
                <g id="Line-+-Line-Copy-4" transform="translate(20.000000, 0.000000)" stroke-width="5" stroke-linecap="square">
                    <path d="M2.5,0.216418907 L2.5,10.8497522" id="Line"></path>
                    <path d="M22.5,0.216418907 L22.5,10.8497522" id="Line-Copy-4"></path>
                </g>
            </g>
        </g>
    </g>
</svg>