<?xml version="1.0" encoding="UTF-8" standalone="no"?>
<svg width="451px" height="443px" viewBox="0 0 451 443" version="1.1" xmlns="http://www.w3.org/2000/svg" xmlns:xlink="http://www.w3.org/1999/xlink" xmlns:sketch="http://www.bohemiancoding.com/sketch/ns">
    <!-- Generator: Sketch 3.3 (11970) - http://www.bohemiancoding.com/sketch -->
    <title>Oval 87 + Path 608 Copy 2 + Oval 87 + Path 608 Copy 2</title>
    <desc>Created with Sketch.</desc>
    <defs></defs>
    <g id="Page-1" stroke="none" stroke-width="1" fill="none" fill-rule="evenodd" sketch:type="MSPage">
        <g id="03-Secure-and-Trusted" sketch:type="MSArtboardGroup" transform="translate(-856.000000, -394.000000)" stroke="#ffffff" stroke-width="7" stroke-linecap="round" stroke-linejoin="round">
            <g id="Oval-87-+-Path-608-Copy-2-+-Oval-87-+-Path-608-Copy-2" sketch:type="MSLayerGroup" transform="translate(859.000000, 398.000000)">
                <g id="Oval-87-+-Path-608-Copy-2" transform="translate(0.551204, 0.368552)" sketch:type="MSShapeGroup">
                    <path d="M430.700614,161.178961 C407.085976,68.5164989 323.199533,2.7000624e-13 223.337138,2.7000624e-13 C127.074307,2.7000624e-13 45.6564694,63.6661342 18.7600993,151.255037" id="Oval-87"></path>
                    <path d="M0.526760641,130.310873 L16.1085571,155.825238 L50.6359491,144.010084" id="Path-608-Copy-2"></path>
                </g>
                <g id="Oval-87-+-Path-608-Copy-2" transform="translate(228.907250, 354.410519) rotate(-180.000000) translate(-228.907250, -354.410519) translate(13.166108, 273.821039)" sketch:type="MSShapeGroup">
                    <path d="M430.992698,161.136451 C407.367194,68.4984278 323.442152,2.55795385e-13 223.533808,2.55795385e-13 C127.226683,2.55795385e-13 45.7713831,63.6493425 18.8626373,151.215144" id="Oval-87"></path>
                    <path d="M0.693961646,129.977812 L16.2757581,155.492178 L50.8031501,143.677024" id="Path-608-Copy-2"></path>
                </g>
            </g>
        </g>
    </g>
</svg>