<?xml version="1.0" encoding="UTF-8" standalone="no"?>
<svg width="93px" height="114px" viewBox="0 0 93 114" version="1.1" xmlns="http://www.w3.org/2000/svg" xmlns:xlink="http://www.w3.org/1999/xlink" xmlns:sketch="http://www.bohemiancoding.com/sketch/ns">
    <!-- Generator: Sketch 3.3 (11970) - http://www.bohemiancoding.com/sketch -->
    <title>Group + Oval 84 Copy</title>
    <desc>Created with Sketch.</desc>
    <defs></defs>
    <g id="Page-1" stroke="none" stroke-width="1" fill="none" fill-rule="evenodd" sketch:type="MSPage">
        <g id="Group-+-Oval-84-Copy" sketch:type="MSLayerGroup">
            <circle id="Oval-84-Copy" fill="#86E9D9" sketch:type="MSShapeGroup" cx="43.5" cy="57.5" r="43.5"></circle>
            <g id="Group" fill="#000000" sketch:type="MSShapeGroup">
                <path d="M44.9275362,72.1921488 C34.5125165,72.1921488 18.3794466,57.3314345 18.3794466,37.5850059 L22.4637681,37.5850059 C22.4637681,55.2957202 37.1673254,68.1207202 44.9275362,68.1207202 C52.687747,68.1207202 67.3913043,55.2957202 67.3913043,37.5850059 L71.4756258,37.5850059 C71.4756258,46.5421488 68.0039526,55.2957202 61.8774704,62.4207202 C56.5678524,68.3242916 50.0329381,72.1921488 44.9275362,72.1921488 L44.9275362,72.1921488 Z" id="Shape"></path>
                <path d="M81.6367206,113.517149 L10.569527,113.517149 C7.50628586,113.517149 4.64726082,112.092149 2.60510008,109.44572 C0.154507199,106.188577 -0.662357096,101.913577 0.562939346,97.6385773 L0.76715542,97.2314345 L4.0346126,90.9207202 C4.23882867,90.5135773 4.44304475,90.1064345 4.44304475,89.6992916 L4.64726082,89.2921488 C6.07677334,85.8314345 9.14001445,83.3885773 13.0201198,82.5742916 L32.2164308,78.502863 C34.6670237,77.8921488 36.3007523,75.4492916 35.8923201,72.802863 L34.8712397,66.8992916 L38.9555612,66.2885773 L39.9766416,72.1921488 C40.7935059,76.8742916 37.9344808,81.1492916 33.4417272,82.3707202 L31.6037826,82.9814345 L13.6327681,86.6457202 C11.1821752,87.2564345 9.14001445,88.6814345 8.32315015,90.9207202 L8.11893408,91.1242916 C7.914718,91.7350059 7.71050193,92.3457202 7.30206978,92.752863 L4.0346126,98.8600059 C3.21774831,101.710006 3.83039653,104.763577 5.46412512,106.799292 C6.68942156,108.427863 8.32315015,109.44572 10.1610948,109.44572 L81.2282885,109.44572 C83.0662332,109.44572 84.6999617,108.631434 85.9252582,106.799292 C87.5589868,104.560006 88.171635,101.710006 87.3547707,98.8600059 L83.2704492,91.5314345 C82.4535849,88.8850059 80.2072081,87.052863 77.5523992,86.4421488 L57.5392239,82.5742916 L56.7223596,82.1671488 C53.0464703,80.7421488 50.8000935,77.077863 51.4127417,73.2100059 L52.6380382,66.0850059 L56.7223596,66.6957202 L55.4970632,73.8207202 C55.088631,75.652863 56.3139275,77.6885773 58.1518722,78.2992916 L58.9687364,78.502863 L78.5734795,82.1671488 C82.8620171,82.9814345 86.3336903,86.0350059 87.5589868,89.902863 L91.6433083,97.2314345 C92.8686047,101.302863 92.0517404,105.781434 89.6011475,109.038577 C87.5589868,112.092149 84.6999617,113.517149 81.6367206,113.517149 L81.6367206,113.517149 Z" id="Shape"></path>
                <path d="M45.3359684,95.8064345 C31.6534914,95.8064345 20.2173913,91.5314345 12.2529644,85.627863 L14.7035573,82.3707202 C27.9776021,91.9385773 51.8708827,97.2314345 79.2358366,82.5742916 L81.0737813,86.2385773 C68.4123847,92.9564345 56.1594203,95.8064345 45.3359684,95.8064345 L45.3359684,95.8064345 Z" id="Shape"></path>
                <path d="M76.2406675,57.3314345 L61.9455424,62.0135773 L62.9666227,42.4707202 C60.5160299,49.5957202 55.8190602,55.2957202 55.8190602,55.2957202 C55.8190602,55.2957202 56.2274923,48.7814345 55.8190602,43.0814345 C55.6148441,38.8064345 54.5937637,34.9385773 53.1642512,30.2564345 C46.2209047,32.902863 37.2353975,34.9385773 31.3131313,30.8671488 L25.1866491,36.9742916 L29.2709706,60.9957202 L17.0180061,61.402863 C17.0180061,61.402863 10.8915239,38.3992916 17.0180061,22.3171488 C21.9191919,9.49214876 31.9257795,0.94214876 44.178744,0.94214876 C56.4317084,0.94214876 72.9732104,5.62429162 76.2406675,18.652863 C78.6912604,29.0350059 76.2406675,57.3314345 76.2406675,57.3314345 L76.2406675,57.3314345 Z M51.7347387,24.7600059 C51.7347387,25.5742916 52.9600351,26.1850059 53.5726834,25.777863 L58.4738691,22.927863 C58.8823013,22.7242916 59.2907334,22.7242916 59.6991656,22.927863 L64.3961353,25.777863 C65.2129996,26.1850059 66.0298639,25.777863 66.0298639,24.7600059 L66.0298639,18.8564345 C66.0298639,18.0421488 65.2129996,17.4314345 64.3961353,17.8385773 L59.6991656,20.6885773 C59.2907334,20.8921488 58.8823013,20.8921488 58.4738691,20.6885773 L53.5726834,17.8385773 C52.7558191,17.4314345 51.7347387,17.8385773 51.7347387,18.8564345 L51.7347387,24.7600059 L51.7347387,24.7600059 Z" id="Shape"></path>
            </g>
        </g>
    </g>
</svg>