<?xml version="1.0" encoding="UTF-8" standalone="no"?>
<svg width="386px" height="47px" viewBox="0 0 386 47" version="1.1" xmlns="http://www.w3.org/2000/svg" xmlns:xlink="http://www.w3.org/1999/xlink" xmlns:sketch="http://www.bohemiancoding.com/sketch/ns">
    <!-- Generator: Sketch 3.3.2 (12043) - http://www.bohemiancoding.com/sketch -->
    <title>futureslogo</title>
    <desc>Created with Sketch.</desc>
    <defs></defs>
    <g id="Page-1" stroke="none" stroke-width="1" fill="none" fill-rule="evenodd" sketch:type="MSPage">
        <g id="futureslogo" sketch:type="MSLayerGroup" fill="#919191">
            <g id="Group" sketch:type="MSShapeGroup">
                <g id="Shape">
                    <path d="M75,2.5 L54.1,2.5 L54.1,45.2 L74.6,45.2 C87.8,45.1 97,35.8 97,23.8 C97,12 88,2.9 75,2.5 L75,2.5 Z M74.6,37.9 L74.6,37.9 L61.8,37.9 L61.8,9.9 L74.7,9.9 C83.1,10.1 88.6,16 88.6,24 C88.6,32 83.1,37.7 74.6,37.9 L74.6,37.9 Z"></path>
                    <path d="M42.9,10 L42.9,2.5 L0.1,2.5 L0.1,10 L17.7,10 L17.7,37.7 L0.1,37.7 L0.1,45.2 L42.9,45.2 L42.9,37.7 L25.3,37.7 L25.3,10 L42.9,10 Z"></path>
                    <path d="M149.4,10 L149.4,2.5 L106.3,2.5 L106.3,45.2 L149.4,45.2 L149.4,37.8 L114.1,37.8 L114.1,27.6 L141.6,27.6 L141.6,20.1 L114.1,20.1 L114.1,10 L149.4,10 Z"></path>
                    <path d="M179.7,0.6 C166.7,0.6 156.2,11 156.2,23.8 C156.2,36.6 166.7,47 179.7,47 C192.7,47 203.2,36.6 203.2,23.8 C203.2,11 192.7,0.6 179.7,0.6 L179.7,0.6 Z M179.7,39.1 C171.2,39.1 164.3,32.3 164.3,23.9 C164.3,15.5 171.2,8.7 179.7,8.7 C188.2,8.7 195.1,15.5 195.1,23.9 C195.1,32.3 188.2,39.1 179.7,39.1 L179.7,39.1 Z"></path>
                </g>
                <g transform="translate(214.000000, 2.000000)">
                    <g id="Shape">
                        <path d="M163.3,36.5 L163.3,41.2 L2.4,41.2 L2.4,8.6 L7.1,8.6 L7.1,6.4 L0.2,6.4 L0.2,43.4 L165.5,43.4 L165.5,36.5 L163.3,36.5 Z"></path>
                        <path d="M169.1,2.7 L169.1,35.4 L8.2,35.4 L8.2,2.7 L169.1,2.7 L169.1,2.7 Z M171.3,0.5 L6,0.5 L6,37.5 L171.3,37.5 L171.3,0.5 L171.3,0.5 Z"></path>
                    </g>
                    <g transform="translate(15.000000, 9.000000)">
                        <path d="M16.5,12.6 L16.5,0.7 L20.7,0.7 L20.7,12.3 C20.7,14.6 22,15.7 23.9,15.7 C25.9,15.7 27.1,14.6 27.1,12.3 L27.1,0.7 L31.3,0.7 L31.3,12.6 C31.3,17.3 28,19.7 23.9,19.7 C19.8,19.7 16.5,17.3 16.5,12.6 L16.5,12.6 Z" id="Shape"></path>
                        <path d="M45.8,4.6 L45.8,19.3 L41.6,19.3 L41.6,4.6 L35.9,4.6 L35.9,0.6 L51.5,0.6 L51.5,4.6 L45.8,4.6 L45.8,4.6 Z" id="Shape"></path>
                        <path d="M56.1,12.6 L56.1,0.7 L60.3,0.7 L60.3,12.3 C60.3,14.6 61.6,15.7 63.5,15.7 C65.5,15.7 66.7,14.6 66.7,12.3 L66.7,0.7 L70.9,0.7 L70.9,12.6 C70.9,17.3 67.6,19.7 63.5,19.7 C59.4,19.7 56.1,17.3 56.1,12.6 L56.1,12.6 Z" id="Shape"></path>
                        <path d="M82.8,12.4 L81.3,12.4 L81.3,19.3 L77.1,19.3 L77.1,0.7 L84.5,0.7 C88.2,0.7 90.5,3.2 90.5,6.5 C90.5,9 89.1,10.9 86.8,11.8 L90.6,19.3 L86,19.3 L82.8,12.4 L82.8,12.4 Z M83.7,8.8 C85.4,8.8 86.3,7.9 86.3,6.5 C86.3,5.1 85.4,4.2 83.7,4.2 L81.3,4.2 L81.3,8.7 L83.7,8.8 L83.7,8.8 Z" id="Shape"></path>
                        <path d="M96.4,19.3 L96.4,0.7 L108,0.7 L108,4.6 L100.5,4.6 L100.5,8.1 L107.4,8.1 L107.4,11.8 L100.5,11.8 L100.5,15.4 L108,15.4 L108,19.3 L96.4,19.3 L96.4,19.3 Z" id="Shape"></path>
                        <circle id="Oval" cx="133.4" cy="17" r="2.3"></circle>
                        <path d="M0.3,19.3 L0.3,0.7 L12,0.7 L12,4.6 L4.4,4.6 L4.4,8.5 L9.6,8.5 L9.6,12.2 L4.4,12.2 L4.4,19.3 L0.3,19.3 L0.3,19.3 Z M124.4,6.3 C124.3,5.4 123.6,4 121.3,4 C119.7,4 118.8,5 118.8,6 C118.8,6.9 119.4,7.6 120.6,7.8 L123.1,8.3 C126.6,9 128.5,11.2 128.5,13.9 C128.5,16.8 126.1,19.8 121.6,19.8 C116.5,19.8 114.2,16.5 114,13.8 L117.8,12.9 C118,14.6 119.1,16.1 121.7,16.1 C123.3,16.1 124.3,15.3 124.3,14.2 C124.3,13.3 123.5,12.6 122.3,12.3 L119.8,11.8 C116.6,11.2 114.7,9.1 114.7,6.3 C114.7,2.8 117.8,0.3 121.4,0.3 C126.1,0.3 127.8,3.1 128.2,5.3 L124.4,6.3 Z" id="Shape"></path>
                    </g>
                </g>
            </g>
        </g>
    </g>
</svg>