<?xml version="1.0" encoding="utf-8"?>
<!-- Generator: Adobe Illustrator 18.1.1, SVG Export Plug-In . SVG Version: 6.00 Build 0)  -->
<svg version="1.1" id="Layer_1" xmlns="http://www.w3.org/2000/svg" xmlns:xlink="http://www.w3.org/1999/xlink" x="0px" y="0px"
	 viewBox="109.2 372.6 390.1 46.4" enable-background="new 109.2 372.6 390.1 46.4" xml:space="preserve">
<g>
	<g>
		<path fill="#FFFFFF" d="M189,374.5h-20.9v42.7h20.5c13.2-0.1,22.4-9.4,22.4-21.4C211,384,202,374.9,189,374.5z M188.6,409.9
			L188.6,409.9h-12.8v-28h12.9c8.4,0.2,13.9,6.1,13.9,14.1C202.6,404,197.1,409.7,188.6,409.9z"/>
		<polygon fill="#FFFFFF" points="156.9,382 156.9,374.5 114.1,374.5 114.1,382 131.7,382 131.7,409.7 114.1,409.7 114.1,417.2 
			156.9,417.2 156.9,409.7 139.3,409.7 139.3,382 		"/>
		<polygon fill="#FFFFFF" points="263.4,382 263.4,374.5 220.3,374.5 220.3,417.2 263.4,417.2 263.4,409.8 228.1,409.8 228.1,399.6 
			255.6,399.6 255.6,392.1 228.1,392.1 228.1,382 		"/>
		<path fill="#FFFFFF" d="M293.7,372.6c-13,0-23.5,10.4-23.5,23.2c0,12.8,10.5,23.2,23.5,23.2s23.5-10.4,23.5-23.2
			S306.7,372.6,293.7,372.6z M293.7,411.1c-8.5,0-15.4-6.8-15.4-15.2c0-8.4,6.9-15.2,15.4-15.2s15.4,6.8,15.4,15.2
			C309.1,404.3,302.2,411.1,293.7,411.1z"/>
	</g>
	<g>
		<g>
			<polygon fill="#FFFFFF" points="491.3,410.5 491.3,415.2 330.4,415.2 330.4,382.6 335.1,382.6 335.1,380.4 328.2,380.4 
				328.2,417.4 493.5,417.4 493.5,410.5 			"/>
			<g>
				<path fill="#FFFFFF" d="M497.1,376.7v32.7H336.2v-32.7H497.1 M499.3,374.5H334v37h165.3V374.5L499.3,374.5z"/>
			</g>
		</g>
		<g>
			<g>
				<path fill="#FFFFFF" d="M359.5,395.6v-11.9h4.2v11.6c0,2.3,1.3,3.4,3.2,3.4c2,0,3.2-1.1,3.2-3.4v-11.6h4.2v11.9
					c0,4.7-3.3,7.1-7.4,7.1C362.8,402.7,359.5,400.3,359.5,395.6z"/>
			</g>
			<g>
				<path fill="#FFFFFF" d="M388.8,387.6v14.7h-4.2v-14.7h-5.7v-4h15.6v4H388.8z"/>
			</g>
			<g>
				<path fill="#FFFFFF" d="M399.1,395.6v-11.9h4.2v11.6c0,2.3,1.3,3.4,3.2,3.4c2,0,3.2-1.1,3.2-3.4v-11.6h4.2v11.9
					c0,4.7-3.3,7.1-7.4,7.1C402.4,402.7,399.1,400.3,399.1,395.6z"/>
			</g>
			<g>
				<path fill="#FFFFFF" d="M425.8,395.4h-1.5v6.9h-4.2v-18.6h7.4c3.7,0,6,2.5,6,5.8c0,2.5-1.4,4.4-3.7,5.3l3.8,7.5H429L425.8,395.4
					z M426.7,391.8c1.7,0,2.6-0.9,2.6-2.3s-0.9-2.3-2.6-2.3h-2.4v4.5L426.7,391.8L426.7,391.8z"/>
			</g>
			<g>
				<path fill="#FFFFFF" d="M439.4,402.3v-18.6H451v3.9h-7.5v3.5h6.9v3.7h-6.9v3.6h7.5v3.9H439.4z"/>
			</g>
			<g>
				<path fill="#FFFFFF" d="M467.4,389.3c-0.1-0.9-0.8-2.3-3.1-2.3c-1.6,0-2.5,1-2.5,2c0,0.9,0.6,1.6,1.8,1.8l2.5,0.5
					c3.5,0.7,5.4,2.9,5.4,5.6c0,2.9-2.4,5.9-6.9,5.9c-5.1,0-7.4-3.3-7.6-6l3.8-0.9c0.2,1.7,1.3,3.2,3.9,3.2c1.6,0,2.6-0.8,2.6-1.9
					c0-0.9-0.8-1.6-2-1.9l-2.5-0.5c-3.2-0.6-5.1-2.7-5.1-5.5c0-3.5,3.1-6,6.7-6c4.7,0,6.4,2.8,6.8,5L467.4,389.3z"/>
			</g>
			<g>
				<circle fill="#FFFFFF" cx="476.4" cy="400" r="2.3"/>
			</g>
			<g>
				<g>
					<path fill="#FFFFFF" d="M343.3,402.3v-18.6H355v3.9h-7.6v3.9h5.2v3.7h-5.2v7.1H343.3z"/>
				</g>
			</g>
		</g>
	</g>
</g>
</svg>
