<?xml version="1.0" encoding="UTF-8" standalone="no"?>
<svg width="91px" height="103px" viewBox="0 0 91 103" version="1.1" xmlns="http://www.w3.org/2000/svg" xmlns:xlink="http://www.w3.org/1999/xlink" xmlns:sketch="http://www.bohemiancoding.com/sketch/ns">
    <!-- Generator: Sketch 3.3 (11970) - http://www.bohemiancoding.com/sketch -->
    <title>Polygon 11 + noun_104636_cc copy 11</title>
    <desc>Created with Sketch.</desc>
    <defs></defs>
    <g id="Page-1" stroke="none" stroke-width="1" fill="none" fill-rule="evenodd" sketch:type="MSPage">
        <g id="Polygon-11-+-noun_104636_cc-copy-11" sketch:type="MSLayerGroup" transform="translate(-6.000000, 0.000000)">
            <polygon id="Polygon-11" fill="#FF9999" sketch:type="MSShapeGroup" points="51.5 0 96.1003083 25.75 96.1003083 77.25 51.5 103 6.89969171 77.25 6.89969171 25.75 "></polygon>
            <g id="noun_104636_cc-copy-6" transform="translate(36.017007, 31.427644)" fill="#FFFFFF" sketch:type="MSShapeGroup">
                <g id="Group" transform="translate(0.556818, 1.095213)">
                    <path d="M16.2062217,35.0022094 C11.2167919,35.0022094 3.48806734,27.8282747 3.48806734,18.2957862 C3.48806734,9.35293615 8.47749712,3.55482457 16.2062217,3.55482457 C23.9349462,3.55482457 28.924376,9.35293615 28.924376,18.2957862 C28.924376,22.6198016 27.2612328,26.845544 24.3262741,30.2851017 C21.7826432,33.1350209 18.6520206,35.0022094 16.2062217,35.0022094 L16.2062217,35.0022094 Z M16.2062217,5.52028612 C9.55364864,5.52028612 5.44470647,10.43394 5.44470647,18.2957862 C5.44470647,26.845544 12.4886073,33.0367479 16.2062217,33.0367479 C19.923836,33.0367479 26.9677369,26.845544 26.9677369,18.2957862 C26.9677369,10.43394 22.8587947,5.52028612 16.2062217,5.52028612 L16.2062217,5.52028612 Z" id="Shape"></path>
                    <path d="M8.37966516,17.3130554 C12.6842712,20.7526132 19.1411804,20.2612478 19.1411804,20.2612478 C19.1411804,20.2612478 14.3474145,17.1165093 14.2495826,16.3303247 C14.1517506,15.54414 24.0327782,19.278517 24.0327782,19.278517 C24.0327782,19.278517 28.924376,18.7871516 28.924376,19.278517 C28.924376,19.7698824 28.924376,11.4166708 28.924376,11.4166708 C28.924376,11.4166708 27.1634008,7.28920152 25.9894173,5.52028612 C24.8154339,3.75137073 20.4129958,3.35827841 19.1411804,2.57209379 C17.8693649,1.78590917 12.2929434,1.58936302 12.2929434,1.58936302 L9.35798473,2.57209379 L5.44470647,6.5030169 L2.50974777,12.3994016 L3.48806734,16.3303247 L3.48806734,19.278517 L5.44470647,12.3994016 C5.44470647,12.3994016 4.07505908,13.8734977 8.37966516,17.3130554 Z" id="Shape"></path>
                    <path d="M28.2395523,24.0938978 L27.5547286,22.2267093 C28.3373843,21.9318901 29.6091997,21.2439785 30.0005276,20.6543401 C30.1961915,20.2612478 30.3918554,19.4750631 30.0983595,18.8854247 C29.8048636,18.0992401 28.924376,17.5096016 27.6525606,17.2147824 L28.1417204,15.3475939 C30.4896873,15.9372323 31.4680069,17.2147824 31.8593347,18.1975131 C32.4463265,19.5733362 32.1528306,20.9491593 31.6636708,21.7353439 C30.9788471,23.111167 28.7287121,23.9956247 28.2395523,24.0938978 L28.2395523,24.0938978 Z" id="Shape"></path>
                    <path d="M4.17289103,24.0938978 C3.78156321,23.8973516 1.53142821,23.111167 0.748772556,21.7353439 C0.259612774,20.9491593 -0.0338830956,19.5733362 0.553108643,18.1975131 C0.944436469,17.2147824 1.92275603,16.0355054 4.27072299,15.3475939 L4.75988277,17.2147824 C3.48806734,17.5096016 2.70541169,18.0992401 2.31408386,18.8854247 C2.02058799,19.5733362 2.11841995,20.2612478 2.41191582,20.6543401 C2.70541169,21.2439785 3.97722712,21.9318901 4.85771473,22.2267093 L4.17289103,24.0938978 L4.17289103,24.0938978 Z" id="Shape"></path>
                    <path d="M16.4018856,29.7937363 C13.5647589,29.7937363 11.7059517,27.9265478 11.6081197,27.8282747 L12.9777671,26.4524517 C13.0755991,26.5507247 15.3257341,28.8110055 18.7498526,27.2386363 L19.5325082,29.0075517 C18.3585247,29.5971901 17.2823732,29.7937363 16.4018856,29.7937363 L16.4018856,29.7937363 Z" id="Shape"></path>
                </g>
            </g>
        </g>
    </g>
</svg>