<?xml version="1.0" encoding="UTF-8" standalone="no"?>
<svg width="246px" height="286px" viewBox="0 0 246 286" version="1.1" xmlns="http://www.w3.org/2000/svg" xmlns:xlink="http://www.w3.org/1999/xlink" xmlns:sketch="http://www.bohemiancoding.com/sketch/ns">
    <!-- Generator: Sketch 3.3 (11970) - http://www.bohemiancoding.com/sketch -->
    <title>HomeRepair2-Thermo</title>
    <desc>Created with Sketch.</desc>
    <defs>
        <filter x="-50%" y="-50%" width="200%" height="200%" filterUnits="objectBoundingBox" id="filter-1">
            <feOffset dx="1" dy="1" in="SourceAlpha" result="shadowOffsetOuter1"></feOffset>
            <feGaussianBlur stdDeviation="1" in="shadowOffsetOuter1" result="shadowBlurOuter1"></feGaussianBlur>
            <feColorMatrix values="0 0 0 0 0   0 0 0 0 0   0 0 0 0 0  0 0 0 0.175 0" in="shadowBlurOuter1" type="matrix" result="shadowMatrixOuter1"></feColorMatrix>
            <feMerge>
                <feMergeNode in="shadowMatrixOuter1"></feMergeNode>
                <feMergeNode in="SourceGraphic"></feMergeNode>
            </feMerge>
        </filter>
    </defs>
    <g id="Page-1" stroke="none" stroke-width="1" fill="none" fill-rule="evenodd" sketch:type="MSPage">
        <polygon id="Polygon-1-Copy-15" opacity="0" fill="#ECECEC" sketch:type="MSShapeGroup" points="123.052011 0.147488558 245.617991 71.3809657 245.617991 213.84792 123.052011 285.081397 0.486031694 213.84792 0.486031694 71.3809657 "></polygon>
        <path d="M123,195 C152.823376,195 177,170.823376 177,141 C177,111.176624 152.823376,87 123,87 C93.1766235,87 69,111.176624 69,141 C69,170.823376 93.1766235,195 123,195 Z" id="Oval-278" opacity="0.66744403" fill="#A659B5" sketch:type="MSShapeGroup"></path>
        <path d="M126.929687,145.826205 L118.735571,145.826205 L122.832629,153.082521 L126.929687,145.826205 L126.929687,145.826205 Z M122.832629,133.899224 L118.735571,141.15554 L126.929687,141.15554 L122.832629,133.899224 L122.832629,133.899224 Z M158.47539,141.510703 C158.47539,121.942426 142.616152,106.081809 123.050633,106.081809 C103.486493,106.081809 87.6286325,121.942426 87.6286325,141.510703 C87.6286325,151.942889 92.2214968,161.226514 99.4037933,167.71664 L104.513717,162.088279 C98.9336142,157.018341 95.3624589,149.782271 95.3624589,141.647206 C95.3624589,126.357422 107.758091,113.96179 123.050633,113.96179 C138.336281,113.96179 150.731912,126.357422 150.731912,141.647206 C150.731912,149.776755 147.167651,157.014205 141.593064,162.081385 L146.701608,167.704231 C153.881147,161.219619 158.47539,151.937373 158.47539,141.510703 L158.47539,141.510703 Z M162.679426,141.652722 C162.679426,163.533287 144.94085,181.277379 123.052011,181.277379 C101.165931,181.277379 83.4301121,163.533287 83.4301121,141.652722 C83.4301121,119.761126 101.165931,102.017034 123.052011,102.017034 C144.94085,102.017034 162.679426,119.761126 162.679426,141.652722 L162.679426,141.652722 Z M123.052011,81.8917124 C90.0484694,81.8917124 63.2937598,108.642286 63.2937598,141.647206 C63.2937598,174.653506 90.0484694,201.409595 123.052011,201.409595 C156.05969,201.409595 182.810263,174.653506 182.810263,141.647206 C182.810263,108.642286 156.061069,81.8917124 123.052011,81.8917124 Z" id="Shape" fill="#2E2E2E" filter="url(#filter-1)" sketch:type="MSShapeGroup"></path>
    </g>
</svg>