<?xml version="1.0" encoding="UTF-8" standalone="no"?>
<svg width="103px" height="12px" viewBox="0 0 103 12" version="1.1" xmlns="http://www.w3.org/2000/svg" xmlns:xlink="http://www.w3.org/1999/xlink" xmlns:sketch="http://www.bohemiancoding.com/sketch/ns">
    <!-- Generator: Sketch 3.3.2 (12043) - http://www.bohemiancoding.com/sketch -->
    <title>MEET BITCOIN</title>
    <desc>Created with Sketch.</desc>
    <defs></defs>
    <g id="Page-1" stroke="none" stroke-width="1" fill="none" fill-rule="evenodd" sketch:type="MSPage">
        <path d="M0.83868223,11.3111111 C0.808126674,11.5097222 0.945626674,11.6472222 1.12896001,11.6472222 L2.93173779,11.6472222 C3.08451556,11.6472222 3.20673779,11.525 3.22201556,11.4027778 L3.89423779,6.68194444 L3.92479334,6.68194444 L6.50673779,11.6319444 C6.55257112,11.7236111 6.67479334,11.8 6.76646001,11.8 L7.04146001,11.8 C7.1178489,11.8 7.2553489,11.7236111 7.30118223,11.6319444 L9.8678489,6.68194444 L9.89840445,6.68194444 L10.5859045,11.4027778 C10.6011822,11.525 10.7386822,11.6472222 10.8761822,11.6472222 L12.67896,11.6472222 C12.8622933,11.6472222 12.9997933,11.5097222 12.9692378,11.3111111 L11.2428489,1.04444444 C11.2275711,0.906944444 11.0900711,0.8 10.9678489,0.8 L10.7234045,0.8 C10.6470156,0.8 10.5095156,0.861111111 10.4636822,0.952777778 L6.91923779,7.55277778 L6.88868223,7.55277778 L3.34423779,0.952777778 C3.29840445,0.861111111 3.16090445,0.8 3.08451556,0.8 L2.84007112,0.8 C2.7178489,0.8 2.5803489,0.906944444 2.56507112,1.04444444 L0.83868223,11.3111111 Z M14.9247933,11.3569444 C14.9247933,11.5097222 15.0470156,11.6472222 15.2150711,11.6472222 L21.5400711,11.6472222 C21.7081267,11.6472222 21.8303489,11.5097222 21.8303489,11.3569444 L21.8303489,9.69166667 C21.8303489,9.53888889 21.7081267,9.40138889 21.5400711,9.40138889 L17.3081267,9.40138889 L17.3081267,7.33888889 L20.79146,7.33888889 C20.9442378,7.33888889 21.0817378,7.21666667 21.0817378,7.04861111 L21.0817378,5.38333333 C21.0817378,5.23055556 20.9442378,5.09305556 20.79146,5.09305556 L17.3081267,5.09305556 L17.3081267,3.19861111 L21.5400711,3.19861111 C21.7081267,3.19861111 21.8303489,3.06111111 21.8303489,2.90833333 L21.8303489,1.24305556 C21.8303489,1.09027778 21.7081267,0.952777778 21.5400711,0.952777778 L15.2150711,0.952777778 C15.0470156,0.952777778 14.9247933,1.09027778 14.9247933,1.24305556 L14.9247933,11.3569444 Z M23.8775711,11.3569444 C23.8775711,11.5097222 23.9997933,11.6472222 24.1678489,11.6472222 L30.4928489,11.6472222 C30.6609045,11.6472222 30.7831267,11.5097222 30.7831267,11.3569444 L30.7831267,9.69166667 C30.7831267,9.53888889 30.6609045,9.40138889 30.4928489,9.40138889 L26.2609045,9.40138889 L26.2609045,7.33888889 L29.7442378,7.33888889 C29.8970156,7.33888889 30.0345156,7.21666667 30.0345156,7.04861111 L30.0345156,5.38333333 C30.0345156,5.23055556 29.8970156,5.09305556 29.7442378,5.09305556 L26.2609045,5.09305556 L26.2609045,3.19861111 L30.4928489,3.19861111 C30.6609045,3.19861111 30.7831267,3.06111111 30.7831267,2.90833333 L30.7831267,1.24305556 C30.7831267,1.09027778 30.6609045,0.952777778 30.4928489,0.952777778 L24.1678489,0.952777778 C23.9997933,0.952777778 23.8775711,1.09027778 23.8775711,1.24305556 L23.8775711,11.3569444 Z M34.2053489,11.3569444 C34.2053489,11.5097222 34.3428489,11.6472222 34.4956267,11.6472222 L36.32896,11.6472222 C36.4817378,11.6472222 36.6192378,11.5097222 36.6192378,11.3569444 L36.6192378,3.19861111 L38.80396,3.19861111 C38.9720156,3.19861111 39.0942378,3.06111111 39.0942378,2.90833333 L39.0942378,1.24305556 C39.0942378,1.09027778 38.9720156,0.952777778 38.80396,0.952777778 L32.0206267,0.952777778 C31.8525711,0.952777778 31.7303489,1.09027778 31.7303489,1.24305556 L31.7303489,2.90833333 C31.7303489,3.06111111 31.8525711,3.19861111 32.0206267,3.19861111 L34.2053489,3.19861111 L34.2053489,11.3569444 Z M43.9984045,11.3569444 C43.9984045,11.5097222 44.1206267,11.6472222 44.2886822,11.6472222 L48.0775711,11.6472222 C49.8956267,11.6472222 51.4081267,10.4097222 51.4081267,8.69861111 C51.4081267,7.29305556 50.1706267,6.54444444 49.3609045,6.20833333 C50.07896,5.82638889 51.1331267,4.97083333 51.1331267,3.79444444 C51.1331267,2.19027778 49.6511822,0.952777778 47.8484045,0.952777778 L44.2886822,0.952777778 C44.1206267,0.952777778 43.9984045,1.09027778 43.9984045,1.24305556 L43.9984045,11.3569444 Z M46.3817378,5.29166667 L46.3817378,3.15277778 L47.5734045,3.15277778 C48.15396,3.15277778 48.6428489,3.58055556 48.6428489,4.19166667 C48.6428489,4.80277778 48.15396,5.29166667 47.5734045,5.29166667 L46.3817378,5.29166667 Z M46.3817378,9.4625 L46.3817378,7.27777778 L47.6192378,7.27777778 C48.2150711,7.27777778 48.8720156,7.73611111 48.8720156,8.34722222 C48.8720156,8.97361111 48.3678489,9.4625 47.7720156,9.4625 L46.3817378,9.4625 Z M53.3484045,11.3569444 C53.3484045,11.5097222 53.4859045,11.6472222 53.6386822,11.6472222 L55.4720156,11.6472222 C55.6247933,11.6472222 55.7622933,11.5097222 55.7622933,11.3569444 L55.7622933,1.24305556 C55.7622933,1.09027778 55.6247933,0.952777778 55.4720156,0.952777778 L53.6386822,0.952777778 C53.4859045,0.952777778 53.3484045,1.09027778 53.3484045,1.24305556 L53.3484045,11.3569444 Z M59.7650711,11.3569444 C59.7650711,11.5097222 59.9025711,11.6472222 60.0553489,11.6472222 L61.8886822,11.6472222 C62.04146,11.6472222 62.17896,11.5097222 62.17896,11.3569444 L62.17896,3.19861111 L64.3636822,3.19861111 C64.5317378,3.19861111 64.65396,3.06111111 64.65396,2.90833333 L64.65396,1.24305556 C64.65396,1.09027778 64.5317378,0.952777778 64.3636822,0.952777778 L57.5803489,0.952777778 C57.4122933,0.952777778 57.2900711,1.09027778 57.2900711,1.24305556 L57.2900711,2.90833333 C57.2900711,3.06111111 57.4122933,3.19861111 57.5803489,3.19861111 L59.7650711,3.19861111 L59.7650711,11.3569444 Z M65.34146,6.31527778 C65.34146,9.37083333 67.8011822,11.8 70.8567378,11.8 C72.21646,11.8 73.5303489,11.3263889 74.5692378,10.3180556 C74.6761822,10.2111111 74.69146,10.0125 74.5845156,9.90555556 L73.3928489,8.6375 C73.3011822,8.53055556 73.1025711,8.53055556 72.9956267,8.62222222 C72.4456267,9.09583333 71.66646,9.35555556 70.9484045,9.35555556 C69.2220156,9.35555556 67.9386822,7.95 67.9386822,6.25416667 C67.9386822,4.54305556 69.2067378,3.10694444 70.9331267,3.10694444 C71.6817378,3.10694444 72.4303489,3.38194444 72.9956267,3.88611111 C73.1025711,3.99305556 73.2706267,3.99305556 73.3775711,3.88611111 L74.5692378,2.64861111 C74.69146,2.52638889 74.69146,2.34305556 74.55396,2.22083333 C73.5150711,1.27361111 72.3845156,0.8 70.8567378,0.8 C67.8011822,0.8 65.34146,3.25972222 65.34146,6.31527778 L65.34146,6.31527778 Z M75.5775711,6.31527778 C75.5775711,9.37083333 78.0067378,11.8 81.0622933,11.8 C84.1178489,11.8 86.5622933,9.37083333 86.5622933,6.31527778 C86.5622933,3.25972222 84.1178489,0.8 81.0622933,0.8 C78.0067378,0.8 75.5775711,3.25972222 75.5775711,6.31527778 L75.5775711,6.31527778 Z M78.0220156,6.31527778 C78.0220156,4.63472222 79.3970156,3.24444444 81.0622933,3.24444444 C82.7428489,3.24444444 84.1178489,4.63472222 84.1178489,6.31527778 C84.1178489,7.98055556 82.7428489,9.35555556 81.0622933,9.35555556 C79.3970156,9.35555556 78.0220156,7.98055556 78.0220156,6.31527778 L78.0220156,6.31527778 Z M88.4109045,11.3569444 C88.4109045,11.5097222 88.5484045,11.6472222 88.7011822,11.6472222 L90.5345156,11.6472222 C90.6872933,11.6472222 90.8247933,11.5097222 90.8247933,11.3569444 L90.8247933,1.24305556 C90.8247933,1.09027778 90.6872933,0.952777778 90.5345156,0.952777778 L88.7011822,0.952777778 C88.5484045,0.952777778 88.4109045,1.09027778 88.4109045,1.24305556 L88.4109045,11.3569444 Z M93.4525711,11.3569444 C93.4525711,11.5097222 93.5900711,11.6472222 93.7428489,11.6472222 L95.5609045,11.6472222 C95.72896,11.6472222 95.8511822,11.5097222 95.8511822,11.3569444 L95.8511822,5.65833333 L95.86646,5.65833333 L101.901182,11.7236111 C101.931738,11.7541667 102.05396,11.8 102.099793,11.8 L102.344238,11.8 C102.497016,11.8 102.634516,11.6777778 102.634516,11.525 L102.634516,1.24305556 C102.634516,1.09027778 102.497016,0.952777778 102.344238,0.952777778 L100.510904,0.952777778 C100.342849,0.952777778 100.220627,1.09027778 100.220627,1.24305556 L100.220627,6.66666667 L100.205349,6.66666667 L94.1095156,0.8 L93.7275711,0.8 C93.5747933,0.8 93.4372933,0.922222222 93.4372933,1.075 L93.4525711,11.3569444 Z" id="MEET-BITCOIN" fill="#919191" sketch:type="MSShapeGroup"></path>
    </g>
</svg>