<?xml version="1.0" encoding="UTF-8" standalone="no"?>
<svg width="1480px" height="638px" viewBox="0 0 1480 638" version="1.1" xmlns="http://www.w3.org/2000/svg" xmlns:xlink="http://www.w3.org/1999/xlink" xmlns:sketch="http://www.bohemiancoding.com/sketch/ns">
    <!-- Generator: Sketch 3.3 (11970) - http://www.bohemiancoding.com/sketch -->
    <title>Group</title>
    <desc>Created with Sketch.</desc>
    <defs></defs>
    <g id="Page-1" stroke="none" stroke-width="1" fill="none" fill-rule="evenodd" sketch:type="MSPage">
        <g id="Group" sketch:type="MSLayerGroup" transform="translate(2.000000, 0.000000)">
            <rect id="Rectangle-30-Copy-12" stroke="#D3D3D3" stroke-width="4" sketch:type="MSShapeGroup" x="476" y="343" width="38.6131781" height="38.6131781" rx="3"></rect>
            <rect id="Rectangle-30-Copy" stroke="#D3D3D3" stroke-width="4" sketch:type="MSShapeGroup" x="476" y="286" width="38.6131781" height="38.6131781" rx="3"></rect>
            <rect id="Rectangle-30-Copy-13" stroke="#D3D3D3" stroke-width="4" sketch:type="MSShapeGroup" x="926" y="347" width="38.6131781" height="38.6131781" rx="3"></rect>
            <rect id="Rectangle-30-Copy-2" stroke="#D3D3D3" stroke-width="4" sketch:type="MSShapeGroup" x="476" y="397" width="38.6131781" height="38.6131781" rx="3"></rect>
            <rect id="Rectangle-30-Copy-3" stroke="#D3D3D3" stroke-width="4" sketch:type="MSShapeGroup" x="314" y="471" width="38.6131781" height="38.6131781" rx="3"></rect>
            <path d="M495,382.734375 L495,397.970607" id="Line-Copy-49" stroke="#D3D3D3" stroke-width="4" stroke-linecap="square" sketch:type="MSShapeGroup"></path>
            <path d="M494.333333,326 L494.333333,341.361261" id="Line-Copy-59" stroke="#D3D3D3" stroke-width="4" stroke-linecap="square" sketch:type="MSShapeGroup"></path>
            <path d="M589.65625,361 L515,361" id="Line-Copy" stroke="#D3D3D3" stroke-width="4" stroke-linecap="square" sketch:type="MSShapeGroup"></path>
            <path d="M926.999997,366 L845.845826,366" id="Line-Copy-56" stroke="#D3D3D3" stroke-width="4" stroke-linecap="square" sketch:type="MSShapeGroup"></path>
            <path d="M492.97142,436 L492.97142,492.049851 L352,492.049851" id="Line-Copy-50" stroke="#D3D3D3" stroke-width="4" stroke-linecap="square" sketch:type="MSShapeGroup"></path>
            <rect id="Rectangle-30-Copy-14" stroke="#D3D3D3" stroke-width="4" sketch:type="MSShapeGroup" x="1016" y="347" width="38.6131781" height="38.6131781" rx="3"></rect>
            <rect id="Rectangle-30-Copy-27" stroke="#D3D3D3" stroke-width="4" sketch:type="MSShapeGroup" x="1014" y="92" width="38.6131781" height="38.6131781" rx="3"></rect>
            <rect id="Rectangle-30-Copy-28" stroke="#D3D3D3" stroke-width="4" sketch:type="MSShapeGroup" x="1014" y="22" width="38.6131781" height="38.6131781" rx="3"></rect>
            <rect id="Rectangle-30-Copy-18" stroke="#D3D3D3" stroke-width="4" sketch:type="MSShapeGroup" x="1075" y="347" width="38.6131781" height="38.6131781" rx="3"></rect>
            <rect id="Rectangle-30-Copy-20" stroke="#D3D3D3" stroke-width="4" sketch:type="MSShapeGroup" x="1210" y="290" width="38.6131781" height="38.6131781" rx="3"></rect>
            <rect id="Rectangle-30-Copy-21" stroke="#D3D3D3" stroke-width="4" sketch:type="MSShapeGroup" x="1356" y="167" width="38.6131781" height="38.6131781" rx="3"></rect>
            <rect id="Rectangle-30-Copy-22" stroke="#D3D3D3" stroke-width="4" sketch:type="MSShapeGroup" x="1299" y="167" width="38.6131781" height="38.6131781" rx="3"></rect>
            <rect id="Rectangle-30-Copy-15" stroke="#D3D3D3" stroke-width="4" sketch:type="MSShapeGroup" x="1016" y="402" width="38.6131781" height="38.6131781" rx="3"></rect>
            <rect id="Rectangle-30-Copy-19" stroke="#D3D3D3" stroke-width="4" sketch:type="MSShapeGroup" x="1072" y="579" width="38.6131781" height="38.6131781" rx="3"></rect>
            <rect id="Rectangle-30-Copy-16" stroke="#D3D3D3" stroke-width="4" sketch:type="MSShapeGroup" x="925" y="402" width="38.6131781" height="38.6131781" rx="3"></rect>
            <rect id="Rectangle-30-Copy-7" stroke="#D3D3D3" stroke-width="4" sketch:type="MSShapeGroup" x="321" y="342" width="38.6131781" height="38.6131781" rx="3"></rect>
            <rect id="Rectangle-30-Copy-10" stroke="#D3D3D3" stroke-width="4" sketch:type="MSShapeGroup" x="320" y="285" width="38.6131781" height="38.6131781" rx="3"></rect>
            <rect id="Rectangle-30-Copy-8" stroke="#D3D3D3" stroke-width="4" sketch:type="MSShapeGroup" x="321" y="92" width="38.6131781" height="38.6131781" rx="3"></rect>
            <rect id="Rectangle-30-Copy-25" stroke="#D3D3D3" stroke-width="4" sketch:type="MSShapeGroup" x="1303" y="19" width="38.6131781" height="38.6131781" rx="3"></rect>
            <path d="M1015.67298,366 L966.705211,366" id="Line-Copy-57" stroke="#D4D4D4" stroke-width="4" stroke-linecap="square" sketch:type="MSShapeGroup"></path>
            <path d="M1074.16793,367 L1053,367" id="Line-Copy-58" stroke="#D4D4D4" stroke-width="4" stroke-linecap="square" sketch:type="MSShapeGroup"></path>
            <path d="M339.989015,322.769986 L339.989015,342.15617" id="Line-Copy-53" stroke="#D3D3D3" stroke-width="4" stroke-linecap="square" sketch:type="MSShapeGroup"></path>
            <path d="M338.989015,129.524894 L338.989015,284.281026" id="Line-Copy-54" stroke="#D4D4D4" stroke-width="4" stroke-linecap="square" sketch:type="MSShapeGroup"></path>
            <path d="M1099.27699,385 L1099.27699,420.852082 L1053,420.852082" id="Path-248" stroke="#D4D4D4" stroke-width="4" sketch:type="MSShapeGroup"></path>
            <path d="M1018.98245,419 L963,419" id="Path-249" stroke="#D4D4D4" stroke-width="4" sketch:type="MSShapeGroup"></path>
            <path d="M1477.51839,309 L1246,309" id="Path-249-Copy" stroke="#D4D4D4" stroke-width="4" sketch:type="MSShapeGroup"></path>
            <path d="M945,487 L945,598.600678 L1073.13274,598.600678" id="Path-251" stroke="#D4D4D4" stroke-width="4" sketch:type="MSShapeGroup"></path>
            <path d="M1109,595.668283 L1229.06587,595.668283 L1229.06587,327" id="Path-252" stroke="#D4D4D4" stroke-width="4" sketch:type="MSShapeGroup"></path>
            <path d="M1299.52951,292.203148 L1299.52951,187 L1229,187" id="Path-253" stroke="#D4D4D4" stroke-width="4" sketch:type="MSShapeGroup" transform="translate(1264.264757, 239.601574) scale(-1, 1) translate(-1264.264757, -239.601574) "></path>
            <path d="M1357.39172,185 L1338,185" id="Path-254" stroke="#D4D4D4" stroke-width="4" sketch:type="MSShapeGroup"></path>
            <path d="M332.989015,511.409021 L332.989015,519.691952" id="Line-Copy-2" stroke="#D3D3D3" stroke-width="4" stroke-linecap="square" sketch:type="MSShapeGroup"></path>
            <path d="M944,440 L944,450.831541" id="Path-250" stroke="#D4D4D4" stroke-width="4" sketch:type="MSShapeGroup"></path>
            <rect id="Rectangle-30-Copy-17" stroke="#D3D3D3" stroke-width="4" sketch:type="MSShapeGroup" x="925" y="451" width="38.6131781" height="38.6131781" rx="3"></rect>
            <rect id="Rectangle-30-Copy-4" stroke="#D3D3D3" stroke-width="4" sketch:type="MSShapeGroup" x="314" y="520" width="38.6131781" height="38.6131781" rx="3"></rect>
            <rect id="Rectangle-30-Copy-26" stroke="#D3D3D3" stroke-width="4" sketch:type="MSShapeGroup" x="475" y="599" width="38.6131781" height="38.6131781" rx="3"></rect>
            <rect id="Rectangle-30-Copy-5" stroke="#D3D3D3" stroke-width="4" sketch:type="MSShapeGroup" x="214" y="395" width="38.6131781" height="38.6131781" rx="3"></rect>
            <rect id="Rectangle-30-Copy-6" stroke="#D3D3D3" stroke-width="4" sketch:type="MSShapeGroup" x="214" y="346" width="38.6131781" height="38.6131781" rx="3"></rect>
            <rect id="Rectangle-30-Copy-9" stroke="#D3D3D3" stroke-width="4" sketch:type="MSShapeGroup" x="165" y="346" width="38.6131781" height="38.6131781" rx="3"></rect>
            <path d="M233.989015,386.409021 L233.989015,395.852447" id="Line-Copy-51" stroke="#D3D3D3" stroke-width="4" stroke-linecap="square" sketch:type="MSShapeGroup"></path>
            <path d="M315,539.203148 L234,539.203148 L234,434" id="Line-Copy-52" stroke="#D4D4D4" stroke-width="4" stroke-linecap="square" sketch:type="MSShapeGroup"></path>
            <path d="M253,364 L320.529514,364" id="Line-Copy-3" stroke="#D3D3D3" stroke-width="4" stroke-linecap="square" sketch:type="MSShapeGroup"></path>
            <path d="M0.613745183,367 L164.936289,367" id="Line-Copy-55" stroke="#D4D4D4" stroke-width="4" stroke-linecap="square" sketch:type="MSShapeGroup"></path>
            <path d="M322.97142,111 L182,111 L182,346.108591" id="Path-243" stroke="#D4D4D4" stroke-width="4" sketch:type="MSShapeGroup"></path>
            <rect id="Rectangle-30-Copy-11" stroke="#D3D3D3" stroke-width="4" sketch:type="MSShapeGroup" x="61" y="0" width="38.6131781" height="38.6131781" rx="3"></rect>
            <g id="Line-+-Line-+-Line-Copy-5-+-Rectangle-30-Copy-Copy-Copy-Copy-Copy" transform="translate(591.000000, 271.000000)" stroke="#4A4A4A" sketch:type="MSShapeGroup">
                <g id="Line-+-Line-+-Line-Copy-5" transform="translate(97.500000, 182.784487)">
                    <path d="M0.5,15 L64.5,15" id="Line" stroke-width="4" stroke-linecap="round" stroke-linejoin="round"></path>
                    <path d="M21.5,0.216418907 L21.5,10.8497522" id="Line" stroke-width="5" stroke-linecap="square"></path>
                    <path d="M41.5,0.216418907 L41.5,10.8497522" id="Line-Copy-4" stroke-width="5" stroke-linecap="square"></path>
                </g>
                <rect id="Rectangle-30" stroke-width="4" fill="#4A4A4A" x="0.5" y="0" width="252.5" height="182.784487" rx="3"></rect>
            </g>
            <g id="Group-Copy-6" transform="translate(716.500000, 360.500000) rotate(-180.000000) translate(-716.500000, -360.500000) translate(651.000000, 295.000000)" stroke-width="3" sketch:type="MSShapeGroup">
                <rect id="Rectangle-31-Copy-2" stroke="#646464" stroke-linecap="round" stroke-linejoin="round" x="0.298055441" y="0.084585118" width="130.498084" height="130.498084"></rect>
                <path d="M15.6441505,62.9888509 L79.773921,62.9888509" id="Line-Copy-109" stroke="#50E3C2" stroke-linecap="square"></path>
                <path d="M35.1959903,98.4215586 L45.2744927,98.4215587" id="Line-Copy-156" stroke="#50E3C2" stroke-linecap="square"></path>
                <path d="M49.8670167,98.4215586 L52.8032283,98.4215587 M49.8670167,98.4215586 L52.8032283,98.4215587 M57.3957523,98.4215586 L60.3319639,98.4215587 M56.3919209,103.440716 L59.3281325,103.440716 M112.60648,103.440716 L115.542692,103.440716" id="Line-Copy-157" stroke="#50E3C2" stroke-linecap="square"></path>
                <path d="M15.6441505,68.0588349 L107.973423,68.0588349" id="Line-Copy-110" stroke="#50E3C2" stroke-linecap="square"></path>
                <path d="M15.6761778,17.358995 L79.8375038,17.358995" id="Line-Copy-100" stroke="#F6A623" stroke-linecap="square"></path>
                <path d="M70.8656876,83.2116067 L109.822816,83.2116067" id="Line-Copy-163" stroke="#F6A623" stroke-linecap="square"></path>
                <path d="M114.522061,83.2116067 L115.843504,83.2116067" id="Line-Copy-164" stroke="#F6A623" stroke-linecap="square"></path>
                <path d="M15.6059175,22.428979 L37.8693789,22.428979" id="Line-Copy-101" stroke="#4990E2" stroke-linecap="square"></path>
                <path d="M42.2434278,22.428979 L43.7687455,22.428979" id="Line-Copy-137" stroke="#4990E2" stroke-linecap="square"></path>
                <path d="M48.2664163,22.428979 L49.791734,22.428979" id="Line-Copy-152" stroke="#4990E2" stroke-linecap="square"></path>
                <path d="M53.7874891,22.428979 L55.3128068,22.428979" id="Line-Copy-153" stroke="#4990E2" stroke-linecap="square"></path>
                <path d="M59.8104776,22.428979 L66.8616955,22.428979" id="Line-Copy-154" stroke="#4990E2" stroke-linecap="square"></path>
                <path d="M83.169681,22.428979 L116.547543,22.428979" id="Line-Copy-162" stroke="#4990E2" stroke-linecap="square"></path>
                <path d="M60.381745,73.0335185 L116.051125,73.0335185" id="Line-Copy-135" stroke="#4990E2" stroke-linecap="square"></path>
                <path d="M81.2123335,52.848883 L116.54949,52.848883" id="Line-Copy-133" stroke="#4990E2" stroke-linecap="square"></path>
                <path d="M84.3683696,17.358995 L116.547086,17.358995" id="Line-Copy-114" stroke="#4990E2" stroke-linecap="square"></path>
                <path d="M34.2693967,42.8042154 L116.546524,43.2683898" id="Line-Copy-115" stroke="#4990E2" stroke-linecap="square"></path>
                <path d="M37.4403374,88.078283 L115.547473,88.078283" id="Line-Copy-123" stroke="#4990E2" stroke-linecap="square"></path>
                <path d="M15.6059516,27.498963 L46.9553337,27.498963" id="Line-Copy-102" stroke="#50E3C2" stroke-linecap="square"></path>
                <path d="M51.8364806,27.498963 L116.546861,27.498963" id="Line-Copy-132" stroke="#50E3C2" stroke-linecap="square"></path>
                <path d="M56.7896974,47.778899 L88.1390795,47.778899" id="Line-Copy-124" stroke="#50E3C2" stroke-linecap="square"></path>
                <path d="M15.7649061,32.568947 L32.3084071,32.568947" id="Line-Copy-103" stroke="#FF0CA6" stroke-linecap="square"></path>
                <path d="M36.9019244,32.8675551 L116.547345,32.8675551" id="Line-Copy-134" stroke="#FF0CA6" stroke-linecap="square"></path>
                <path d="M15.7649061,73.1288189 L32.3084071,73.1288189" id="Line-Copy-111" stroke="#FF0CA6" stroke-linecap="square"></path>
                <path d="M85.6787129,62.9888509 L102.222214,62.9888509" id="Line-Copy-165" stroke="#FF0CA6" stroke-linecap="square"></path>
                <path d="M15.7649061,78.2941034 L72.4616638,78.2941034" id="Line-Copy-113" stroke="#FF0CA6" stroke-linecap="square"></path>
                <path d="M15.6059624,37.638931 L50.7596514,37.638931" id="Line-Copy-104" stroke="#B8E986" stroke-linecap="square"></path>
                <path d="M77.3426812,78.2941034 L116.044759,78.2941034" id="Line-Copy-166" stroke="#B8E986" stroke-linecap="square"></path>
                <path d="M113.025798,68.1541354 L116.044759,68.1541354" id="Line-Copy-167" stroke="#B8E986" stroke-linecap="square"></path>
                <path d="M106.518327,63.0841514 L116.048179,63.0841514" id="Line-Copy-168" stroke="#B8E986" stroke-linecap="square"></path>
                <path d="M15.6216079,42.708915 L29.7122869,42.708915" id="Line-Copy-105" stroke="#BD0FE1" stroke-linecap="square"></path>
                <path d="M92.3440041,47.778899 L106.434683,47.778899" id="Line-Copy-125" stroke="#BD0FE1" stroke-linecap="square"></path>
                <path d="M111.025451,47.778899 L116.546523,47.778899" id="Line-Copy-126" stroke="#BD0FE1" stroke-linecap="square"></path>
                <path d="M37.086465,73.1288189 L43.7219344,73.1288189" id="Line-Copy-127" stroke="#BD0FE1" stroke-linecap="square"></path>
                <path d="M48.5374971,73.1288189 L55.1729665,73.1288189" id="Line-Copy-128" stroke="#BD0FE1" stroke-linecap="square"></path>
                <path d="M55.5781351,93.3515747 L75.8913518,93.3515747" id="Line-Copy-160" stroke="#BD0FE1" stroke-linecap="square"></path>
                <path d="M80.3394196,93.4468751 L115.542696,93.4468751" id="Line-Copy-161" stroke="#BD0FE1" stroke-linecap="square"></path>
                <path d="M71.6435926,22.4766292 L78.279062,22.4766292" id="Line-Copy-155" stroke="#BD0FE1" stroke-linecap="square"></path>
                <path d="M80.3394196,108.656827 L86.974889,108.656827" id="Line-Copy-129" stroke="#BD0FE1" stroke-linecap="square"></path>
                <path d="M15.6059725,47.778899 L52.0121439,47.778899" id="Line-Copy-106" stroke="#F6A623" stroke-linecap="square"></path>
                <path d="M15.6216079,52.848883 L75.7479796,52.848883" id="Line-Copy-107" stroke="#4A4A4A" stroke-linecap="square"></path>
                <path d="M55.0762194,37.7342314 L116.561131,37.7342314" id="Line-Copy-136" stroke="#4A4A4A" stroke-linecap="square"></path>
                <path d="M15.473464,57.918867 L116.547345,57.918867" id="Line-Copy-108" stroke="#E01E8A" stroke-linecap="square"></path>
                <path d="M15.6059516,83.2116067 L46.9553337,83.2116067" id="Line-Copy-122" stroke="#50E3C2" stroke-linecap="square"></path>
                <path d="M15.7649061,88.2815907 L32.3084071,88.2815907" id="Line-Copy-116" stroke="#FF0CA6" stroke-linecap="square"></path>
                <path d="M15.6059624,93.3515747 L50.7596514,93.3515747" id="Line-Copy-117" stroke="#B8E986" stroke-linecap="square"></path>
                <path d="M92.3805463,108.656827 L115.545528,108.656827" id="Line-Copy-130" stroke="#B8E986" stroke-linecap="square"></path>
                <path d="M15.6216079,98.4215586 L29.7122869,98.4215586" id="Line-Copy-118" stroke="#BD0FE1" stroke-linecap="square"></path>
                <path d="M51.6097473,83.2116067 L65.7004264,83.2116067" id="Line-Copy-131" stroke="#BD0FE1" stroke-linecap="square"></path>
                <path d="M64.0963374,103.345415 L107.543711,103.345415" id="Line-Copy-158" stroke="#BD0FE1" stroke-linecap="square"></path>
                <path d="M64.7571597,98.4215586 L115.542691,98.4215587" id="Line-Copy-159" stroke="#4A4A4A" stroke-linecap="square"></path>
                <path d="M15.6059725,103.345415 L52.0121439,103.345415" id="Line-Copy-119" stroke="#F6A623" stroke-linecap="square"></path>
                <path d="M15.6216079,108.561527 L75.7479796,108.561527" id="Line-Copy-120" stroke="#4A4A4A" stroke-linecap="square"></path>
                <path d="M15.473464,113.631511 L115.802446,113.631511" id="Line-Copy-121" stroke="#E01E8A" stroke-linecap="square"></path>
            </g>
        </g>
    </g>
</svg>