<svg xmlns="http://www.w3.org/2000/svg" xmlns:xlink="http://www.w3.org/1999/xlink" version="1.1" id="Layer_1" x="0px" y="0px" width="100px" height="100px" viewBox="5.0 -10.0 100.0 135.0" enable-background="new 0 0 100 100" xml:space="preserve">
<g>
	<path fill="#000000" d="M9.677,61.625c-1.792,0-3.583-0.684-4.95-2.051c-2.734-2.733-2.733-7.166,0-9.899L49.681,4.725   l44.946,44.951c2.733,2.733,2.733,7.166-0.001,9.899c-2.732,2.733-7.165,2.733-9.899-0.001L49.68,24.523L14.626,59.575   C13.26,60.941,11.468,61.625,9.677,61.625z"/>
</g>
<path fill="#000000" d="M49.675,29.921L16.341,63.256v26.655c0,3.682,2.983,6.667,6.666,6.667h13.341h5.333  c0.731,0,1.322-0.59,1.331-1.32c0-0.005-0.003-0.009-0.003-0.014v-24c0-0.737,0.597-1.334,1.333-1.334h10.667  c0.737,0,1.335,0.597,1.335,1.334v24c0,0.021-0.012,0.039-0.012,0.062c0.032,0.708,0.606,1.272,1.318,1.272h5.333h13.361  c3.682,0,6.667-2.985,6.667-6.667V63.256L49.675,29.921z"/>
<path fill="#000000" d="M76.883,27.625V15.271c0-0.737-0.597-1.334-1.334-1.334h-7.332c-0.737,0-1.334,0.597-1.334,1.334v2.354  L76.883,27.625z"/>
<text x="0.0" y="117.5" font-size="5.0" font-weight="bold" font-family="Helvetica Neue, Helvetica, Arial-Unicode, Arial, Sans-serif" fill="#000000">Created by Sherrinford</text><text x="0.0" y="122.5" font-size="5.0" font-weight="bold" font-family="Helvetica Neue, Helvetica, Arial-Unicode, Arial, Sans-serif" fill="#000000">from the Noun Project</text></svg>