<svg xmlns="http://www.w3.org/2000/svg" xmlns:xlink="http://www.w3.org/1999/xlink" version="1.1" id="Your_Icon" x="0px" y="0px" width="100px" height="100px" viewBox="5.0 -10.0 100.0 135.0" enable-background="new 0 0 100 100" xml:space="preserve">
<path d="M49.999,5C25.145,5,5,25.15,5,50c0,24.854,20.145,45,44.999,45C74.852,95,95,74.854,95,50C95,25.15,74.852,5,49.999,5z   M28.608,85.814c-7.825-4.281-10.637-9.66-10.637-9.66L36.8,60.504c1.957,2.447,4.019,3.424,4.019,3.424L28.608,85.814z   M49.371,64.102c-7.785,0-14.096-6.314-14.096-14.107c0-7.781,6.312-14.09,14.096-14.09c7.789,0,14.102,6.309,14.102,14.09  C63.473,57.787,57.16,64.102,49.371,64.102z M63.393,41.116c0,0-2.628-4.629-8.776-6.806l6.746-23.4c0,0,16.203,5.4,23.999,19.801  L63.393,41.116z M49.609,41.163c-4.608,0-8.336,3.735-8.336,8.334c0,4.608,3.728,8.344,8.336,8.344c4.614,0,8.346-3.736,8.346-8.344  C57.955,44.898,54.223,41.163,49.609,41.163z M49.612,53.441c-2.175,0-3.936-1.766-3.936-3.941c0-2.172,1.761-3.936,3.936-3.936  c2.179,0,3.942,1.764,3.942,3.936C53.554,51.676,51.791,53.441,49.612,53.441z"/>
<text x="0.0" y="117.5" font-size="5.0" font-weight="bold" font-family="Helvetica Neue, Helvetica, Arial-Unicode, Arial, Sans-serif" fill="#000000">Created by Cris Dobbins</text><text x="0.0" y="122.5" font-size="5.0" font-weight="bold" font-family="Helvetica Neue, Helvetica, Arial-Unicode, Arial, Sans-serif" fill="#000000">from the Noun Project</text></svg>