<svg xmlns="http://www.w3.org/2000/svg" xmlns:xlink="http://www.w3.org/1999/xlink" version="1.1" id="Layer_1" x="0px" y="0px" viewBox="5.0 -10.0 100.0 135.0" enable-background="new 0 0 100 100" xml:space="preserve" height="100px" width="100px">
<path d="M7.8,50.6c0.4-0.1,0.8-0.2,1.2-0.3l0.9,3.3c1.1-0.3,2.2-0.7,3.3-1.1l-1.2-3.2c0.4-0.1,0.8-0.3,1.2-0.5l1.3,3.2  c1.1-0.4,2.1-0.9,3.2-1.5l-1.5-3.1c0.4-0.2,0.8-0.4,1.1-0.6l1.6,3c1-0.6,2-1.2,3-1.8l-1.9-2.8c0.4-0.2,0.7-0.5,1.1-0.7l1.9,2.8  c0.9-0.7,1.9-1.4,2.8-2.1l-2.1-2.6c0.3-0.3,0.7-0.6,1-0.8l2.2,2.5c0.9-0.8,1.7-1.6,2.5-2.4L27,39.5c0.3-0.3,0.6-0.6,0.9-0.9l2.4,2.2  c0.8-0.9,1.5-1.8,2.2-2.7l-2.6-2c0.3-0.3,0.5-0.7,0.8-1l2.6,1.9c0.7-0.9,1.3-1.9,1.9-2.9l-2.7-1.7c0.2-0.4,0.4-0.7,0.7-1.1l2.8,1.6  c0.6-1,1.1-2,1.6-3.1l-2.9-1.3c0.2-0.4,0.4-0.8,0.5-1.2l2.9,1.2c0.4-1.1,0.8-2.2,1.2-3.2l-3-1c0.1-0.4,0.3-0.8,0.4-1.2l3,0.9  c0.3-1.1,0.6-2.2,0.8-3.4l-3-0.6c0.1-0.4,0.2-0.8,0.2-1.3l3,0.5c0.2-1.1,0.3-2.3,0.4-3.4l-3-0.3c0-0.4,0.1-0.9,0.1-1.3l0-0.1l3,0.2  c0.1-1.1,0.1-2.3,0-3.5l-3,0c0-0.4,0-0.9,0-1.3l3-0.1c-0.1-1-0.2-2-0.3-3c-10.5,2.1-20.2,8-27.1,17.3C7,33,4.2,44,5.2,54.7  c1.2-0.2,2.3-0.4,3.4-0.7L7.8,50.6z"/>
<path d="M95,46.6c-1,0.2-2,0.4-3,0.6l0.7,3c-0.4,0.1-0.8,0.2-1.2,0.3l-0.8-2.9c-1.1,0.3-2.2,0.7-3.3,1l1.1,2.9  c-0.4,0.1-0.8,0.3-1.2,0.5L86,49.1c-1.1,0.4-2.1,0.9-3.2,1.4l1.4,2.8c-0.4,0.2-0.8,0.4-1.1,0.6l-1.5-2.7c-1,0.5-2,1.1-3,1.8l1.7,2.6  c-0.4,0.2-0.7,0.5-1.1,0.7l-1.8-2.6c-0.9,0.7-1.9,1.4-2.8,2.1l2,2.4c-0.3,0.3-0.7,0.6-1,0.8l-2.1-2.4c-0.9,0.8-1.7,1.6-2.5,2.4  l2.3,2.2c-0.3,0.3-0.6,0.6-0.9,0.9l-2.3-2.1c-0.8,0.8-1.5,1.7-2.2,2.6l2.5,1.9c-0.3,0.3-0.5,0.7-0.8,1l-2.6-1.9  c-0.7,0.9-1.3,1.9-1.9,2.9l2.7,1.7c-0.2,0.4-0.4,0.7-0.7,1.1l-2.8-1.6c-0.6,1-1.1,2-1.6,3.1l2.9,1.3c-0.2,0.4-0.4,0.8-0.5,1.2  l-3-1.3c-0.5,1.1-0.9,2.1-1.2,3.2l3.1,1c-0.1,0.4-0.3,0.8-0.4,1.2l-3.1-0.9c-0.3,1.1-0.6,2.2-0.9,3.4l3.2,0.7  c-0.1,0.4-0.2,0.8-0.2,1.3l-3.2-0.6c-0.2,1.1-0.4,2.3-0.5,3.4l3.3,0.3c0,0.4-0.1,0.9-0.1,1.3l0,0.1l-3.3-0.2  c-0.1,1.2-0.1,2.3-0.1,3.5l3.3-0.1c0,0.4,0,0.9,0,1.3l-3.3,0.2c0.1,1.2,0.2,2.3,0.3,3.5c10.5-2.1,20.2-8,27.1-17.3  C93.1,68.3,95.9,57.3,95,46.6z"/>
<path d="M77,14.5c-9.7-7.2-21.3-9.9-32.4-8.6c0.1,1.1,0.3,2.3,0.3,3.4l3.3-0.2c0,0.5,0,1.1,0.1,1.6l-3.3,0.1c0,1.3,0,2.5,0,3.7  l3.3,0.2l0,0.1c0,0.5-0.1,1.1-0.1,1.6l-3.3-0.3c-0.1,1.2-0.3,2.5-0.5,3.7l3.2,0.6c-0.1,0.5-0.2,1.1-0.3,1.6L44,21.3  c-0.2,1.2-0.5,2.4-0.9,3.6l3.1,0.9c-0.2,0.5-0.3,1-0.5,1.5l-3-1c-0.4,1.2-0.8,2.4-1.3,3.5l2.9,1.2c-0.2,0.5-0.4,1-0.7,1.5l-2.9-1.3  c-0.5,1.1-1.1,2.3-1.7,3.4l2.7,1.5c-0.3,0.5-0.5,0.9-0.8,1.4L38.4,36c-0.6,1.1-1.3,2.1-2.1,3.1l2.5,1.8c-0.3,0.4-0.6,0.9-1,1.3  l-2.4-1.9c-0.8,1-1.6,2-2.4,2.9l2.3,2c-0.4,0.4-0.7,0.8-1.1,1.2L32,44.4c-0.9,0.9-1.8,1.8-2.7,2.6l2,2.2c-0.4,0.4-0.8,0.7-1.2,1  L28.2,48c-1,0.8-2,1.6-3,2.3l1.7,2.4c-0.4,0.3-0.9,0.6-1.3,0.9l-1.6-2.5c-1,0.7-2.1,1.3-3.2,2l1.4,2.6c-0.5,0.3-0.9,0.5-1.4,0.7  l-1.3-2.6c-1.1,0.6-2.3,1.1-3.4,1.6L17,58c-0.5,0.2-1,0.4-1.5,0.6l-1-2.7c-1.2,0.4-2.4,0.8-3.6,1.2l0.8,2.8c-0.5,0.1-1,0.3-1.6,0.4  l-0.7-2.8c-1.3,0.3-2.5,0.6-3.8,0.8c1.9,11,7.9,21.4,17.5,28.6c9.7,7.2,21.3,9.9,32.4,8.6c-0.2-1.3-0.3-2.6-0.3-3.9l-3,0.1  c0-0.5,0-1.1-0.1-1.6l3,0c0-1.3,0-2.5,0.1-3.8l-3-0.2l0-0.1c0-0.5,0.1-1.1,0.1-1.6l3,0.3c0.1-1.3,0.3-2.5,0.5-3.7l-3-0.5  c0.1-0.5,0.2-1.1,0.3-1.6l3,0.6c0.3-1.2,0.6-2.4,0.9-3.6l-2.9-0.9c0.2-0.5,0.3-1,0.5-1.5l2.9,1c0.4-1.2,0.9-2.4,1.3-3.5l-2.9-1.2  c0.2-0.5,0.4-1,0.7-1.5l2.8,1.3c0.5-1.1,1.1-2.2,1.7-3.3l-2.7-1.5c0.3-0.5,0.5-0.9,0.8-1.4l2.7,1.6c0.7-1.1,1.4-2.1,2.1-3.1  l-2.6-1.9c0.3-0.4,0.6-0.9,1-1.3l2.5,1.9c0.8-1,1.6-2,2.4-2.9l-2.3-2.1c0.4-0.4,0.7-0.8,1.1-1.2l2.3,2.2c0.9-0.9,1.8-1.8,2.7-2.6  l-2.1-2.4c0.4-0.4,0.8-0.7,1.2-1l2,2.5c1-0.8,2-1.5,3-2.3l-1.8-2.6c0.4-0.3,0.9-0.6,1.3-0.9l1.7,2.7c1.1-0.7,2.1-1.3,3.2-1.9  l-1.5-2.8c0.5-0.3,0.9-0.5,1.4-0.7l1.4,2.9c1.1-0.6,2.3-1.1,3.4-1.5l-1.2-3c0.5-0.2,1-0.4,1.5-0.6l1.1,3.1c1.2-0.4,2.4-0.8,3.6-1.1  L88.7,41c0.5-0.1,1-0.3,1.6-0.4l0.8,3.2c1.1-0.3,2.3-0.5,3.4-0.7C92.6,32,86.6,21.7,77,14.5z"/>
<text x="0.0" y="117.5" font-size="5.0" font-weight="bold" font-family="Helvetica Neue, Helvetica, Arial-Unicode, Arial, Sans-serif" fill="#000000">Created by Melissa Holterman</text><text x="0.0" y="122.5" font-size="5.0" font-weight="bold" font-family="Helvetica Neue, Helvetica, Arial-Unicode, Arial, Sans-serif" fill="#000000">from the Noun Project</text></svg>