<?xml version="1.0" encoding="UTF-8" standalone="no"?>
<svg width="45px" height="12px" viewBox="0 0 45 12" version="1.1" xmlns="http://www.w3.org/2000/svg" xmlns:xlink="http://www.w3.org/1999/xlink" xmlns:sketch="http://www.bohemiancoding.com/sketch/ns">
    <!-- Generator: Sketch 3.3.2 (12043) - http://www.bohemiancoding.com/sketch -->
    <title>posts</title>
    <desc>Created with Sketch.</desc>
    <defs></defs>
    <g id="Page-1" stroke="none" stroke-width="1" fill="none" fill-rule="evenodd" sketch:type="MSPage">
        <path d="M0.72,11.3569444 C0.72,11.5097222 0.842222222,11.6472222 1.01027778,11.6472222 L2.81305556,11.6472222 C2.96583333,11.6472222 3.10333333,11.5097222 3.10333333,11.3569444 L3.10333333,7.76666667 L4.7075,7.76666667 C6.57138889,7.76666667 8.11444444,6.22361111 8.11444444,4.32916667 C8.11444444,2.48055556 6.57138889,0.952777778 4.69222222,0.952777778 L1.01027778,0.952777778 C0.842222222,0.952777778 0.72,1.09027778 0.72,1.24305556 L0.72,11.3569444 Z M3.10333333,5.53611111 L3.10333333,3.19861111 L4.55472222,3.19861111 C5.21166667,3.19861111 5.76166667,3.6875 5.76166667,4.32916667 C5.76166667,5.01666667 5.21166667,5.53611111 4.55472222,5.53611111 L3.10333333,5.53611111 Z M8.93944444,6.31527778 C8.93944444,9.37083333 11.3686111,11.8 14.4241667,11.8 C17.4797222,11.8 19.9241667,9.37083333 19.9241667,6.31527778 C19.9241667,3.25972222 17.4797222,0.8 14.4241667,0.8 C11.3686111,0.8 8.93944444,3.25972222 8.93944444,6.31527778 L8.93944444,6.31527778 Z M11.3838889,6.31527778 C11.3838889,4.63472222 12.7588889,3.24444444 14.4241667,3.24444444 C16.1047222,3.24444444 17.4797222,4.63472222 17.4797222,6.31527778 C17.4797222,7.98055556 16.1047222,9.35555556 14.4241667,9.35555556 C12.7588889,9.35555556 11.3838889,7.98055556 11.3838889,6.31527778 L11.3838889,6.31527778 Z M21.2380556,10.6236111 C21.5894444,10.975 22.6894444,11.8 24.6755556,11.8 C26.9213889,11.8 28.2811111,10.2111111 28.2811111,8.6375 C28.2811111,6.55972222 26.3866667,5.62777778 25.195,5.15416667 C23.9880556,4.66527778 23.5297222,4.2375 23.5297222,3.67222222 C23.5297222,3.25972222 23.9422222,2.89305556 24.4922222,2.89305556 C25.4241667,2.89305556 26.5394444,3.73333333 26.6769444,3.80972222 C26.8144444,3.91666667 27.0894444,3.77916667 27.1963889,3.61111111 L27.9755556,2.43472222 C28.0366667,2.32777778 28.0672222,2.05277778 27.8838889,1.94583333 C27.4255556,1.60972222 26.2033333,0.8 24.6144444,0.8 C22.2616667,0.8 21.0852778,2.32777778 21.0852778,3.84027778 C21.0852778,5.67361111 22.7352778,6.69722222 24.0491667,7.21666667 C25.0880556,7.62916667 25.6227778,8.11805556 25.6227778,8.75972222 C25.6227778,9.29444444 25.1797222,9.67638889 24.5686111,9.67638889 C23.5602778,9.67638889 22.4602778,8.86666667 22.3991667,8.83611111 C22.2922222,8.75972222 22.0019444,8.72916667 21.8797222,8.92777778 L21.1616667,10.1958333 C21.0394444,10.4097222 21.0852778,10.4708333 21.2380556,10.6236111 L21.2380556,10.6236111 Z M31.52,11.3569444 C31.52,11.5097222 31.6575,11.6472222 31.8102778,11.6472222 L33.6436111,11.6472222 C33.7963889,11.6472222 33.9338889,11.5097222 33.9338889,11.3569444 L33.9338889,3.19861111 L36.1186111,3.19861111 C36.2866667,3.19861111 36.4088889,3.06111111 36.4088889,2.90833333 L36.4088889,1.24305556 C36.4088889,1.09027778 36.2866667,0.952777778 36.1186111,0.952777778 L29.3352778,0.952777778 C29.1672222,0.952777778 29.045,1.09027778 29.045,1.24305556 L29.045,2.90833333 C29.045,3.06111111 29.1672222,3.19861111 29.3352778,3.19861111 L31.52,3.19861111 L31.52,11.3569444 Z M37.4019444,10.6236111 C37.7533333,10.975 38.8533333,11.8 40.8394444,11.8 C43.0852778,11.8 44.445,10.2111111 44.445,8.6375 C44.445,6.55972222 42.5505556,5.62777778 41.3588889,5.15416667 C40.1519444,4.66527778 39.6936111,4.2375 39.6936111,3.67222222 C39.6936111,3.25972222 40.1061111,2.89305556 40.6561111,2.89305556 C41.5880556,2.89305556 42.7033333,3.73333333 42.8408333,3.80972222 C42.9783333,3.91666667 43.2533333,3.77916667 43.3602778,3.61111111 L44.1394444,2.43472222 C44.2005556,2.32777778 44.2311111,2.05277778 44.0477778,1.94583333 C43.5894444,1.60972222 42.3672222,0.8 40.7783333,0.8 C38.4255556,0.8 37.2491667,2.32777778 37.2491667,3.84027778 C37.2491667,5.67361111 38.8991667,6.69722222 40.2130556,7.21666667 C41.2519444,7.62916667 41.7866667,8.11805556 41.7866667,8.75972222 C41.7866667,9.29444444 41.3436111,9.67638889 40.7325,9.67638889 C39.7241667,9.67638889 38.6241667,8.86666667 38.5630556,8.83611111 C38.4561111,8.75972222 38.1658333,8.72916667 38.0436111,8.92777778 L37.3255556,10.1958333 C37.2033333,10.4097222 37.2491667,10.4708333 37.4019444,10.6236111 L37.4019444,10.6236111 Z" id="POSTS" fill="#FFFFFF" sketch:type="MSShapeGroup"></path>
    </g>
</svg>