<?xml version="1.0" encoding="UTF-8" standalone="no"?>
<svg width="350px" height="136px" viewBox="0 0 350 136" version="1.1" xmlns="http://www.w3.org/2000/svg" xmlns:xlink="http://www.w3.org/1999/xlink" xmlns:sketch="http://www.bohemiancoding.com/sketch/ns">
    <!-- Generator: Sketch 3.3 (11970) - http://www.bohemiancoding.com/sketch -->
    <title>Star 2 Copy 3 + Star 2 Copy 4 + Star 2 Copy 5</title>
    <desc>Created with Sketch.</desc>
    <defs></defs>
    <g id="Page-1" stroke="none" stroke-width="1" fill="none" fill-rule="evenodd" sketch:type="MSPage">
        <g id="Star-2-Copy-3-+-Star-2-Copy-4-+-Star-2-Copy-5" sketch:type="MSLayerGroup" transform="translate(1.000000, 2.000000)" stroke="#4A4A4A" stroke-width="3" stroke-linecap="round" stroke-linejoin="round">
            <polygon id="Star-2-Copy-3" sketch:type="MSShapeGroup" points="15 22.5 6.18322122 27.1352549 7.86707613 17.3176275 0.734152256 10.3647451 10.5916106 8.93237254 15 0 19.4083894 8.93237254 29.2658477 10.3647451 22.1329239 17.3176275 23.8167788 27.1352549 "></polygon>
            <polygon id="Star-2-Copy-4" sketch:type="MSShapeGroup" points="30 57 24.1221475 60.0901699 25.2447174 53.545085 20.4894348 48.9098301 27.0610737 47.954915 30 42 32.9389263 47.954915 39.5105652 48.9098301 34.7552826 53.545085 35.8778525 60.0901699 "></polygon>
            <polygon id="Star-2-Copy-5" sketch:type="MSShapeGroup" points="338 129 332.122147 132.09017 333.244717 125.545085 328.489435 120.90983 335.061074 119.954915 338 114 340.938926 119.954915 347.510565 120.90983 342.755283 125.545085 343.877853 132.09017 "></polygon>
        </g>
    </g>
</svg>