<?xml version="1.0" encoding="UTF-8" standalone="no"?>
<svg width="246px" height="286px" viewBox="0 0 246 286" version="1.1" xmlns="http://www.w3.org/2000/svg" xmlns:xlink="http://www.w3.org/1999/xlink" xmlns:sketch="http://www.bohemiancoding.com/sketch/ns">
    <!-- Generator: Sketch 3.3 (11970) - http://www.bohemiancoding.com/sketch -->
    <title>Team3-Dashers</title>
    <desc>Created with Sketch.</desc>
    <defs></defs>
    <g id="Page-1" stroke="none" stroke-width="1" fill="none" fill-rule="evenodd" sketch:type="MSPage">
        <polygon id="Polygon-1-Copy-6" opacity="0" fill="#ECECEC" sketch:type="MSShapeGroup" points="122.56598 0.147488558 245.13196 71.3809657 245.13196 213.84792 122.56598 285.081397 -1.4417669e-13 213.84792 -2.22588575e-13 71.3809657 "></polygon>
        <g id="Shape-Copy-+-Line-Copy-7-+-Line-Copy-9-+-Line-Copy-11-+-Line-Copy-10" sketch:type="MSLayerGroup" transform="translate(54.000000, 87.147489)">
            <path d="M68.0842212,0.0631402348 C41.2811633,0.0631402348 19.5532828,21.876511 19.5532828,48.7862189 C19.5532828,49.7461739 19.5900595,50.6966009 19.6446313,51.6410728 C19.6446313,51.6410728 29.1638512,51.8221065 34.5261237,55.3165335 C33.6814471,60.3747582 32.6991547,65.4508481 31.48078,70.4578593 C22.0457904,70.9997694 12.6119872,71.5404885 3.17699768,72.0812077 C-0.326274564,72.2824885 -0.408132263,77.6658593 2.98006466,77.6741964 L2.98006466,99.567365 C2.73330522,99.6233425 2.48535944,99.682893 2.23741366,99.7376796 C-1.26941762,100.513028 0.218257085,105.903545 3.7179703,105.129387 C9.03160266,103.953859 14.3345579,102.4115 19.3717723,100.345095 C22.3388173,99.1278818 25.6273614,97.7153425 27.7853201,95.2356571 C29.7368551,92.9929829 30.9398074,90.2286459 32.0561566,87.5048032 C33.6055211,83.7233425 34.8749086,79.7930054 35.9544812,75.7923987 C37.7743321,75.6875897 39.5929966,75.5827807 41.4128475,75.4791627 C41.4745373,76.9226683 41.47691,77.9767133 41.47691,78.3923762 C41.47691,89.2484436 50.2439882,98.0512077 61.0586952,98.0512077 C66.2833518,98.0512077 73.3907355,99.9032301 92.0863221,82.7312301 C95.7995771,79.003365 112.468889,79.5083537 112.468889,79.5083537 C113.830811,79.6691402 118.870398,62.5233425 118.870398,48.7862189 C118.870398,19.6326459 102.826289,0.0631402348 68.0842212,0.0631402348 L68.0842212,0.0631402348 Z M27.5385607,83.7840841 C26.6393123,86.2994998 25.5822803,88.8006234 24.0590153,91.0063762 C23.7790382,91.41132 22.8038639,92.3224436 21.9971504,92.8464885 C20.5854016,93.7635672 19.0301054,94.486511 17.4759954,95.122511 C14.5813174,96.3099492 11.5834274,97.3044436 8.54876087,98.1572077 L8.54876087,77.3633425 C15.6941075,76.9536346 22.8394542,76.5439268 29.9836145,76.1342189 C29.2480816,78.7175223 28.437809,81.2710503 27.5385607,83.7840841 L27.5385607,83.7840841 Z M37.3555528,70.1219942 C37.9914329,67.3028706 38.551387,64.4658818 39.0638874,61.6336571 C40.0188939,64.2288706 40.5966432,67.1944885 40.9442418,69.9159492 C39.7484076,69.9850279 38.551387,70.0529155 37.3555528,70.1219942 L37.3555528,70.1219942 Z M69.2124338,69.8861739 C64.8182176,69.8861739 61.2556282,66.3095672 61.2556282,61.8992526 C61.2556282,57.487747 64.8182176,53.9111402 69.2124338,53.9111402 C73.6054636,53.9111402 77.1680531,57.486556 77.1680531,61.8992526 C77.1680531,66.3095672 73.6054636,69.8861739 69.2124338,69.8861739 L69.2124338,69.8861739 Z" id="Shape-Copy" fill="#2E2E2E" sketch:type="MSShapeGroup"></path>
            <g id="Line-Copy-7-+-Line-Copy-9-+-Line-Copy-11-+-Line-Copy-10" transform="translate(59.553037, 21.330082)" stroke="#7ECFBE" stroke-width="5.6" stroke-linecap="square" sketch:type="MSShapeGroup">
                <path d="M0.373495894,3.25450104 L27.2645887,3.25450104" id="Line-Copy-7"></path>
                <path d="M0.373495894,14.7230295 L27.2645887,14.7230295" id="Line-Copy-9"></path>
            </g>
        </g>
    </g>
</svg>