<?xml version="1.0" encoding="UTF-8" standalone="no"?>
<svg width="61px" height="12px" viewBox="0 0 61 12" version="1.1" xmlns="http://www.w3.org/2000/svg" xmlns:xlink="http://www.w3.org/1999/xlink" xmlns:sketch="http://www.bohemiancoding.com/sketch/ns">
    <!-- Generator: Sketch 3.3.2 (12043) - http://www.bohemiancoding.com/sketch -->
    <title>Slice 1</title>
    <desc>Created with Sketch.</desc>
    <defs></defs>
    <g id="Page-1" stroke="none" stroke-width="1" fill="none" fill-rule="evenodd" sketch:type="MSPage">
        <path d="M2.78985915,11.5056338 C2.78985915,11.6605634 2.92929577,11.8 3.08422535,11.8 L4.94338028,11.8 C5.09830986,11.8 5.23774648,11.6605634 5.23774648,11.5056338 L5.23774648,3.23239437 L7.45323944,3.23239437 C7.62366197,3.23239437 7.74760563,3.09295775 7.74760563,2.93802817 L7.74760563,1.24929577 C7.74760563,1.0943662 7.62366197,0.954929577 7.45323944,0.954929577 L0.574366197,0.954929577 C0.403943662,0.954929577 0.28,1.0943662 0.28,1.24929577 L0.28,2.93802817 C0.28,3.09295775 0.403943662,3.23239437 0.574366197,3.23239437 L2.78985915,3.23239437 L2.78985915,11.5056338 Z M9.29690141,11.5056338 C9.29690141,11.6605634 9.43633803,11.8 9.59126761,11.8 L11.4349296,11.8 C11.6053521,11.8 11.7292958,11.6605634 11.7292958,11.5056338 L11.7292958,7.43098592 L16.1602817,7.43098592 L16.1602817,11.5056338 C16.1602817,11.6605634 16.2842254,11.8 16.4546479,11.8 L18.2983099,11.8 C18.4532394,11.8 18.5926761,11.6605634 18.5926761,11.5056338 L18.5926761,1.24929577 C18.5926761,1.0943662 18.4532394,0.954929577 18.2983099,0.954929577 L16.4546479,0.954929577 C16.2842254,0.954929577 16.1602817,1.0943662 16.1602817,1.24929577 L16.1602817,5.15352113 L11.7292958,5.15352113 L11.7292958,1.24929577 C11.7292958,1.0943662 11.6053521,0.954929577 11.4349296,0.954929577 L9.59126761,0.954929577 C9.43633803,0.954929577 9.29690141,1.0943662 9.29690141,1.24929577 L9.29690141,11.5056338 Z M21.2574648,11.5056338 C21.2574648,11.6605634 21.3814085,11.8 21.551831,11.8 L27.9659155,11.8 C28.136338,11.8 28.2602817,11.6605634 28.2602817,11.5056338 L28.2602817,9.81690141 C28.2602817,9.66197183 28.136338,9.52253521 27.9659155,9.52253521 L23.6743662,9.52253521 L23.6743662,7.43098592 L27.2067606,7.43098592 C27.3616901,7.43098592 27.5011268,7.30704225 27.5011268,7.13661972 L27.5011268,5.44788732 C27.5011268,5.29295775 27.3616901,5.15352113 27.2067606,5.15352113 L23.6743662,5.15352113 L23.6743662,3.23239437 L27.9659155,3.23239437 C28.136338,3.23239437 28.2602817,3.09295775 28.2602817,2.93802817 L28.2602817,1.24929577 C28.2602817,1.0943662 28.136338,0.954929577 27.9659155,0.954929577 L21.551831,0.954929577 C21.3814085,0.954929577 21.2574648,1.0943662 21.2574648,1.24929577 L21.2574648,11.5056338 Z M33.7602817,11.5056338 C33.7602817,11.6605634 33.8842254,11.8 34.0546479,11.8 L39.88,11.8 C40.0504225,11.8 40.1743662,11.6605634 40.1743662,11.5056338 L40.1743662,9.81690141 C40.1743662,9.66197183 40.0504225,9.52253521 39.88,9.52253521 L36.1926761,9.52253521 L36.1926761,1.24929577 C36.1926761,1.0943662 36.0532394,0.954929577 35.8983099,0.954929577 L34.0546479,0.954929577 C33.8842254,0.954929577 33.7602817,1.0943662 33.7602817,1.24929577 L33.7602817,11.5056338 Z M41.0574648,11.8 L42.7616901,11.8 C43.0715493,11.8 43.2419718,11.6140845 43.3194366,11.428169 L43.8771831,10.1887324 L48.0912676,10.1887324 L48.6490141,11.4126761 C48.7884507,11.7070423 48.9123944,11.8 49.1912676,11.8 L50.9109859,11.8 C51.1433803,11.8 51.2673239,11.5985915 51.1743662,11.3971831 L46.3250704,0.970422535 C46.2785915,0.877464789 46.1701408,0.8 46.0616901,0.8 L45.9067606,0.8 C45.7983099,0.8 45.6898592,0.877464789 45.6433803,0.970422535 L40.7940845,11.3971831 C40.7011268,11.5985915 40.8250704,11.8 41.0574648,11.8 L41.0574648,11.8 Z M44.8067606,8.08169014 L45.9687324,5.52535211 L45.9842254,5.52535211 L47.1616901,8.08169014 L44.8067606,8.08169014 Z M52.4447887,11.5056338 C52.4447887,11.6605634 52.5687324,11.8 52.7391549,11.8 L56.5814085,11.8 C58.4250704,11.8 59.9588732,10.5450704 59.9588732,8.80985915 C59.9588732,7.38450704 58.7039437,6.62535211 57.8828169,6.28450704 C58.6109859,5.8971831 59.68,5.02957746 59.68,3.83661972 C59.68,2.20985915 58.1771831,0.954929577 56.3490141,0.954929577 L52.7391549,0.954929577 C52.5687324,0.954929577 52.4447887,1.0943662 52.4447887,1.24929577 L52.4447887,11.5056338 Z M54.8616901,5.35492958 L54.8616901,3.18591549 L56.0701408,3.18591549 C56.6588732,3.18591549 57.1546479,3.61971831 57.1546479,4.23943662 C57.1546479,4.85915493 56.6588732,5.35492958 56.0701408,5.35492958 L54.8616901,5.35492958 Z M54.8616901,9.58450704 L54.8616901,7.36901408 L56.1166197,7.36901408 C56.7208451,7.36901408 57.3870423,7.83380282 57.3870423,8.45352113 C57.3870423,9.08873239 56.8757746,9.58450704 56.2715493,9.58450704 L54.8616901,9.58450704 Z" id="THE-LAB" fill="#FFFFFF" sketch:type="MSShapeGroup"></path>
    </g>
</svg>