<svg xmlns="http://www.w3.org/2000/svg" width="20" height="16" viewBox="0 0 20 16"><path fill="#fff" d="M19.82 1.907c-.725.32-1.5.537-2.314.633.832-.5 1.473-1.29 1.773-2.227-.782.46-1.642.797-2.562.973C15.984.506 14.935.02 13.778.02c-2.226 0-4.032 1.8-4.032 4.025 0 .318.04.623.105.92C6.5 4.797 3.536 3.192 1.544.755c-.344.594-.54 1.285-.54 2.027 0 1.396.707 2.63 1.79 3.352-.66-.02-1.28-.203-1.824-.5v.05c0 1.95 1.386 3.58 3.23 3.95-.335.092-.694.14-1.06.14-.262 0-.513-.027-.76-.072.515 1.602 2 2.768 3.765 2.797-1.377 1.08-3.117 1.724-5.004 1.724-.325 0-.647-.016-.96-.06 1.782 1.15 3.9 1.815 6.178 1.815 7.412 0 11.46-6.144 11.46-11.464 0-.18 0-.352-.01-.523.788-.566 1.47-1.28 2.012-2.086z"/></svg>