<?xml version="1.0" encoding="UTF-8" standalone="no"?>
<svg width="20px" height="16px" viewBox="0 0 20 16" version="1.1" xmlns="http://www.w3.org/2000/svg" xmlns:xlink="http://www.w3.org/1999/xlink" xmlns:sketch="http://www.bohemiancoding.com/sketch/ns">
    <!-- Generator: Sketch 3.3.2 (12043) - http://www.bohemiancoding.com/sketch -->
    <title>Shape</title>
    <desc>Created with Sketch.</desc>
    <defs></defs>
    <g id="Page-1" stroke="none" stroke-width="1" fill="none" fill-rule="evenodd" sketch:type="MSPage">
        <path d="M19.82,1.907 C19.095,2.227 18.32,2.444 17.506,2.54 C18.338,2.04 18.979,1.25 19.279,0.313 C18.497,0.773 17.637,1.11 16.717,1.286 C15.984,0.506 14.935,0.02 13.778,0.02 C11.552,0.02 9.746,1.82 9.746,4.045 C9.746,4.363 9.786,4.668 9.851,4.965 C6.5,4.797 3.536,3.192 1.544,0.755 C1.2,1.349 1.004,2.04 1.004,2.782 C1.004,4.178 1.711,5.412 2.794,6.134 C2.134,6.114 1.514,5.931 0.97,5.634 L0.97,5.684 C0.97,7.634 2.356,9.264 4.2,9.634 C3.865,9.726 3.506,9.774 3.14,9.774 C2.878,9.774 2.627,9.747 2.38,9.702 C2.895,11.304 4.38,12.47 6.145,12.499 C4.768,13.579 3.028,14.223 1.141,14.223 C0.816,14.223 0.494,14.207 0.181,14.163 C1.963,15.313 4.081,15.978 6.359,15.978 C13.771,15.978 17.819,9.834 17.819,4.514 C17.819,4.334 17.819,4.162 17.809,3.991 C18.597,3.425 19.279,2.711 19.821,1.905 L19.82,1.907 Z" id="Shape" fill="#919191" sketch:type="MSShapeGroup"></path>
    </g>
</svg>